<svg width="20" height="20" viewBox="0 0 20 20" fill="none" xmlns="http://www.w3.org/2000/svg">
<path d="M19.7248 14.5298L19.2353 14.4359C19.1242 14.4157 19.0202 14.3672 18.9334 14.295C18.8465 14.2227 18.7799 14.1293 18.7397 14.0237C18.6973 13.9191 18.6827 13.8053 18.6972 13.6933C18.7118 13.5814 18.755 13.4751 18.8228 13.3848L19.1303 12.9658C19.1782 12.9004 19.2011 12.8201 19.1949 12.7393C19.1886 12.6586 19.1537 12.5827 19.0964 12.5254L18.4323 11.8617C18.3765 11.8062 18.3031 11.7717 18.2247 11.7642C18.1463 11.7567 18.0678 11.7767 18.0025 11.8207L17.5899 12.1C17.497 12.1644 17.3891 12.2037 17.2765 12.2141C17.164 12.2245 17.0507 12.2056 16.9475 12.1593C16.8435 12.1152 16.7527 12.045 16.6838 11.9554C16.6149 11.8658 16.5703 11.76 16.5543 11.6482L16.4753 11.1346C16.4631 11.0546 16.4226 10.9817 16.3612 10.929C16.2999 10.8764 16.2216 10.8474 16.1408 10.8475H15.2018C15.1229 10.8475 15.0466 10.875 14.9858 10.9252C14.9251 10.9755 14.8837 11.0453 14.8689 11.1227L14.7475 11.7549C14.7275 11.8638 14.6803 11.9659 14.6104 12.0517C14.5404 12.1375 14.4499 12.2043 14.3472 12.2458C14.2452 12.2892 14.134 12.3061 14.0237 12.2948C13.9135 12.2836 13.8078 12.2447 13.7167 12.1817L13.1838 11.821C13.1185 11.777 13.0399 11.7571 12.9615 11.7646C12.8832 11.772 12.8098 11.8065 12.754 11.862L12.0899 12.5258C12.0326 12.583 11.9976 12.6589 11.9914 12.7397C11.9852 12.8204 12.0081 12.9008 12.056 12.9661L12.3635 13.3851C12.5018 13.5736 12.5323 13.8065 12.4465 14.0241C12.4064 14.1297 12.3397 14.2231 12.2529 14.2953C12.1661 14.3675 12.062 14.4161 11.9509 14.4363L11.4614 14.5302C11.3841 14.5451 11.3143 14.5865 11.2641 14.6472C11.214 14.708 11.1865 14.7843 11.1865 14.8631V15.802C11.1866 15.883 11.2156 15.9613 11.2683 16.0227C11.321 16.0841 11.394 16.1247 11.474 16.137L11.9875 16.2159C12.0994 16.232 12.2052 16.2766 12.2947 16.3455C12.3843 16.4144 12.4545 16.5052 12.4987 16.6092C12.5449 16.7123 12.5637 16.8256 12.5533 16.9381C12.543 17.0507 12.5037 17.1586 12.4394 17.2515L12.1601 17.6641C12.1159 17.7293 12.0958 17.8079 12.1033 17.8864C12.1108 17.9648 12.1454 18.0382 12.2011 18.0939L12.8648 18.758C12.9828 18.8763 13.1696 18.8905 13.3052 18.7919L13.7242 18.4844C13.8145 18.4167 13.9208 18.3735 14.0327 18.3589C14.1447 18.3444 14.2585 18.359 14.3631 18.4014C14.4687 18.4415 14.5621 18.5082 14.6344 18.595C14.7066 18.6818 14.7551 18.7858 14.7753 18.897L14.8692 19.3865C14.8842 19.4638 14.9256 19.5334 14.9863 19.5836C15.0471 19.6337 15.1234 19.661 15.2021 19.661H16.1411C16.2221 19.661 16.3003 19.632 16.3617 19.5793C16.4232 19.5266 16.4637 19.4536 16.476 19.3736L16.5316 19.0126C16.5485 18.8989 16.5946 18.7915 16.6656 18.7011C16.7365 18.6106 16.8297 18.5402 16.936 18.4966C17.0421 18.4522 17.1578 18.4361 17.272 18.4499C17.3862 18.4637 17.4948 18.5069 17.5872 18.5753L17.8818 18.7915C17.9471 18.8396 18.0274 18.8626 18.1082 18.8564C18.1891 18.8501 18.265 18.8151 18.3221 18.7576L18.9858 18.0936C19.0416 18.0379 19.0762 17.9645 19.0836 17.886C19.0911 17.8076 19.0711 17.729 19.0269 17.6637L18.7475 17.2512C18.6832 17.1583 18.644 17.0503 18.6336 16.9378C18.6232 16.8253 18.642 16.712 18.6882 16.6088C18.7323 16.5048 18.8026 16.4139 18.8921 16.3451C18.9817 16.2762 19.0875 16.2316 19.1994 16.2156L19.713 16.1366C19.7929 16.1242 19.8658 16.0837 19.9185 16.0223C19.9711 15.9608 20.0001 15.8826 20.0001 15.8017V14.8627C20.0001 14.7004 19.8845 14.5607 19.7248 14.5298ZM19.3221 15.5112L19.096 15.5461C18.8713 15.58 18.659 15.6705 18.479 15.8091C18.2989 15.9477 18.1571 16.1298 18.0669 16.3383C17.9754 16.5463 17.9384 16.7741 17.9592 17.0004C17.9801 17.2266 18.0582 17.4438 18.1862 17.6315L18.3086 17.8122L18.0482 18.0726L17.9882 18.0285C17.802 17.891 17.5832 17.8041 17.3533 17.7763C17.1235 17.7486 16.8903 17.7809 16.6767 17.8702C16.4624 17.9579 16.2747 18.0998 16.1317 18.2819C15.9888 18.4641 15.8957 18.6802 15.8614 18.9092L15.8503 18.9831H15.4821L15.4411 18.7685C15.3988 18.5452 15.3004 18.3364 15.1552 18.1617C15.01 17.9869 14.8227 17.852 14.6109 17.7695C14.3996 17.6861 14.1706 17.6577 13.9452 17.687C13.7199 17.7162 13.5058 17.8023 13.3228 17.937L13.1384 18.0722L12.878 17.8119L13.0004 17.6312C13.1283 17.4434 13.2063 17.2262 13.2272 17C13.2481 16.7738 13.2111 16.546 13.1197 16.338C13.0295 16.1295 12.8877 15.9473 12.7076 15.8087C12.5276 15.6702 12.3153 15.5797 12.0906 15.5458L11.8645 15.5112V15.1431L12.0791 15.102C12.3023 15.0597 12.5111 14.9614 12.6859 14.8161C12.8607 14.6709 12.9956 14.4836 13.078 14.2719C13.1615 14.0606 13.19 13.8315 13.1607 13.6062C13.1314 13.3809 13.0453 13.1667 12.9106 12.9837L12.7753 12.7993L13.0357 12.539L13.337 12.7431C13.5214 12.8684 13.734 12.9458 13.9558 12.9683C14.1775 12.9909 14.4014 12.9578 14.6072 12.8722C14.8132 12.7872 14.9948 12.6522 15.1356 12.4794C15.2765 12.3067 15.3721 12.1016 15.414 11.8827L15.4821 11.5254H15.8503L15.8852 11.7515C15.9191 11.9762 16.0095 12.1886 16.1481 12.3686C16.2867 12.5486 16.4689 12.6905 16.6774 12.7807C16.8853 12.8722 17.1132 12.9092 17.3394 12.8883C17.5657 12.8674 17.7829 12.7893 17.9706 12.6614L18.1513 12.539L18.4116 12.7993L18.2764 12.9837C18.1415 13.1666 18.0553 13.3808 18.0261 13.6062C17.9968 13.8315 18.0253 14.0606 18.1089 14.2719C18.1914 14.4836 18.3263 14.6709 18.5011 14.8161C18.6758 14.9613 18.8846 15.0597 19.1079 15.102L19.3221 15.1431V15.5112Z" fill="white"/>
<path d="M15.5932 13.5593C14.6586 13.5593 13.8983 14.3197 13.8983 15.2542C13.8983 16.1888 14.6586 16.9492 15.5932 16.9492C16.5278 16.9492 17.2881 16.1888 17.2881 15.2542C17.2881 14.3197 16.5278 13.5593 15.5932 13.5593ZM15.5932 16.2712C15.0325 16.2712 14.5763 15.8149 14.5763 15.2542C14.5763 14.6936 15.0325 14.2373 15.5932 14.2373C16.1539 14.2373 16.6102 14.6936 16.6102 15.2542C16.6102 15.8149 16.1539 16.2712 15.5932 16.2712ZM10.4081 10.942C10.1608 10.6189 9.94502 10.2728 9.76373 9.90848L9.74813 9.87729L9.74339 9.8678C9.70527 9.79044 9.66866 9.71234 9.63356 9.63356L9.61661 9.59526C9.56922 9.4886 9.52535 9.3804 9.48508 9.27085C9.44978 9.17607 9.41711 9.08033 9.38712 8.98374L9.36271 8.90374C9.33085 8.79865 9.30135 8.69119 9.27559 8.58035L9.2739 8.57356L9.26813 8.54882L9.24339 8.43933L9.12746 8.36441C9.03163 8.30378 8.95263 8.21997 8.89776 8.12073C8.8429 8.02149 8.81394 7.91001 8.81356 7.79662V6.44068C8.81356 6.25051 8.89424 6.07289 9.04068 5.94068L9.15254 5.84001V3.60882L9.14339 3.6017C9.13152 3.35729 9.14644 2.60679 9.69356 1.98238C10.2553 1.3417 11.2139 1.01696 12.5424 1.01696C13.8661 1.01696 14.8227 1.33933 15.3851 1.9756C16.0451 2.7217 15.9363 3.67628 15.9353 3.68441L15.9322 5.84001L16.0441 5.94102C16.1905 6.07289 16.2712 6.25051 16.2712 6.44068V7.79662C16.2712 8.09255 16.0776 8.35153 15.7892 8.44034C15.7058 8.46893 15.6369 8.52883 15.597 8.60735C15.557 8.68588 15.5492 8.77687 15.5752 8.86104C15.6013 8.94521 15.659 9.01595 15.7363 9.05828C15.8135 9.10061 15.9042 9.1112 15.9892 9.0878C16.2667 9.00441 16.51 8.83376 16.683 8.60117C16.8559 8.36859 16.9492 8.08645 16.9492 7.79662V6.44068C16.9481 6.11273 16.8276 5.7964 16.6102 5.55085V3.7478C16.6295 3.56136 16.7037 2.45153 15.901 1.53594C15.2047 0.741701 14.0749 0.338989 12.5424 0.338989C11.0098 0.338989 9.88 0.741701 9.18373 1.5356C8.69729 2.09051 8.5339 2.7156 8.48407 3.16441C7.90271 2.86407 7.2183 2.71187 6.44068 2.71187C2.91898 2.71187 2.71424 5.71357 2.71186 5.76272V7.31492C2.4922 7.55458 2.37288 7.83051 2.37288 8.10475V9.2756C2.37288 9.64136 2.53661 9.98238 2.81729 10.2129C3.09661 11.2671 3.78475 12.0637 4.05254 12.3434V13.2732C4.05254 13.54 3.90712 13.7848 3.65559 13.9224L1.40102 15.337C0.976987 15.5679 0.623064 15.9089 0.376509 16.324C0.129953 16.7392 -0.000114307 17.2131 7.53769e-08 17.6959V18.9831H9.15254C9.24244 18.9831 9.32867 18.9473 9.39224 18.8838C9.45581 18.8202 9.49152 18.734 9.49152 18.6441C9.49152 18.5542 9.45581 18.4679 9.39224 18.4044C9.32867 18.3408 9.24244 18.3051 9.15254 18.3051H5.42373V17.5464C5.42353 17.1189 5.5386 16.6991 5.75681 16.3314C5.97502 15.9637 6.28832 15.6616 6.66373 15.457L9.68847 13.8075C9.93666 13.672 10.1438 13.4721 10.2881 13.2289C10.4323 12.9857 10.5085 12.7082 10.5085 12.4254V11.0631L10.4298 10.9688C10.4288 10.9681 10.4203 10.9573 10.4081 10.942ZM9.83051 12.4254C9.83051 12.7536 9.65152 13.0546 9.36373 13.2119L8.46678 13.701L8.24678 13.821L6.33932 14.8614C5.85691 15.1243 5.4543 15.5124 5.17386 15.9849C4.89343 16.4574 4.74554 16.9967 4.74576 17.5461V18.3051H0.677966V17.6959C0.677966 16.9603 1.07932 16.2844 1.74305 15.922L3.99763 14.5075C4.21944 14.3866 4.40455 14.2082 4.53347 13.991C4.66239 13.7738 4.73034 13.5258 4.73017 13.2732L4.72983 12.0563L4.62305 11.9556C4.6139 11.9475 3.71186 11.0892 3.44712 9.93662L3.41627 9.80238L3.30034 9.7278C3.22418 9.67938 3.16142 9.61259 3.11782 9.53358C3.07422 9.45456 3.05119 9.36585 3.05085 9.2756V8.10475C3.05085 7.98306 3.13356 7.83763 3.2783 7.70679L3.38983 7.60611L3.38915 5.78272C3.39559 5.68509 3.57152 3.38984 6.44068 3.38984C7.2522 3.38984 7.93525 3.57729 8.47458 3.94712V5.55085C8.25719 5.7964 8.13668 6.11273 8.13559 6.44068V7.79662C8.13559 8.03933 8.20712 8.26882 8.32576 8.47187C8.40881 8.6139 8.51118 8.74475 8.64305 8.85051L8.65051 8.87594C8.67017 8.95085 8.69051 9.02475 8.7122 9.09594L8.74034 9.18814L8.75729 9.23967C8.76847 9.27424 8.77932 9.30848 8.79119 9.34238C8.81152 9.40238 8.83322 9.46407 8.8583 9.53119C8.86847 9.55797 8.87932 9.58136 8.88949 9.60746C8.9183 9.68136 8.94746 9.75289 8.97797 9.8234C8.98373 9.83662 8.98915 9.85187 8.99491 9.86509L9.01525 9.91119C9.02441 9.93187 9.0339 9.95018 9.04339 9.97051C9.07525 10.04 9.10678 10.1078 9.13898 10.1732C9.14508 10.1854 9.15085 10.1993 9.15695 10.2115L9.18237 10.261C9.18881 10.2736 9.19491 10.2834 9.20135 10.2956C9.30848 10.5031 9.42533 10.7055 9.55152 10.902L9.55898 10.9139C9.67085 11.0864 9.76779 11.2217 9.83085 11.3041V12.4254H9.83051Z" fill="white"/>
</svg>
