<svg width="14" height="10" viewBox="0 0 14 10" fill="none" xmlns="http://www.w3.org/2000/svg">
<path d="M13.7949 4.70018C13.9082 4.70018 14 4.60792 14 4.49406V1.62532C14 1.1923 13.6495 0.839996 13.2186 0.839996C12.8318 0.839996 12.5099 1.12406 12.4481 1.49549C10.3225 1.48005 10.3747 1.53034 10.2091 1.44979C10.0371 1.36613 9.72812 1.18172 9.40276 0.968562C9.30782 0.906368 9.18076 0.933329 9.11893 1.02869C9.05708 1.12409 9.08388 1.25177 9.17876 1.31397C9.92341 1.80182 10.1398 1.90777 10.4081 1.90777H12.4373V5.90265H11.6965C11.6683 5.72258 11.5869 5.55732 11.4668 5.42719C8.95293 2.58096 9.14073 2.78934 9.03061 2.78725C7.76974 2.7637 7.05752 1.98574 7.05087 1.97834C6.91473 1.82477 6.58997 1.79522 6.4142 1.95562L5.38641 2.89534C5.26683 3.00467 5.11286 3.05733 4.96015 3.05164C4.51289 3.03501 4.3337 2.60977 4.57064 2.35275C5.16293 1.71005 5.30068 1.56082 5.32439 1.53518C5.31808 1.542 5.30892 1.55183 5.32817 1.53076C5.9224 0.882045 6.40805 0.668255 6.42766 0.654953C7.05183 0.339558 7.79041 0.296986 8.37527 0.747324C8.46525 0.816608 8.59396 0.799431 8.66281 0.709067C8.73172 0.618703 8.71468 0.489313 8.62475 0.420055C8.01496 -0.0494924 7.17116 -0.153186 6.31604 0.2512C5.78943 0.104632 5.41731 0.0863289 5.18078 0.195711C4.50509 0.508194 3.7384 1.32056 3.47284 1.44971C3.30607 1.53084 3.314 1.48043 1.55184 1.49541C1.49007 1.12398 1.16818 0.839914 0.781346 0.839914C0.350519 0.839969 0 1.1923 0 1.62532V2.2665C0 2.38037 0.0918201 2.47263 0.205078 2.47263C0.318363 2.47263 0.410155 2.38037 0.410155 2.2665V1.62532C0.410155 1.41964 0.576651 1.25227 0.781319 1.25227C0.985959 1.25227 1.15248 1.41961 1.15248 1.62532C1.15248 1.82546 1.15248 5.57662 1.15248 6.17053C1.15248 6.37621 0.985986 6.54358 0.781319 6.54358C0.576679 6.54358 0.410155 6.37624 0.410155 6.17053V3.30182C0.410155 3.18796 0.318363 3.09569 0.205078 3.09569C0.0918201 3.09569 0 3.18796 0 3.30182V6.17053C0 6.60355 0.350519 6.95585 0.781346 6.95585C1.16309 6.95585 1.48159 6.67915 1.54924 6.31492H2.4661C2.55896 6.71815 2.92353 7.00829 3.34813 6.99383C3.27227 7.53572 3.69873 8.0142 4.24415 7.99562C4.1683 8.53756 4.59473 9.01598 5.14018 8.99738C5.02498 9.82038 5.99571 10.3129 6.59136 9.77476L7.02889 9.37942C7.58429 9.84616 8.46167 9.49666 8.50889 8.73873C9.06239 8.89541 9.60149 8.51024 9.65227 7.94783C10.2678 8.09722 10.841 7.58714 10.7617 6.95192C11.174 6.97111 11.5454 6.7101 11.6669 6.31495H12.4508C12.5184 6.67921 12.8369 6.95588 13.2187 6.95588C13.6495 6.95588 14 6.60358 14 6.17055V5.48199C14 5.36813 13.9082 5.27587 13.7949 5.27587C13.6816 5.27587 13.5898 5.36813 13.5898 5.48199V6.17055C13.5898 6.37624 13.4234 6.54361 13.2187 6.54361C13.014 6.54361 12.8475 6.37626 12.8475 6.17055C12.8475 5.84306 12.8475 2.38116 12.8475 1.62535C12.8475 1.41967 13.014 1.2523 13.2187 1.2523C13.4233 1.2523 13.5898 1.41964 13.5898 1.62535V4.49406C13.5898 4.60789 13.6816 4.70018 13.7949 4.70018ZM2.87421 5.97823C2.89947 5.89493 2.94719 5.82188 3.00726 5.76757C3.54372 5.28302 3.58831 5.21618 3.73498 5.17696C4.19223 5.05213 4.53605 5.62081 4.16833 5.97556L3.62906 6.46281C3.28414 6.77438 2.7368 6.43728 2.87421 5.97823ZM3.86837 7.42944C3.69695 7.23777 3.71265 6.94164 3.90331 6.76933C3.92401 6.75061 3.82836 6.83704 4.4428 6.28189C4.63331 6.10965 4.92837 6.12592 5.09952 6.31698C5.24337 6.47784 5.27162 6.7303 5.09892 6.94263C5.06903 6.97586 5.0941 6.9492 4.52508 7.46454C4.33439 7.63686 4.0397 7.62105 3.86837 7.42944ZM4.76437 8.43125C4.59295 8.23959 4.60864 7.94346 4.79931 7.77114C5.36658 7.26036 5.39776 7.19878 5.57574 7.17006C5.73961 7.14345 5.8959 7.20735 5.99552 7.31879C6.166 7.50931 6.15222 7.80566 5.96063 7.97888L5.42111 8.46635C5.23044 8.63861 4.93576 8.62289 4.76437 8.43125ZM6.88501 8.95228C6.85373 8.98586 6.88763 8.9514 6.31711 9.46813C6.12644 9.6404 5.83181 9.62465 5.66039 9.43304C5.48895 9.24137 5.50467 8.94524 5.69534 8.77292C6.24637 8.27738 6.28604 8.20564 6.46028 8.17343C6.4652 8.17453 6.70528 8.11228 6.89154 8.32058C7.04825 8.49575 7.05257 8.77174 6.88501 8.95228ZM10.5243 6.45396C10.3301 6.31935 10.0999 6.56977 10.2488 6.75374C10.412 6.95533 10.3917 7.25201 10.2027 7.42914C10.0143 7.60577 9.71883 7.60577 9.53021 7.42919C9.36732 7.2765 9.11218 7.46003 9.20323 7.66428C9.29327 7.86637 9.23793 8.10673 9.06865 8.24879C8.86786 8.41724 8.5664 8.39388 8.38232 8.19553L8.33075 8.13993C8.25733 8.06078 8.13552 8.05218 8.05171 8.1202C7.96801 8.1883 7.95095 8.30986 8.01263 8.39863C8.15263 8.59981 8.12354 8.87777 7.94493 9.04514C7.76495 9.21378 7.49193 9.22112 7.30391 9.0732C7.64978 8.47819 7.19552 7.72857 6.51743 7.75294C6.59175 7.21815 6.16909 6.73494 5.62017 6.7522C5.69575 6.21167 5.26979 5.73324 4.72439 5.75045C4.76046 5.48862 4.68089 5.2325 4.50857 5.03965C4.18777 4.68037 3.63411 4.6467 3.27255 4.97356C2.71225 5.48103 2.72748 5.46292 2.68182 5.51162C2.57567 5.62452 2.50438 5.75974 2.46919 5.9027H1.56266V1.90777C3.22612 1.88243 3.34725 1.96892 3.6515 1.82089C3.998 1.6524 4.72578 0.860004 5.35223 0.570333C5.39959 0.548429 5.52217 0.516054 5.79793 0.557663C5.14781 1.02042 4.76037 1.58602 4.26966 2.07261C3.7874 2.596 4.16171 3.46847 4.98752 3.46419C5.23689 3.46292 5.47683 3.36992 5.66241 3.2003L6.67944 2.27038C6.70492 2.25524 6.73596 2.25546 6.76122 2.27065C7.21947 2.75584 8.03292 3.15723 8.93261 3.19659C11.3593 5.9243 11.1722 5.71315 11.1989 5.74707C11.2714 5.84449 11.2953 6.09349 11.2951 6.09074C11.26 6.47493 10.8281 6.66437 10.5243 6.45396Z" fill="black"/>
</svg>
