<svg width="14" height="14" viewBox="0 0 14 14" fill="none" xmlns="http://www.w3.org/2000/svg">
<path d="M13.8136 11.182L8.19064 1.44283C7.94214 1.01241 7.49703 0.755371 6.99997 0.755371C6.50291 0.755371 6.05781 1.01235 5.80931 1.44283L0.186419 11.182C-0.0621395 11.6124 -0.0621395 12.1264 0.186419 12.5569C0.434977 12.9874 0.880025 13.2443 1.37708 13.2443H12.623C13.12 13.2443 13.5651 12.9874 13.8136 12.5569C14.0621 12.1264 14.0621 11.6125 13.8136 11.182ZM7.00003 11.6599C6.50655 11.6599 6.10509 11.2584 6.10509 10.765C6.10509 10.2715 6.50655 9.87008 7.00003 9.87008C7.4935 9.87008 7.89496 10.2715 7.89496 10.765C7.89491 11.2585 7.49345 11.6599 7.00003 11.6599ZM7.90099 7.83444C7.90099 8.33121 7.4968 8.73541 7.00003 8.73541C6.50325 8.73541 6.09906 8.33121 6.09906 7.83444V3.69937C6.09906 3.58618 6.14403 3.47763 6.22406 3.39759C6.3041 3.31756 6.41265 3.27259 6.52584 3.27259H7.47427C7.58746 3.27259 7.69601 3.31756 7.77605 3.39759C7.85609 3.47763 7.90105 3.58618 7.90105 3.69937V7.83444H7.90099Z" fill="#EC5E00"/>
</svg>
