<svg width="14" height="10" viewBox="0 0 14 10" fill="none" xmlns="http://www.w3.org/2000/svg">
<path d="M7 0.333496C3.22467 0.333496 0 5.00016 0 5.00016C0 5.00016 3.22233 9.66683 7 9.66683C10.7753 9.66683 14 5.00016 14 5.00016C14 5.00016 10.7777 0.333496 7 0.333496ZM7 8.50016C4.82154 8.50016 2.58504 6.364 1.45833 5.00016C2.58212 3.63575 4.81308 1.50016 7 1.50016C9.17846 1.50016 11.415 3.63633 12.5417 5.00016C11.4179 6.36458 9.18692 8.50016 7 8.50016ZM7 2.66683C6.38116 2.66683 5.78767 2.91266 5.35008 3.35025C4.9125 3.78783 4.66667 4.38132 4.66667 5.00016C4.66667 5.619 4.9125 6.21249 5.35008 6.65008C5.78767 7.08766 6.38116 7.3335 7 7.3335C7.61884 7.3335 8.21233 7.08766 8.64992 6.65008C9.0875 6.21249 9.33333 5.619 9.33333 5.00016C9.33333 4.38132 9.0875 3.78783 8.64992 3.35025C8.21233 2.91266 7.61884 2.66683 7 2.66683ZM7 6.16683C6.28512 6.16683 5.83333 5.71504 5.83333 5.00016C5.83333 4.28529 6.28512 3.8335 7 3.8335C7.71487 3.8335 8.16667 4.28529 8.16667 5.00016C8.16667 5.71504 7.71487 6.16683 7 6.16683Z" fill="#A3A3A3"/>
</svg>
