<svg width="19" height="25" viewBox="0 0 19 25" fill="none" xmlns="http://www.w3.org/2000/svg">
<path d="M7.69092 18.8133H11.3089V22.8655H7.69092V18.8133Z" fill="#FDCC9B"/>
<path d="M7.69092 19.2905C7.69092 19.2905 9.21269 20.2597 11.3088 20.0353V18.8132H7.69092V19.2905Z" fill="#FCBC85"/>
<path d="M2.47434 14.5441C3.44932 14.5441 4.23969 13.6424 4.23969 12.53C4.23969 11.4177 3.44932 10.5159 2.47434 10.5159C1.49936 10.5159 0.708984 11.4177 0.708984 12.53C0.708984 13.6424 1.49936 14.5441 2.47434 14.5441Z" fill="#FCBC85"/>
<path d="M16.5261 14.5441C17.5011 14.5441 18.2914 13.6424 18.2914 12.53C18.2914 11.4177 17.5011 10.5159 16.5261 10.5159C15.5511 10.5159 14.7607 11.4177 14.7607 12.53C14.7607 13.6424 15.5511 14.5441 16.5261 14.5441Z" fill="#FCBC85"/>
<path d="M16.5188 8.683C16.5188 5.71638 14.348 3.54559 9.50008 3.54559C4.65191 3.54559 2.48125 5.71638 2.48125 8.683C2.48125 11.6497 1.97477 19.4645 9.50008 19.4645C17.0253 19.4645 16.5188 11.6497 16.5188 8.683Z" fill="#FDCC9B"/>
<path d="M6.08156 12.8799C6.50117 12.8799 6.84134 12.5074 6.84134 12.0478C6.84134 11.5882 6.50117 11.2156 6.08156 11.2156C5.66194 11.2156 5.32178 11.5882 5.32178 12.0478C5.32178 12.5074 5.66194 12.8799 6.08156 12.8799Z" fill="#3B2519"/>
<path d="M5.75016 11.9075C5.87564 11.9075 5.97737 11.8058 5.97737 11.6803C5.97737 11.5548 5.87564 11.4531 5.75016 11.4531C5.62467 11.4531 5.52295 11.5548 5.52295 11.6803C5.52295 11.8058 5.62467 11.9075 5.75016 11.9075Z" fill="white"/>
<path d="M4.86559 9.98547C5.22486 10.1652 5.80174 9.37498 7.12228 10.0624C7.36303 10.1877 7.50666 8.9906 6.09123 8.9906C4.86559 8.9906 4.6486 9.87703 4.86559 9.98547Z" fill="#4C2D19"/>
<path d="M13.0127 12.8799C13.4323 12.8799 13.7725 12.5074 13.7725 12.0478C13.7725 11.5882 13.4323 11.2156 13.0127 11.2156C12.5931 11.2156 12.2529 11.5882 12.2529 12.0478C12.2529 12.5074 12.5931 12.8799 13.0127 12.8799Z" fill="#3B2519"/>
<path d="M12.6813 11.9075C12.8068 11.9075 12.9085 11.8058 12.9085 11.6803C12.9085 11.5548 12.8068 11.4531 12.6813 11.4531C12.5558 11.4531 12.4541 11.5548 12.4541 11.6803C12.4541 11.8058 12.5558 11.9075 12.6813 11.9075Z" fill="white"/>
<path d="M14.1343 9.98547C13.775 10.1652 13.198 9.37498 11.8776 10.0624C11.6369 10.1877 11.4932 8.9906 12.9087 8.9906C14.1343 8.9906 14.3514 9.87703 14.1343 9.98547Z" fill="#4C2D19"/>
<path d="M9.50036 14.9747C8.74956 14.9747 8.29736 14.4138 8.29736 14.6852C8.29736 14.9564 8.51448 15.4722 9.50036 15.4722C10.4862 15.4722 10.7032 14.9566 10.7032 14.6852C10.7032 14.4138 10.2509 14.9747 9.50036 14.9747ZM9.50036 17.4696C9.24066 17.4696 9.08422 17.2757 9.08422 17.3696C9.08422 17.4635 9.15918 17.6418 9.50036 17.6418C9.84129 17.6418 9.91637 17.4635 9.91637 17.3696C9.91637 17.2757 9.75994 17.4696 9.50036 17.4696Z" fill="#FCBC85"/>
<path d="M9.50016 16.7781C8.31009 16.7781 7.59326 16.2934 7.59326 16.4164C7.59326 16.5391 7.9374 17.0225 9.50016 17.0225C11.0628 17.0225 11.4069 16.5391 11.4069 16.4164C11.4069 16.2936 10.6901 16.7781 9.50016 16.7781Z" fill="#F7945E"/>
<path d="M9.50042 20.4413V25H0.708984C0.708984 23.1549 5.33967 20.4413 9.50042 20.4413ZM9.50042 20.4413V25H18.2917C18.2916 23.1549 13.6609 20.4413 9.50042 20.4413Z" fill="#F6A4B7"/>
<path d="M7.69092 20.5991C7.69092 20.5991 8.22004 21.2554 9.49984 21.2554C10.7796 21.2554 11.3088 20.5991 11.3088 20.5991C11.3088 20.5991 9.43215 19.9159 7.69092 20.5991Z" fill="#FDCC9B"/>
<path d="M6.94925 25L6.57508 20.8393C6.57508 20.8393 5.78047 20.7296 4.82548 21.4234L4.03223 25H6.94925ZM9.49986 21.2554V25H8.25169L8.49589 23.277L7.77685 22.5171L9.49986 21.2554ZM12.0505 25L12.4246 20.8393C12.4246 20.8393 13.2193 20.7296 14.1742 21.4234L14.9674 25H12.0505ZM9.49998 21.2554V25H10.748L10.5038 23.277L11.223 22.5171L9.49998 21.2554Z" fill="#665853"/>
<path d="M11.3088 20.152L9.49983 21.2555L11.4067 23.155L12.8234 20.9504C12.8234 20.9503 11.8967 20.0385 11.3088 20.152ZM7.69078 20.152L9.49971 21.2555L7.59293 23.155L6.17627 20.9504C6.17639 20.9503 7.10295 20.0385 7.69078 20.152Z" fill="#F2788F"/>
<path d="M17.2604 3.52738C17.09 3.19174 16.6091 3.14755 16.3558 3.00281C16.1024 2.85807 16.1024 2.24303 15.6322 1.98985C15.1619 1.73655 15.0894 2.1346 14.7603 2.06222C14.4311 1.98985 14.1126 1.33863 13.6782 1.19389C13.2437 1.04902 12.8463 1.33863 12.5207 1.26614C12.1952 1.19389 11.9781 0.506356 11.4066 0.542665C10.8351 0.578851 10.8203 0.976772 10.7027 0.940586C10.5853 0.904524 10.2053 0 9.49996 0C8.79446 0 8.41451 0.904524 8.29697 0.940709C8.17943 0.976895 8.16453 0.578974 7.59307 0.542788C7.0216 0.506479 6.80461 1.19401 6.47894 1.26626C6.15326 1.33875 5.75596 1.04914 5.32148 1.19401C4.88713 1.33875 4.56859 1.98998 4.23935 2.06235C3.91023 2.13472 3.83786 1.73668 3.36744 1.98998C2.89727 2.24328 2.89727 2.85831 2.64397 3.00293C2.39055 3.14768 1.90979 3.19186 1.73933 3.52751C1.12429 4.73961 2.22476 13.2876 2.69936 13.2876C3.17384 13.2876 2.89715 8.93631 3.62075 7.27213C4.34422 5.60795 7.13016 7.05501 9.49996 7.05501C11.8696 7.05501 14.6555 5.60782 15.3792 7.27213C16.1027 8.93631 15.826 13.2876 16.3004 13.2876C16.7749 13.2875 17.8754 4.73949 17.2604 3.52738Z" fill="#4C2D19"/>
</svg>
