<svg width="194" height="45" viewBox="0 0 194 45" fill="none" xmlns="http://www.w3.org/2000/svg">
<path d="M37.4609 15.9694L37.512 15.9184L37.4609 15.9694ZM37.512 15.9184L37.4609 15.8674L31.5326 9.94901L19.5737 21.8878L19.5226 21.9388L19.5737 21.9898L31.5326 33.9286L37.512 27.9592L37.4609 27.9082L31.5326 21.9898L31.4815 21.9388L37.512 15.9184ZM1.43091 21.9388L22.4868 0.918396L28.4662 6.88778L13.4409 21.8878L13.3898 21.9388L13.4409 21.9898L28.4662 36.9898L22.5379 42.9082L22.4868 42.9592L22.4356 42.9082L1.43091 21.9388ZM35.9277 19.5408L38.3809 21.9898L35.8255 24.5408L38.1764 26.9898L43.1849 21.9898L43.236 21.9388L43.1849 21.8878L38.3809 17.0919L38.3297 17.0408L38.2786 17.0919L35.9277 19.4388L35.8766 19.4898L35.9277 19.5408Z" fill="#31B7E9"/>
<path d="M54.2451 23.3503L49.0876 7.30444H53.0696L55.016 14.0987C55.5782 16.0077 56.068 17.8232 56.4682 19.8257H56.5193C56.924 17.8997 57.4435 15.9906 57.9929 14.1582L60.0329 7.3087H63.9L58.4955 23.3546H54.2451V23.3503Z" fill="white"/>
<path d="M65.6249 7.51697C66.7449 7.3299 68.3165 7.18109 70.5311 7.18109C72.7627 7.18109 74.3726 7.61476 75.4501 8.47786C76.4807 9.27293 77.1536 10.6165 77.1536 12.1896C77.1536 13.7627 76.6426 15.102 75.6844 15.9906C74.4408 17.1556 72.5923 17.6913 70.4629 17.6913C69.9817 17.6913 69.5515 17.6573 69.2236 17.6105V23.3546H65.6206V7.51697H65.6249ZM69.2236 14.7916C69.526 14.8597 69.9008 14.8894 70.4289 14.8894C72.3582 14.8894 73.5506 13.9158 73.5506 12.2874C73.5506 10.812 72.537 9.93194 70.7057 9.93194C69.9859 9.93194 69.4876 9.99146 69.2236 10.051V14.7916Z" fill="white"/>
<path d="M79.479 23.3503V7.30444H83.7124L87.0513 13.1888C88.0138 14.8725 88.9551 16.8793 89.679 18.6947L89.7429 18.6862C89.5214 16.5646 89.4491 14.409 89.4491 11.9813V7.30444H92.7837V23.3503H88.9763L85.5309 17.1684C84.5727 15.438 83.5164 13.3801 82.737 11.5008L82.6562 11.5094C82.7669 13.6352 82.8137 15.9056 82.8137 18.5289V23.3546H79.479V23.3503Z" fill="white"/>
<path d="M114.338 17.2109C114.262 15.2678 114.189 12.9507 114.197 10.5995H114.134C113.623 12.653 112.945 14.9362 112.34 16.8282L110.372 23.0867H107.549L105.816 16.8834C105.297 14.9957 104.764 12.7125 104.363 10.5995H104.312C104.231 12.7806 104.143 15.2594 104.049 17.2576L103.75 23.3461H100.386L101.416 7.30015H106.263L107.83 12.6615C108.337 14.5025 108.835 16.5178 109.193 18.3971H109.27C109.708 16.5391 110.254 14.4217 110.799 12.636L112.507 7.2959H117.26L118.124 23.3418H114.589L114.338 17.2109Z" fill="white"/>
<path d="M127.442 23.3503L127.229 22.1938H127.153C126.39 23.1207 125.203 23.614 123.819 23.614C121.442 23.614 120.045 21.909 120.045 20.0467C120.045 17.011 122.766 15.5697 126.893 15.5782V15.4294C126.893 14.8086 126.561 13.9243 124.755 13.9285C123.567 13.9285 122.315 14.3324 121.539 14.8002L120.871 12.4829C121.684 12.0196 123.273 11.437 125.407 11.437C129.295 11.437 130.522 13.7287 130.522 16.4668V20.5314C130.522 21.6411 130.581 22.6998 130.709 23.3546H127.442V23.3503ZM126.999 17.8401C125.091 17.8316 123.614 18.2908 123.614 19.6768C123.614 20.6165 124.227 21.0714 125.053 21.0714C125.94 21.0714 126.693 20.4804 126.931 19.7321C126.987 19.5451 126.999 19.3197 126.999 19.1114V17.8401Z" fill="white"/>
<path d="M133.392 15.4209C133.392 13.9711 133.345 12.7423 133.298 11.6964H136.446L136.611 13.312H136.688C137.161 12.5595 138.345 11.437 140.295 11.437C142.681 11.437 144.474 13.0229 144.474 16.4541V23.3503H140.841V16.892C140.841 15.3911 140.304 14.3622 138.997 14.3622C138 14.3622 137.408 15.0595 137.156 15.7313C137.063 15.9566 137.029 16.301 137.029 16.6283V23.3503H133.396V15.4209H133.392Z" fill="white"/>
<path d="M154.009 23.3503L153.797 22.1938H153.72C152.958 23.1207 151.769 23.614 150.385 23.614C148.009 23.614 146.612 21.909 146.612 20.0467C146.612 17.011 149.333 15.5697 153.46 15.5782V15.4294C153.46 14.8086 153.127 13.9243 151.322 13.9285C150.134 13.9285 148.881 14.3324 148.107 14.8002L147.438 12.4829C148.252 12.0196 149.84 11.437 151.973 11.437C155.862 11.437 157.089 13.7287 157.089 16.4668V20.5314C157.089 21.6411 157.148 22.6998 157.276 23.3546H154.009V23.3503ZM153.571 17.8401C151.663 17.8316 150.185 18.2908 150.185 19.6768C150.185 20.6165 150.798 21.0714 151.625 21.0714C152.51 21.0714 153.264 20.4804 153.502 19.7321C153.558 19.5451 153.571 19.3197 153.571 19.1114V17.8401Z" fill="white"/>
<path d="M171.104 11.6964C171.049 12.449 171.006 13.4354 171.006 15.1701V21.6539C171.006 23.8903 170.555 25.7271 169.231 26.8921C167.953 27.9975 166.216 28.3248 164.499 28.3248C162.957 28.3248 161.347 28.0102 160.304 27.432L161.024 24.6854C161.756 25.1063 163.038 25.5569 164.405 25.5569C166.122 25.5569 167.433 24.6429 167.433 22.4873V21.739H167.387C166.701 22.6956 165.581 23.2441 164.235 23.2441C161.356 23.2441 159.299 20.9056 159.299 17.5723C159.299 13.8138 161.722 11.4329 164.588 11.4329C166.194 11.4329 167.195 12.1301 167.787 13.0867H167.834L167.957 11.6921H171.104V11.6964ZM167.378 16.4456C167.378 16.2117 167.356 15.9737 167.305 15.7781C167.055 14.8214 166.365 14.1752 165.355 14.1752C164.034 14.1752 162.983 15.3784 162.983 17.4915C162.983 19.2262 163.843 20.5867 165.351 20.5867C166.288 20.5867 167.037 19.9702 167.276 19.1242C167.356 18.8478 167.378 18.4651 167.378 18.1633V16.4456Z" fill="white"/>
<path d="M176.709 18.6905C176.816 20.1956 178.306 20.9099 179.997 20.9099C181.223 20.9099 182.228 20.7441 183.208 20.4166L183.698 22.8656C182.489 23.3589 181.032 23.6012 179.468 23.6012C175.513 23.6012 173.243 21.301 173.243 17.6701C173.243 14.7109 175.091 11.4329 179.124 11.4329C182.906 11.4329 184.337 14.3665 184.337 17.2534C184.337 17.8827 184.268 18.4184 184.209 18.6862H176.709V18.6905ZM180.968 16.2075C180.972 15.3359 180.585 13.8436 178.932 13.8436C177.399 13.8436 176.777 15.2424 176.679 16.2075H180.968Z" fill="white"/>
<path d="M186.505 15.54C186.505 13.8308 186.475 12.7041 186.411 11.6964H189.528L189.66 13.852H189.75C190.35 12.1471 191.769 11.4329 192.901 11.4329C193.237 11.4329 193.408 11.4413 193.676 11.5008V14.9064C193.395 14.8469 193.102 14.8044 192.697 14.8044C191.364 14.8044 190.452 15.5102 190.21 16.6454C190.163 16.875 190.141 17.1599 190.141 17.4533V23.3503H186.509V15.54H186.505Z" fill="white"/>
<path d="M61.2404 34.4001C61.2404 35.2405 61.0542 35.9082 60.6815 36.4031C60.3089 36.8947 59.8081 37.1405 59.1792 37.1405C58.4273 37.1405 57.8583 36.8614 57.4724 36.3034L57.4474 37.0408H56.8884V29.3878H57.4824V32.432C57.8617 31.8441 58.424 31.5501 59.1693 31.5501C59.8081 31.5501 60.3121 31.7943 60.6815 32.2826C61.0542 32.7676 61.2404 33.4435 61.2404 34.3104V34.4001ZM60.6416 34.2955C60.6416 33.5847 60.5035 33.0365 60.2273 32.6512C59.9512 32.2627 59.5619 32.0684 59.0595 32.0684C58.6768 32.0684 58.3524 32.163 58.0863 32.3523C57.8201 32.5384 57.6188 32.8123 57.4824 33.1744V35.6059C57.7819 36.2835 58.3108 36.6222 59.0694 36.6222C59.5619 36.6222 59.9462 36.428 60.2224 36.0394C60.5019 35.6507 60.6416 35.0694 60.6416 34.2955ZM65.774 32.158C65.6476 32.1348 65.5128 32.1232 65.3697 32.1232C64.9971 32.1232 64.681 32.2278 64.4215 32.437C64.1653 32.643 63.9823 32.9436 63.8724 33.3389V37.0408H63.2786V31.6498H63.8625L63.8724 32.5067C64.1886 31.869 64.696 31.5501 65.3947 31.5501C65.5611 31.5501 65.6924 31.5717 65.7889 31.6149L65.774 32.158ZM67.0085 34.2656C67.0085 33.7475 67.1084 33.2807 67.308 32.8655C67.5109 32.4503 67.7955 32.1281 68.1614 31.8989C68.5308 31.6664 68.9483 31.5501 69.4141 31.5501C70.1329 31.5501 70.7151 31.8026 71.1609 32.3075C71.6068 32.8091 71.8297 33.475 71.8297 34.3054V34.43C71.8297 34.9515 71.7282 35.4215 71.5253 35.84C71.3256 36.2552 71.0429 36.5758 70.6768 36.8016C70.3108 37.0276 69.8933 37.1405 69.4241 37.1405C68.7087 37.1405 68.1265 36.8897 67.6773 36.3882C67.2314 35.8833 67.0085 35.2156 67.0085 34.3852V34.2656ZM67.6075 34.43C67.6075 35.0744 67.7738 35.6042 68.1065 36.0194C68.4426 36.4313 68.8818 36.6372 69.4241 36.6372C69.9631 36.6372 70.399 36.4313 70.7317 36.0194C71.0678 35.6042 71.2358 35.0578 71.2358 34.3802V34.2656C71.2358 33.8537 71.1593 33.4767 71.0062 33.1346C70.8532 32.7925 70.6385 32.5284 70.3624 32.3423C70.0863 32.1531 69.7701 32.0584 69.4141 32.0584C68.8818 32.0584 68.4476 32.2677 68.1115 32.6861C67.7754 33.1013 67.6075 33.6461 67.6075 34.3204V34.43ZM75.0756 35.8002L75.1654 36.2636L75.2852 35.7753L76.5828 31.6498H77.0919L78.3745 35.7404L78.5143 36.3084L78.6291 35.7852L79.737 31.6498H80.3559L78.7837 37.0408H78.2747L76.8873 32.7658L76.8224 32.4719L76.7575 32.7708L75.395 37.0408H74.8859L73.3187 31.6498H73.9326L75.0756 35.8002ZM85.4384 35.6706C85.4384 35.375 85.3186 35.1376 85.079 34.9582C84.8428 34.7788 84.4852 34.6393 84.006 34.5396C83.5269 34.4366 83.1543 34.3204 82.8881 34.1908C82.6252 34.058 82.4289 33.8968 82.2992 33.7076C82.1727 33.5183 82.1094 33.289 82.1094 33.02C82.1094 32.5948 82.2875 32.2444 82.6435 31.9687C82.9995 31.6897 83.4554 31.5501 84.011 31.5501C84.6133 31.5501 85.0957 31.6996 85.4583 31.9986C85.8244 32.2942 86.0073 32.6811 86.0073 33.1595H85.4085C85.4085 32.8439 85.2754 32.5815 85.0092 32.3722C84.7463 32.163 84.4136 32.0584 84.011 32.0584C83.6184 32.0584 83.3023 32.1464 83.0628 32.3225C82.8265 32.4951 82.7084 32.721 82.7084 33C82.7084 33.2691 82.8065 33.4784 83.0029 33.6279C83.2025 33.774 83.5635 33.9085 84.0858 34.0314C84.6116 34.1543 85.0042 34.2855 85.2637 34.425C85.5265 34.5645 85.7212 34.7322 85.8477 34.9283C85.9741 35.1242 86.0373 35.3617 86.0373 35.6407C86.0373 36.0958 85.8526 36.4595 85.4833 36.7319C85.1173 37.0043 84.6382 37.1405 84.046 37.1405C83.4171 37.1405 82.9064 36.9893 82.5137 36.687C82.1245 36.3814 81.9299 35.9961 81.9299 35.5311H82.5287C82.552 35.8799 82.6984 36.1522 82.9679 36.3483C83.2407 36.5409 83.6001 36.6372 84.046 36.6372C84.4619 36.6372 84.7979 36.5459 85.0541 36.3632C85.3102 36.1805 85.4384 35.9497 85.4384 35.6706ZM90.1915 37.1405C89.7323 37.1405 89.3164 37.0276 88.9438 36.8016C88.5744 36.5758 88.2867 36.2619 88.0803 35.86C87.874 35.4547 87.7709 35.0013 87.7709 34.4998V34.2855C87.7709 33.7673 87.8708 33.3006 88.0704 32.8854C88.2733 32.4702 88.5545 32.1447 88.9139 31.9089C89.2731 31.6697 89.6625 31.5501 90.0816 31.5501C90.7371 31.5501 91.2562 31.7744 91.6389 32.2228C92.0248 32.6679 92.2178 33.2773 92.2178 34.0513V34.3852H88.3649V34.4998C88.3649 35.1109 88.5396 35.6208 88.8889 36.0294C89.2416 36.4346 89.684 36.6372 90.2165 36.6372C90.5359 36.6372 90.817 36.5791 91.0599 36.4629C91.3062 36.3466 91.5291 36.1606 91.7287 35.9048L92.103 36.1888C91.6638 36.8233 91.0266 37.1405 90.1915 37.1405ZM90.0816 32.0584C89.6325 32.0584 89.2532 32.2228 88.9438 32.5516C88.6377 32.8805 88.4513 33.3222 88.3848 33.8769H91.6238V33.8121C91.6073 33.294 91.4592 32.8721 91.1797 32.5466C90.9002 32.2211 90.5342 32.0584 90.0816 32.0584ZM98.2253 30.2697V31.6498H99.3434V32.1381H98.2253V35.7304C98.2253 36.0294 98.2786 36.2519 98.3851 36.3981C98.4949 36.5442 98.6762 36.6174 98.9291 36.6174C99.0289 36.6174 99.1902 36.6007 99.4132 36.5675L99.4382 37.0557C99.2818 37.1122 99.0688 37.1405 98.7994 37.1405C98.3901 37.1405 98.0923 37.0226 97.9059 36.7867C97.7196 36.5476 97.6265 36.1971 97.6265 35.7354V32.1381H96.6333V31.6498H97.6265V30.2697H98.2253ZM101.89 32.5616C102.087 32.2394 102.338 31.9903 102.644 31.8142C102.95 31.6382 103.285 31.5501 103.647 31.5501C104.226 31.5501 104.657 31.7129 104.94 32.0385C105.223 32.364 105.366 32.8522 105.369 33.5033V37.0408H104.775V33.4983C104.772 33.0166 104.669 32.658 104.466 32.422C104.266 32.1862 103.945 32.0684 103.503 32.0684C103.133 32.0684 102.806 32.1846 102.52 32.4171C102.236 32.6463 102.027 32.9568 101.89 33.3488V37.0408H101.297V29.3878H101.89V32.5616ZM109.713 37.1405C109.253 37.1405 108.838 37.0276 108.465 36.8016C108.096 36.5758 107.808 36.2619 107.602 35.86C107.395 35.4547 107.293 35.0013 107.293 34.4998V34.2855C107.293 33.7673 107.392 33.3006 107.591 32.8854C107.795 32.4702 108.076 32.1447 108.436 31.9089C108.794 31.6697 109.184 31.5501 109.603 31.5501C110.259 31.5501 110.777 31.7744 111.161 32.2228C111.546 32.6679 111.739 33.2773 111.739 34.0513V34.3852H107.887V34.4998C107.887 35.1109 108.06 35.6208 108.41 36.0294C108.763 36.4346 109.205 36.6372 109.738 36.6372C110.058 36.6372 110.339 36.5791 110.581 36.4629C110.827 36.3466 111.05 36.1606 111.251 35.9048L111.625 36.1888C111.185 36.8233 110.548 37.1405 109.713 37.1405ZM109.603 32.0584C109.154 32.0584 108.775 32.2228 108.465 32.5516C108.16 32.8805 107.973 33.3222 107.906 33.8769H111.145V33.8121C111.129 33.294 110.981 32.8721 110.701 32.5466C110.422 32.2211 110.056 32.0584 109.603 32.0584ZM118.111 35.8002L118.201 36.2636L118.321 35.7753L119.619 31.6498H120.128L121.41 35.7404L121.55 36.3084L121.665 35.7852L122.773 31.6498H123.391L121.819 37.0408H121.31L119.923 32.7658L119.858 32.4719L119.793 32.7708L118.431 37.0408H117.922L116.354 31.6498H116.968L118.111 35.8002ZM124.91 34.2656C124.91 33.7475 125.01 33.2807 125.21 32.8655C125.413 32.4503 125.697 32.1281 126.063 31.8989C126.433 31.6664 126.85 31.5501 127.316 31.5501C128.035 31.5501 128.618 31.8026 129.063 32.3075C129.509 32.8091 129.732 33.475 129.732 34.3054V34.43C129.732 34.9515 129.63 35.4215 129.427 35.84C129.228 36.2552 128.945 36.5758 128.579 36.8016C128.213 37.0276 127.796 37.1405 127.327 37.1405C126.611 37.1405 126.028 36.8897 125.58 36.3882C125.133 35.8833 124.91 35.2156 124.91 34.3852V34.2656ZM125.509 34.43C125.509 35.0744 125.676 35.6042 126.008 36.0194C126.344 36.4313 126.784 36.6372 127.327 36.6372C127.865 36.6372 128.301 36.4313 128.634 36.0194C128.97 35.6042 129.138 35.0578 129.138 34.3802V34.2656C129.138 33.8537 129.061 33.4767 128.908 33.1346C128.756 32.7925 128.541 32.5284 128.265 32.3423C127.988 32.1531 127.672 32.0584 127.316 32.0584C126.784 32.0584 126.349 32.2677 126.013 32.6861C125.678 33.1013 125.509 33.6461 125.509 34.3204V34.43ZM134.18 32.158C134.054 32.1348 133.919 32.1232 133.776 32.1232C133.403 32.1232 133.087 32.2278 132.828 32.437C132.571 32.643 132.388 32.9436 132.279 33.3389V37.0408H131.685V31.6498H132.269L132.279 32.5067C132.595 31.869 133.103 31.5501 133.801 31.5501C133.967 31.5501 134.099 31.5717 134.195 31.6149L134.18 32.158ZM136.512 37.0408H135.913V29.3878H136.512V37.0408ZM138.616 34.2955C138.616 33.4585 138.802 32.7925 139.175 32.2976C139.551 31.7993 140.06 31.5501 140.702 31.5501C141.431 31.5501 141.986 31.8375 142.369 32.4121V29.3878H142.963V37.0408H142.404L142.378 36.3234C141.996 36.8681 141.434 37.1405 140.692 37.1405C140.069 37.1405 139.568 36.8913 139.184 36.3931C138.805 35.8915 138.616 35.2156 138.616 34.3652V34.2955ZM139.22 34.4001C139.22 35.0877 139.358 35.6308 139.634 36.0294C139.91 36.4247 140.299 36.6222 140.802 36.6222C141.537 36.6222 142.06 36.2985 142.369 35.6507V33.1196C142.06 32.4188 141.54 32.0684 140.812 32.0684C140.31 32.0684 139.918 32.2659 139.639 32.6612C139.359 33.0532 139.22 33.6329 139.22 34.4001ZM151.686 35.6706C151.686 35.375 151.565 35.1376 151.326 34.9582C151.09 34.7788 150.732 34.6393 150.253 34.5396C149.774 34.4366 149.401 34.3204 149.135 34.1908C148.872 34.058 148.676 33.8968 148.546 33.7076C148.42 33.5183 148.357 33.289 148.357 33.02C148.357 32.5948 148.535 32.2444 148.89 31.9687C149.246 31.6897 149.702 31.5501 150.258 31.5501C150.86 31.5501 151.342 31.6996 151.705 31.9986C152.071 32.2942 152.254 32.6811 152.254 33.1595H151.655C151.655 32.8439 151.522 32.5815 151.257 32.3722C150.993 32.163 150.661 32.0584 150.258 32.0584C149.866 32.0584 149.55 32.1464 149.309 32.3225C149.073 32.4951 148.956 32.721 148.956 33C148.956 33.2691 149.054 33.4784 149.25 33.6279C149.45 33.774 149.81 33.9085 150.333 34.0314C150.859 34.1543 151.252 34.2855 151.511 34.425C151.774 34.5645 151.968 34.7322 152.095 34.9283C152.222 35.1242 152.285 35.3617 152.285 35.6407C152.285 36.0958 152.1 36.4595 151.731 36.7319C151.364 37.0043 150.886 37.1405 150.293 37.1405C149.664 37.1405 149.153 36.9893 148.761 36.687C148.371 36.3814 148.177 35.9961 148.177 35.5311H148.776C148.799 35.8799 148.946 36.1522 149.215 36.3483C149.487 36.5409 149.847 36.6372 150.293 36.6372C150.709 36.6372 151.045 36.5459 151.302 36.3632C151.557 36.1805 151.686 35.9497 151.686 35.6706ZM156.439 37.1405C155.98 37.1405 155.564 37.0276 155.191 36.8016C154.822 36.5758 154.534 36.2619 154.327 35.86C154.122 35.4547 154.018 35.0013 154.018 34.4998V34.2855C154.018 33.7673 154.118 33.3006 154.318 32.8854C154.52 32.4702 154.801 32.1447 155.161 31.9089C155.52 31.6697 155.909 31.5501 156.328 31.5501C156.985 31.5501 157.503 31.7744 157.886 32.2228C158.272 32.6679 158.465 33.2773 158.465 34.0513V34.3852H154.612V34.4998C154.612 35.1109 154.787 35.6208 155.136 36.0294C155.488 36.4346 155.931 36.6372 156.463 36.6372C156.783 36.6372 157.064 36.5791 157.307 36.4629C157.553 36.3466 157.776 36.1606 157.976 35.9048L158.35 36.1888C157.911 36.8233 157.274 37.1405 156.439 37.1405ZM156.328 32.0584C155.88 32.0584 155.501 32.2228 155.191 32.5516C154.885 32.8805 154.698 33.3222 154.632 33.8769H157.871V33.8121C157.854 33.294 157.706 32.8721 157.427 32.5466C157.147 32.2211 156.781 32.0584 156.328 32.0584ZM162.34 36.6372C162.756 36.6372 163.103 36.521 163.383 36.2885C163.665 36.0527 163.819 35.7487 163.842 35.3766H164.416C164.399 35.7055 164.296 36.0061 164.107 36.2785C163.917 36.5476 163.664 36.7585 163.347 36.9112C163.035 37.0641 162.699 37.1405 162.34 37.1405C161.631 37.1405 161.069 36.8947 160.653 36.4031C160.24 35.9114 160.034 35.2504 160.034 34.42V34.2407C160.034 33.7092 160.127 33.2392 160.314 32.8306C160.5 32.422 160.766 32.1065 161.112 31.884C161.462 31.6614 161.868 31.5501 162.334 31.5501C162.927 31.5501 163.414 31.7262 163.797 32.0783C164.182 32.4304 164.389 32.8938 164.416 33.4684H163.842C163.816 33.0465 163.662 32.7061 163.383 32.4469C163.106 32.1879 162.758 32.0584 162.334 32.0584C161.796 32.0584 161.377 32.2527 161.077 32.6413C160.781 33.0299 160.633 33.5747 160.633 34.2755V34.4499C160.633 35.1376 160.781 35.674 161.077 36.0593C161.377 36.4446 161.797 36.6372 162.34 36.6372ZM169.803 36.3583C169.443 36.8797 168.869 37.1405 168.081 37.1405C167.505 37.1405 167.068 36.9744 166.768 36.6422C166.469 36.3067 166.316 35.8118 166.31 35.1575V31.6498H166.903V35.0828C166.903 36.1091 167.319 36.6222 168.15 36.6222C169.016 36.6222 169.563 36.2652 169.793 35.551V31.6498H170.392V37.0408H169.812L169.803 36.3583ZM175.16 32.158C175.033 32.1348 174.898 32.1232 174.755 32.1232C174.382 32.1232 174.066 32.2278 173.807 32.437C173.551 32.643 173.368 32.9436 173.258 33.3389V37.0408H172.664V31.6498H173.248L173.258 32.5067C173.574 31.869 174.082 31.5501 174.78 31.5501C174.947 31.5501 175.078 31.5717 175.174 31.6149L175.16 32.158ZM178.815 37.1405C178.355 37.1405 177.939 37.0276 177.567 36.8016C177.198 36.5758 176.91 36.2619 176.704 35.86C176.497 35.4547 176.394 35.0013 176.394 34.4998V34.2855C176.394 33.7673 176.494 33.3006 176.693 32.8854C176.897 32.4702 177.178 32.1447 177.538 31.9089C177.896 31.6697 178.286 31.5501 178.705 31.5501C179.36 31.5501 179.879 31.7744 180.263 32.2228C180.648 32.6679 180.841 33.2773 180.841 34.0513V34.3852H176.988V34.4998C176.988 35.1109 177.162 35.6208 177.512 36.0294C177.865 36.4346 178.307 36.6372 178.84 36.6372C179.159 36.6372 179.441 36.5791 179.683 36.4629C179.929 36.3466 180.152 36.1606 180.352 35.9048L180.727 36.1888C180.287 36.8233 179.65 37.1405 178.815 37.1405ZM178.705 32.0584C178.256 32.0584 177.877 32.2228 177.567 32.5516C177.261 32.8805 177.075 33.3222 177.008 33.8769H180.247V33.8121C180.231 33.294 180.083 32.8721 179.803 32.5466C179.524 32.2211 179.158 32.0584 178.705 32.0584ZM183.388 37.0408H182.789V29.3878H183.388V37.0408ZM187.443 36.1839L189.02 31.6498H189.663L187.358 37.9576L187.238 38.2366C186.942 38.891 186.484 39.2182 185.866 39.2182C185.723 39.2182 185.57 39.1949 185.406 39.1484L185.402 38.6551L185.711 38.685C186.004 38.685 186.24 38.6119 186.42 38.4658C186.603 38.323 186.757 38.0755 186.884 37.7234L187.148 36.996L185.112 31.6498H185.766L187.443 36.1839Z" fill="#80C1DA"/>
</svg>
