<svg width="156" height="36" viewBox="0 0 156 36" fill="none" xmlns="http://www.w3.org/2000/svg">
<path d="M1.11033 17.5919L0.124023 18.5714L17.0555 35.3878L18.0418 34.4082L1.11033 17.5919Z" fill="#A2C8D7"/>
<path d="M24.3287 28.1633L25.315 27.1837L15.6574 17.5919L14.6711 18.5714L24.3287 28.1633Z" fill="#A2C8D7"/>
<path d="M28.3972 20.0408L28.7671 19.6735L30.6575 21.6326L30.2876 22L28.3972 20.0408Z" fill="#A2C8D7"/>
<path d="M28.3972 16.0408L28.8082 15.6326L30.7808 17.5918L30.3698 18L28.3972 16.0408Z" fill="#A2C8D7"/>
<path d="M1.11033 17.5919L0.124023 18.5714L17.0555 35.3878L18.0418 34.4082L1.11033 17.5919Z" stroke="#A2C8D7"/>
<path d="M24.3287 28.1633L25.315 27.1837L15.6574 17.5919L14.6711 18.5714L24.3287 28.1633Z" stroke="#A2C8D7"/>
<path d="M28.3972 20.0408L28.7671 19.6735L30.6575 21.6326L30.2876 22L28.3972 20.0408Z" stroke="#A2C8D7"/>
<path d="M28.3972 16.0408L28.8082 15.6326L30.7808 17.5918L30.3698 18L28.3972 16.0408Z" stroke="#A2C8D7"/>
<path d="M18.0821 0.73468L1.15063 17.551L18.041 34.3265L18.0821 34.3673L18.1232 34.3265L22.8904 29.5918L10.8082 17.5918L10.7671 17.551L10.8082 17.5102L22.8904 5.51019L18.0821 0.73468Z" fill="#31B7E9"/>
<path d="M15.7396 17.5102L25.356 7.95917L30.1231 12.6939L30.1642 12.7347L30.1231 12.7755L25.3149 17.551L25.356 17.5918L30.1231 22.3265L30.1642 22.3673L25.356 27.1428L15.7396 17.5918L15.6985 17.551L15.7396 17.5102Z" fill="#31B7E9"/>
<path d="M30.7807 13.6735L28.8903 15.5511L28.8492 15.5919L28.8903 15.6327L30.8629 17.5919L28.8081 19.6327L30.6985 21.5919L34.7259 17.5919L34.767 17.5511L34.7259 17.5102L30.8629 13.6735L30.8218 13.6327L30.7807 13.6735Z" fill="#31B7E9"/>
<path d="M30.1232 12.7755L30.1643 12.7347L30.1232 12.7755ZM30.1643 12.7347L30.1232 12.6939L25.3561 7.95917L15.7397 17.5102L15.6986 17.551L15.7397 17.5918L25.3561 27.1428L30.1643 22.3673L30.1232 22.3265L25.3561 17.5918L25.315 17.551L30.1643 12.7347ZM1.15063 17.551L18.0821 0.73468L22.8904 5.51019L10.8082 17.5102L10.7671 17.551L10.8082 17.5918L22.8904 29.5918L18.1232 34.3265L18.0821 34.3673L18.041 34.3265L1.15063 17.551ZM28.8904 15.6326L30.863 17.5918L28.8082 19.6326L30.6986 21.5918L34.726 17.5918L34.7671 17.551L34.726 17.5102L30.863 13.6735L30.8219 13.6326L30.7808 13.6735L28.8904 15.551L28.8493 15.5918L28.8904 15.6326Z" stroke="#31B7E9"/>
<path d="M43.6199 18.6803L39.4727 5.84357H42.6747L44.2398 11.279C44.6918 12.8061 45.0857 14.2586 45.4076 15.8606H45.4487C45.774 14.3198 46.1918 12.7925 46.6336 11.3266L48.274 5.84697H51.3836L47.0377 18.6837H43.6199V18.6803Z" fill="#34383C"/>
<path d="M52.7705 6.01358C53.6712 5.86392 54.9349 5.74487 56.7157 5.74487C58.5102 5.74487 59.8048 6.09181 60.6712 6.78229C61.5 7.41834 62.041 8.49319 62.041 9.75164C62.041 11.0102 61.6302 12.0816 60.8596 12.7925C59.8596 13.7245 58.3732 14.153 56.6609 14.153C56.274 14.153 55.928 14.1258 55.6643 14.0884V18.6836H52.7671V6.01358H52.7705ZM55.6643 11.8333C55.9075 11.8877 56.2089 11.9116 56.6336 11.9116C58.1849 11.9116 59.1438 11.1326 59.1438 9.82993C59.1438 8.6496 58.3288 7.94555 56.8561 7.94555C56.2773 7.94555 55.8767 7.99317 55.6643 8.04079V11.8333Z" fill="#34383C"/>
<path d="M63.9109 18.6803V5.84357H67.315L70 10.551C70.7739 11.898 71.5308 13.5035 72.113 14.9558L72.1643 14.949C71.9862 13.2517 71.928 11.5272 71.928 9.58509V5.84357H74.6096V18.6803H71.5479L68.7774 13.7347C68.0068 12.3504 67.1575 10.7041 66.5308 9.20068L66.4657 9.20754C66.5548 10.9082 66.5924 12.7245 66.5924 14.8231V18.6837H63.9109V18.6803Z" fill="#34383C"/>
<path d="M91.9422 13.7687C91.8806 12.2143 91.8222 10.3606 91.8288 8.47959H91.7778C91.3669 10.1224 90.822 11.949 90.3354 13.4626L88.7532 18.4694H86.4831L85.0891 13.5068C84.6716 11.9966 84.2433 10.17 83.9211 8.47959H83.88C83.8151 10.2245 83.7436 12.2075 83.668 13.8061L83.428 18.6769H80.7227L81.5515 5.84014H85.4491L86.7091 10.1292C87.1168 11.602 87.517 13.2143 87.8047 14.7177H87.8663C88.2189 13.2313 88.6578 11.5374 89.0959 10.1088L90.4693 5.83673H94.2913L94.9866 18.6735H92.1436L91.9422 13.7687Z" fill="#34383C"/>
<path d="M102.479 18.6802L102.308 17.7551H102.247C101.633 18.4965 100.678 18.8912 99.5655 18.8912C97.6546 18.8912 96.531 17.5272 96.531 16.0374C96.531 13.6088 98.719 12.4557 102.038 12.4626V12.3435C102.038 11.8469 101.771 11.1394 100.318 11.1428C99.3633 11.1428 98.3565 11.4659 97.7326 11.8401L97.1951 9.98633C97.8494 9.61564 99.1266 9.1496 100.843 9.1496C103.969 9.1496 104.956 10.983 104.956 13.1734V16.4251C104.956 17.3129 105.003 18.1598 105.106 18.6836H102.479V18.6802ZM102.123 14.272C100.589 14.2653 99.4011 14.6326 99.4011 15.7414C99.4011 16.4932 99.8943 16.8571 100.558 16.8571C101.271 16.8571 101.877 16.3843 102.068 15.7857C102.113 15.636 102.123 15.4557 102.123 15.2891V14.272Z" fill="#34383C"/>
<path d="M107.264 12.3367C107.264 11.1769 107.226 10.1938 107.188 9.35711H109.719L109.853 10.6496H109.914C110.295 10.0476 111.247 9.1496 112.815 9.1496C114.733 9.1496 116.175 10.4183 116.175 13.1632V18.6802H113.254V13.5136C113.254 12.3129 112.822 11.4898 111.771 11.4898C110.97 11.4898 110.493 12.0476 110.291 12.585C110.216 12.7653 110.189 13.0408 110.189 13.3027V18.6802H107.267V12.3367H107.264Z" fill="#34383C"/>
<path d="M123.843 18.6802L123.672 17.7551H123.61C122.997 18.4965 122.041 18.8912 120.928 18.8912C119.017 18.8912 117.894 17.5272 117.894 16.0374C117.894 13.6088 120.082 12.4557 123.4 12.4626V12.3435C123.4 11.8469 123.133 11.1394 121.682 11.1428C120.726 11.1428 119.719 11.4659 119.096 11.8401L118.558 9.98633C119.213 9.61564 120.49 9.1496 122.205 9.1496C125.332 9.1496 126.319 10.983 126.319 13.1734V16.4251C126.319 17.3129 126.367 18.1598 126.469 18.6836H123.843V18.6802ZM123.49 14.272C121.955 14.2653 120.767 14.6326 120.767 15.7414C120.767 16.4932 121.26 16.8571 121.925 16.8571C122.637 16.8571 123.243 16.3843 123.435 15.7857C123.479 15.636 123.49 15.4557 123.49 15.2891V14.272Z" fill="#34383C"/>
<path d="M137.589 9.35716C137.545 9.9592 137.51 10.7483 137.51 12.1361V17.3231C137.51 19.1123 137.147 20.5816 136.083 21.5136C135.055 22.398 133.658 22.6598 132.278 22.6598C131.038 22.6598 129.743 22.4082 128.904 21.9456L129.483 19.7483C130.072 20.0851 131.103 20.4456 132.202 20.4456C133.582 20.4456 134.637 19.7143 134.637 17.9898V17.3912H134.6C134.048 18.1565 133.147 18.5953 132.065 18.5953C129.75 18.5953 128.096 16.7245 128.096 14.0578C128.096 11.051 130.045 9.1463 132.349 9.1463C133.641 9.1463 134.445 9.7041 134.921 10.4694H134.959L135.058 9.35373H137.589V9.35716ZM134.592 13.1565C134.592 12.9694 134.575 12.779 134.534 12.6225C134.333 11.8572 133.778 11.3402 132.966 11.3402C131.904 11.3402 131.058 12.3027 131.058 13.9932C131.058 15.381 131.75 16.4694 132.963 16.4694C133.716 16.4694 134.319 15.9762 134.51 15.2994C134.575 15.0782 134.592 14.7721 134.592 14.5306V13.1565Z" fill="#34383C"/>
<path d="M142.095 14.9524C142.182 16.1565 143.38 16.7279 144.74 16.7279C145.726 16.7279 146.534 16.5953 147.322 16.3333L147.716 18.2925C146.743 18.6871 145.572 18.881 144.315 18.881C141.134 18.881 139.308 17.0408 139.308 14.1361C139.308 11.7687 140.794 9.1463 144.038 9.1463C147.079 9.1463 148.229 11.4932 148.229 13.8027C148.229 14.3061 148.174 14.7347 148.127 14.949H142.095V14.9524ZM145.52 12.966C145.524 12.2687 145.212 11.0749 143.883 11.0749C142.65 11.0749 142.151 12.1939 142.072 12.966H145.52Z" fill="#34383C"/>
<path d="M149.973 12.432C149.973 11.0647 149.949 10.1633 149.897 9.35716H152.404L152.51 11.0816H152.582C153.065 9.71773 154.206 9.1463 155.116 9.1463C155.387 9.1463 155.524 9.15308 155.739 9.20067V11.9252C155.513 11.8776 155.277 11.8435 154.952 11.8435C153.88 11.8435 153.147 12.4082 152.952 13.3163C152.914 13.5 152.897 13.7279 152.897 13.9626V18.6803H149.976V12.432H149.973Z" fill="#34383C"/>
<path d="M45.7706 25.4898L46.4624 27.8095C46.6028 28.2891 46.7227 28.6973 46.8117 29.0884H46.8323C46.9316 28.7108 47.0754 28.2822 47.2433 27.8129L48.0652 25.4863H48.4521L49.2364 27.7891C49.4042 28.2857 49.5343 28.704 49.6371 29.0884H49.6576C49.7432 28.704 49.8699 28.2959 50.0275 27.8061L50.7638 25.4898H51.1782L49.8048 29.5714H49.4522L48.6782 27.2993C48.5035 26.8061 48.3631 26.3707 48.2535 25.9081H48.2364C48.1131 26.3877 47.959 26.8401 47.7878 27.3129L46.9692 29.5714H46.6096L45.3459 25.4898H45.7706Z" fill="#8C8C8C"/>
<path d="M52.6746 23.5341H53.0821V26.2177H53.0992C53.2157 25.9898 53.4143 25.7721 53.6609 25.6292C53.8972 25.4864 54.178 25.3945 54.4897 25.3945C54.8801 25.3945 55.9177 25.5884 55.9177 27.1088V29.5714H55.5102V27.1565C55.5102 26.4218 55.2191 25.7517 54.3767 25.7517C53.7944 25.7517 53.3115 26.1667 53.1369 26.6769C53.0924 26.7994 53.0821 26.9116 53.0821 27.0782V29.5749H52.6746V23.5341Z" fill="#8C8C8C"/>
<path d="M57.9693 27.4932C57.9693 28.7959 58.685 29.3129 59.5309 29.3129C60.1302 29.3129 60.4419 29.1939 60.6747 29.0816L60.7809 29.4014C60.6233 29.4864 60.2021 29.6633 59.4829 29.6633C58.3014 29.6633 57.5686 28.8095 57.5686 27.6157C57.5686 26.2517 58.3528 25.4014 59.4145 25.4014C60.7604 25.4014 61.0138 26.6565 61.0138 27.2449C61.0138 27.3606 61.0138 27.4251 61.0001 27.4966H57.9693V27.4932ZM60.5857 27.17C60.596 26.602 60.3562 25.7347 59.3563 25.7347C58.4522 25.7347 58.0618 26.5442 57.9864 27.17H60.5857Z" fill="#8C8C8C"/>
<path d="M62.6986 26.4659C62.6986 26.0918 62.6849 25.8129 62.6643 25.4898H63.0444L63.0753 26.2279H63.0924C63.3184 25.7687 63.8321 25.3979 64.5067 25.3979C64.8971 25.3979 65.9417 25.5986 65.9417 27.1259V29.5714H65.5341V27.1598C65.5341 26.4149 65.2464 25.7415 64.3972 25.7415C63.8184 25.7415 63.3287 26.1531 63.1643 26.6802C63.1335 26.7789 63.1095 26.9149 63.1095 27.0442V29.568H62.702V26.4659H62.6986Z" fill="#8C8C8C"/>
<path d="M70.2774 29.0374C70.4965 29.1769 70.8288 29.3198 71.2021 29.3198C71.8493 29.3198 72.1576 28.966 72.1576 28.5408C72.1576 28.0918 71.887 27.8537 71.2945 27.619C70.6233 27.3606 70.2534 26.9966 70.2534 26.5C70.2534 25.9116 70.7192 25.3945 71.5171 25.3945C71.8973 25.3945 72.2157 25.5068 72.428 25.6531L72.2637 25.983C72.1233 25.8843 71.8562 25.7381 71.452 25.7381C70.9315 25.7381 70.6506 26.0714 70.6506 26.4422C70.6506 26.8708 70.9418 27.051 71.5034 27.2789C72.1678 27.5408 72.5616 27.8673 72.5616 28.4864C72.5616 29.1871 72.0171 29.6565 71.1746 29.6565C70.7774 29.6565 70.4041 29.5442 70.1301 29.3741L70.2774 29.0374Z" fill="#8C8C8C"/>
<path d="M74.346 27.4932C74.346 28.7959 75.0617 29.3129 75.9076 29.3129C76.5069 29.3129 76.8186 29.1939 77.0515 29.0816L77.1576 29.4014C77.0001 29.4864 76.5788 29.6633 75.8596 29.6633C74.6781 29.6633 73.9453 28.8095 73.9453 27.6157C73.9453 26.2517 74.7295 25.4014 75.7912 25.4014C77.1371 25.4014 77.3905 26.6565 77.3905 27.2449C77.3905 27.3606 77.3905 27.4251 77.3768 27.4966H74.346V27.4932ZM76.9659 27.17C76.9761 26.602 76.7364 25.7347 75.7364 25.7347C74.8322 25.7347 74.4418 26.5442 74.3665 27.17H76.9659Z" fill="#8C8C8C"/>
<path d="M81.9109 29.3945C81.7363 29.483 81.3048 29.6598 80.7123 29.6598C79.5274 29.6598 78.7397 28.8027 78.7397 27.5782C78.7397 26.2789 79.6301 25.3979 80.8596 25.3979C81.3631 25.3979 81.7774 25.5408 81.9384 25.6496L81.7946 25.9864C81.5924 25.8708 81.2774 25.7483 80.8219 25.7483C79.7192 25.7483 79.1542 26.585 79.1542 27.5476C79.1542 28.6157 79.8322 29.3129 80.7774 29.3129C81.2671 29.3129 81.5856 29.1735 81.8048 29.0782L81.9109 29.3945Z" fill="#8C8C8C"/>
<path d="M86.7026 28.5749C86.7026 28.9388 86.7157 29.2585 86.7363 29.5714H86.3565L86.3286 28.8469H86.3122C86.1026 29.2245 85.6374 29.6667 84.9009 29.6667C84.3765 29.6667 83.5037 29.4082 83.5037 27.8674V25.4898H83.9113V27.7823C83.9113 28.6735 84.1883 29.3096 85.0037 29.3096C85.5995 29.3096 86.0409 28.8945 86.216 28.4796C86.2604 28.3504 86.2982 28.1939 86.2982 28.0306V25.4898H86.7059V28.5749H86.7026Z" fill="#8C8C8C"/>
<path d="M88.7259 26.7143C88.7259 26.3061 88.712 25.8843 88.6914 25.4898H89.0687L89.0859 26.3197H89.1098C89.2873 25.8027 89.7122 25.3979 90.2777 25.3979C90.3353 25.3979 90.3936 25.4047 90.4454 25.4184V25.8061C90.3838 25.7925 90.3254 25.7925 90.2465 25.7925C89.6851 25.7925 89.2807 26.2789 89.1681 26.9353C89.1476 27.0544 89.1336 27.1904 89.1336 27.3231V29.5748H88.7259V26.7143Z" fill="#8C8C8C"/>
<path d="M92.4281 24.3231C92.4281 24.5137 92.3015 24.6769 92.0861 24.6769C91.9012 24.6769 91.7705 24.5137 91.7705 24.3231C91.7705 24.1361 91.9143 23.9694 92.1026 23.9694C92.2949 23.9728 92.4281 24.1293 92.4281 24.3231ZM91.8938 29.5715V25.4898H92.3015V29.5715H91.8938Z" fill="#8C8C8C"/>
<path d="M94.8904 24.3096V25.4898H96.0616V25.8163H94.8904V28.4694C94.8904 28.9864 95.0514 29.3129 95.4928 29.3129C95.7057 29.3129 95.8561 29.2857 95.9588 29.2483L96.0065 29.5612C95.8734 29.6157 95.6884 29.6599 95.4386 29.6599C95.1369 29.6599 94.8904 29.5647 94.7293 29.3708C94.5443 29.1565 94.4794 28.8129 94.4794 28.398V25.8163H93.7874V25.4898H94.4794V24.4388L94.8904 24.3096Z" fill="#8C8C8C"/>
<path d="M97.4524 25.4898L98.5274 28.1564C98.6409 28.4455 98.7535 28.7755 98.8291 29.0373H98.8463C98.9285 28.7857 99.0378 28.4659 99.1578 28.1326L100.165 25.4898H100.599L99.3666 28.534C98.8702 29.7993 98.5209 30.5578 97.9833 31.0204C97.6578 31.2959 97.3595 31.4149 97.2642 31.4455L97.1335 31.1088C97.3357 31.034 97.6094 30.8911 97.8494 30.653C98.0548 30.4524 98.3285 30.1122 98.5381 29.6258C98.5718 29.5373 98.5858 29.4898 98.5858 29.4489C98.5858 29.4116 98.5718 29.3537 98.5381 29.2687L97.0176 25.4863H97.4524V25.4898Z" fill="#8C8C8C"/>
<path d="M105.072 24.3231C105.072 24.5137 104.945 24.6769 104.73 24.6769C104.545 24.6769 104.415 24.5137 104.415 24.3231C104.415 24.1361 104.559 23.9694 104.747 23.9694C104.942 23.9728 105.072 24.1293 105.072 24.3231ZM104.541 29.5715V25.4898H104.949V29.5715H104.541Z" fill="#8C8C8C"/>
<path d="M106.802 29.0374C107.02 29.1769 107.353 29.3198 107.726 29.3198C108.373 29.3198 108.681 28.966 108.681 28.5408C108.681 28.0918 108.411 27.8537 107.818 27.619C107.148 27.3606 106.778 26.9966 106.778 26.5C106.778 25.9116 107.243 25.3945 108.041 25.3945C108.422 25.3945 108.74 25.5068 108.952 25.6531L108.791 25.983C108.651 25.8843 108.384 25.7381 107.979 25.7381C107.456 25.7381 107.178 26.0714 107.178 26.4422C107.178 26.8708 107.469 27.051 108.031 27.2789C108.695 27.5408 109.089 27.8673 109.089 28.4864C109.089 29.1871 108.545 29.6565 107.702 29.6565C107.305 29.6565 106.931 29.5442 106.658 29.3741L106.802 29.0374Z" fill="#8C8C8C"/>
<path d="M113.856 24.3231C113.856 24.5137 113.729 24.6769 113.513 24.6769C113.328 24.6769 113.198 24.5137 113.198 24.3231C113.198 24.1361 113.342 23.9694 113.531 23.9694C113.723 23.9728 113.856 24.1293 113.856 24.3231ZM113.325 29.5715V25.4898H113.733V29.5715H113.325Z" fill="#8C8C8C"/>
<path d="M115.757 26.466C115.757 26.0918 115.743 25.8129 115.723 25.4898H116.102L116.134 26.2109H116.151C116.415 25.7415 116.808 25.3945 117.483 25.3945C118.054 25.3945 118.486 25.7721 118.661 26.2891H118.678C118.794 26.0476 118.945 25.8639 119.096 25.7347C119.36 25.517 119.641 25.3945 120.079 25.3945C120.479 25.3945 121.418 25.619 121.418 27.1667V29.5714H121.01V27.2075C121.01 26.2925 120.654 25.7449 119.938 25.7449C119.428 25.7449 119.02 26.1224 118.86 26.5544C118.822 26.67 118.788 26.8061 118.788 26.9592V29.5749H118.38V27.0238C118.38 26.2891 118.024 25.7449 117.363 25.7449C116.812 25.7449 116.377 26.1904 116.222 26.6667C116.185 26.7823 116.161 26.9184 116.161 27.0612V29.5749H115.753V26.466H115.757Z" fill="#8C8C8C"/>
<path d="M123.408 26.7925C123.408 26.2823 123.394 25.8776 123.373 25.4898H123.763L123.795 26.2619H123.812C124.106 25.7211 124.613 25.3945 125.325 25.3945C126.38 25.3945 127.092 26.2619 127.092 27.4592C127.092 28.9184 126.216 29.6598 125.226 29.6598C124.64 29.6598 124.116 29.3945 123.832 28.9047H123.815V31.2483H123.408V26.7925ZM123.815 27.966C123.815 28.0782 123.828 28.1871 123.853 28.2925C124.021 28.9251 124.572 29.3333 125.202 29.3333C126.147 29.3333 126.681 28.5714 126.681 27.483C126.681 26.5647 126.164 25.7347 125.236 25.7347C124.634 25.7347 124.059 26.1463 123.877 26.8231C123.849 26.9353 123.819 27.0612 123.819 27.1735V27.966H123.815Z" fill="#8C8C8C"/>
<path d="M132.288 27.4932C132.288 29.017 131.236 29.6667 130.321 29.6667C129.257 29.6667 128.438 28.8469 128.438 27.5646C128.438 26.17 129.36 25.3979 130.38 25.3979C131.513 25.3979 132.288 26.2449 132.288 27.4932ZM128.849 27.5442C128.849 28.5646 129.504 29.33 130.349 29.33C131.202 29.33 131.877 28.5578 131.877 27.5136C131.877 26.7687 131.452 25.7347 130.37 25.7347C129.322 25.7347 128.849 26.6633 128.849 27.5442Z" fill="#8C8C8C"/>
<path d="M133.973 26.7143C133.973 26.3061 133.959 25.8843 133.938 25.4898H134.315L134.333 26.3197H134.356C134.534 25.8027 134.959 25.3979 135.524 25.3979C135.582 25.3979 135.64 25.4047 135.692 25.4184V25.8061C135.63 25.7925 135.572 25.7925 135.493 25.7925C134.932 25.7925 134.527 26.2789 134.415 26.9353C134.394 27.0544 134.38 27.1904 134.38 27.3231V29.5748H133.973V26.7143Z" fill="#8C8C8C"/>
<path d="M137.706 24.3096V25.4898H138.877V25.8163H137.706V28.4694C137.706 28.9864 137.867 29.3129 138.308 29.3129C138.52 29.3129 138.672 29.2857 138.774 29.2483L138.822 29.5612C138.689 29.6157 138.504 29.6599 138.253 29.6599C137.952 29.6599 137.706 29.5647 137.545 29.3708C137.36 29.1565 137.295 28.8129 137.295 28.398V25.8163H136.603V25.4898H137.295V24.4388L137.706 24.3096Z" fill="#8C8C8C"/>
<path d="M142.671 29.5714L142.614 28.9864H142.593C142.394 29.2993 141.935 29.6633 141.284 29.6633C140.459 29.6633 140.075 29.0851 140.075 28.5408C140.075 27.5986 140.911 27.0306 142.582 27.0476V26.9388C142.582 26.534 142.503 25.7279 141.531 25.7347C141.171 25.7347 140.798 25.83 140.5 26.0374L140.37 25.7449C140.744 25.4932 141.202 25.3912 141.575 25.3912C142.761 25.3912 142.987 26.2755 142.987 27.0034V28.5953C142.987 28.9184 143 29.2517 143.048 29.5646H142.671V29.5714ZM142.579 27.3912C141.685 27.3639 140.504 27.5 140.504 28.4796C140.504 29.0646 140.894 29.3299 141.322 29.3299C142.007 29.3299 142.397 28.9082 142.538 28.5102C142.568 28.4218 142.582 28.3367 142.582 28.2653V27.3912H142.579Z" fill="#8C8C8C"/>
<path d="M144.959 26.4659C144.959 26.0918 144.945 25.8129 144.925 25.4898H145.305L145.336 26.2279H145.353C145.579 25.7687 146.093 25.3979 146.767 25.3979C147.158 25.3979 148.202 25.5986 148.202 27.1259V29.5714H147.795V27.1598C147.795 26.4149 147.507 25.7415 146.657 25.7415C146.079 25.7415 145.589 26.1531 145.424 26.6802C145.394 26.7789 145.37 26.9149 145.37 27.0442V29.568H144.962V26.4659H144.959Z" fill="#8C8C8C"/>
<path d="M150.754 24.3096V25.4898H151.925V25.8163H150.754V28.4694C150.754 28.9864 150.915 29.3129 151.356 29.3129C151.568 29.3129 151.719 29.2857 151.822 29.2483L151.87 29.5612C151.737 29.6157 151.552 29.6599 151.301 29.6599C151 29.6599 150.754 29.5647 150.593 29.3708C150.408 29.1565 150.343 28.8129 150.343 28.398V25.8163H149.651V25.4898H150.343V24.4388L150.754 24.3096Z" fill="#8C8C8C"/>
</svg>
