<svg width="194" height="44" viewBox="0 0 194 44" fill="none" xmlns="http://www.w3.org/2000/svg">
<path d="M22.487 0.918335L1.43115 21.9387L22.4359 42.9081L22.487 42.9591L22.5381 42.9081L28.4665 36.9898L13.4412 21.9898L13.3901 21.9387L13.4412 21.8877L28.4665 6.88772L22.487 0.918335Z" fill="#31B7E9"/>
<path d="M19.5736 21.8877L31.5325 9.94897L37.4608 15.8673L37.5119 15.9184L37.4608 15.9694L31.4814 21.9388L31.5325 21.9898L37.4608 27.9082L37.5119 27.9592L31.5325 33.9286L19.5736 21.9898L19.5225 21.9388L19.5736 21.8877Z" fill="#31B7E9"/>
<path d="M38.2788 17.0918L35.9279 19.4387L35.8768 19.4898L35.9279 19.5408L38.381 21.9898L35.8257 24.5408L38.1766 26.9897L43.185 21.9898L43.2361 21.9387L43.185 21.8877L38.381 17.0918L38.3299 17.0408L38.2788 17.0918Z" fill="#31B7E9"/>
<path d="M37.4612 15.9694L37.5123 15.9183L37.4612 15.9694ZM37.5123 15.9183L37.4612 15.8673L31.5328 9.94895L19.5739 21.8877L19.5228 21.9387L19.5739 21.9898L31.5328 33.9285L37.5123 27.9592L37.4612 27.9081L31.5328 21.9898L31.4817 21.9387L37.5123 15.9183ZM1.43115 21.9387L22.487 0.918335L28.4665 6.88772L13.4412 21.8877L13.3901 21.9387L13.4412 21.9898L28.4665 36.9898L22.5381 42.9081L22.487 42.9591L22.4359 42.9081L1.43115 21.9387ZM35.928 19.5408L38.3811 21.9898L35.8258 24.5408L38.1767 26.9898L43.1851 21.9898L43.2362 21.9387L43.1851 21.8877L38.3811 17.0918L38.33 17.0408L38.2789 17.0918L35.928 19.4387L35.8769 19.4898L35.928 19.5408Z" stroke="#31B7E9"/>
<path d="M54.2453 23.3503L49.0879 7.30444H53.0699L55.0162 14.0987C55.5784 16.0077 56.0682 17.8232 56.4685 19.8257H56.5196C56.9242 17.8997 57.4438 15.9906 57.9932 14.1582L60.0331 7.3087H63.9003L58.4958 23.3546H54.2453V23.3503Z" fill="white"/>
<path d="M65.6249 7.51703C66.7449 7.32996 68.3165 7.18115 70.5311 7.18115C72.7627 7.18115 74.3726 7.61483 75.4501 8.47792C76.4807 9.27299 77.1536 10.6165 77.1536 12.1896C77.1536 13.7628 76.6426 15.1021 75.6844 15.9906C74.4408 17.1556 72.5923 17.6913 70.4629 17.6913C69.9817 17.6913 69.5515 17.6574 69.2236 17.6105V23.3546H65.6206V7.51703H65.6249ZM69.2236 14.7917C69.526 14.8597 69.9008 14.8895 70.4289 14.8895C72.3582 14.8895 73.5506 13.9158 73.5506 12.2875C73.5506 10.8121 72.537 9.932 70.7057 9.932C69.9859 9.932 69.4876 9.99152 69.2236 10.051V14.7917Z" fill="white"/>
<path d="M79.479 23.3503V7.30444H83.7124L87.0513 13.1888C88.0138 14.8725 88.9551 16.8793 89.679 18.6947L89.7429 18.6862C89.5214 16.5646 89.449 14.409 89.449 11.9813V7.30444H92.7837V23.3503H88.9763L85.5309 17.1684C84.5727 15.438 83.5164 13.3801 82.737 11.5008L82.6562 11.5094C82.7669 13.6352 82.8137 15.9056 82.8137 18.5289V23.3546H79.479V23.3503Z" fill="white"/>
<path d="M114.338 17.2109C114.262 15.2678 114.189 12.9507 114.197 10.5995H114.134C113.623 12.653 112.945 14.9362 112.34 16.8282L110.372 23.0867H107.549L105.816 16.8834C105.297 14.9957 104.764 12.7125 104.363 10.5995H104.312C104.232 12.7806 104.143 15.2594 104.049 17.2576L103.75 23.3461H100.386L101.416 7.30015H106.264L107.83 12.6615C108.337 14.5025 108.835 16.5178 109.193 18.3971H109.27C109.708 16.5391 110.254 14.4217 110.799 12.636L112.507 7.2959H117.26L118.124 23.3418H114.589L114.338 17.2109Z" fill="white"/>
<path d="M127.442 23.3503L127.229 22.1938H127.153C126.39 23.1207 125.203 23.614 123.819 23.614C121.442 23.614 120.045 21.909 120.045 20.0467C120.045 17.011 122.766 15.5697 126.893 15.5782V15.4294C126.893 14.8086 126.561 13.9243 124.755 13.9285C123.567 13.9285 122.315 14.3324 121.539 14.8002L120.871 12.4829C121.684 12.0196 123.273 11.437 125.407 11.437C129.295 11.437 130.522 13.7287 130.522 16.4668V20.5314C130.522 21.6411 130.581 22.6998 130.709 23.3546H127.442V23.3503ZM126.999 17.8401C125.091 17.8316 123.614 18.2908 123.614 19.6768C123.614 20.6165 124.227 21.0714 125.053 21.0714C125.94 21.0714 126.693 20.4804 126.931 19.7321C126.987 19.5451 126.999 19.3197 126.999 19.1114V17.8401Z" fill="white"/>
<path d="M133.392 15.4209C133.392 13.9711 133.345 12.7423 133.298 11.6964H136.446L136.612 13.312H136.688C137.161 12.5595 138.345 11.437 140.295 11.437C142.681 11.437 144.474 13.0229 144.474 16.4541V23.3503H140.841V16.892C140.841 15.3911 140.305 14.3622 138.997 14.3622C138.001 14.3622 137.408 15.0595 137.156 15.7313C137.063 15.9566 137.03 16.301 137.03 16.6283V23.3503H133.396V15.4209H133.392Z" fill="white"/>
<path d="M154.009 23.3503L153.797 22.1938H153.72C152.958 23.1207 151.769 23.614 150.385 23.614C148.009 23.614 146.612 21.909 146.612 20.0467C146.612 17.011 149.333 15.5697 153.46 15.5782V15.4294C153.46 14.8086 153.127 13.9243 151.322 13.9285C150.134 13.9285 148.881 14.3324 148.107 14.8002L147.438 12.4829C148.252 12.0196 149.84 11.437 151.973 11.437C155.862 11.437 157.089 13.7287 157.089 16.4668V20.5314C157.089 21.6411 157.148 22.6998 157.276 23.3546H154.009V23.3503ZM153.571 17.8401C151.663 17.8316 150.185 18.2908 150.185 19.6768C150.185 20.6165 150.798 21.0714 151.625 21.0714C152.51 21.0714 153.264 20.4804 153.502 19.7321C153.558 19.5451 153.571 19.3197 153.571 19.1114V17.8401Z" fill="white"/>
<path d="M171.104 11.6964C171.049 12.449 171.006 13.4354 171.006 15.1701V21.6539C171.006 23.8903 170.555 25.727 169.231 26.892C167.953 27.9975 166.216 28.3248 164.499 28.3248C162.957 28.3248 161.347 28.0102 160.304 27.4319L161.024 24.6854C161.756 25.1063 163.038 25.5569 164.405 25.5569C166.122 25.5569 167.433 24.6429 167.433 22.4873V21.739H167.387C166.701 22.6956 165.581 23.2441 164.235 23.2441C161.356 23.2441 159.299 20.9056 159.299 17.5722C159.299 13.8138 161.722 11.4329 164.588 11.4329C166.194 11.4329 167.195 12.1301 167.787 13.0867H167.834L167.957 11.6921H171.104V11.6964ZM167.378 16.4456C167.378 16.2117 167.356 15.9737 167.305 15.7781C167.055 14.8214 166.365 14.1752 165.355 14.1752C164.034 14.1752 162.983 15.3784 162.983 17.4915C162.983 19.2262 163.843 20.5867 165.351 20.5867C166.288 20.5867 167.037 19.9702 167.276 19.1242C167.356 18.8478 167.378 18.4651 167.378 18.1633V16.4456Z" fill="white"/>
<path d="M176.709 18.6905C176.816 20.1956 178.306 20.9099 179.997 20.9099C181.223 20.9099 182.228 20.7441 183.208 20.4166L183.698 22.8656C182.489 23.3589 181.032 23.6012 179.468 23.6012C175.513 23.6012 173.243 21.301 173.243 17.6701C173.243 14.7109 175.091 11.4329 179.124 11.4329C182.906 11.4329 184.337 14.3665 184.337 17.2534C184.337 17.8827 184.268 18.4184 184.209 18.6862H176.709V18.6905ZM180.968 16.2075C180.972 15.3359 180.585 13.8436 178.932 13.8436C177.399 13.8436 176.777 15.2423 176.679 16.2075H180.968Z" fill="white"/>
<path d="M186.505 15.54C186.505 13.8308 186.475 12.7041 186.411 11.6964H189.528L189.66 13.852H189.75C190.35 12.1471 191.769 11.4329 192.901 11.4329C193.237 11.4329 193.408 11.4413 193.676 11.5008V14.9064C193.395 14.8469 193.102 14.8044 192.697 14.8044C191.364 14.8044 190.452 15.5102 190.21 16.6454C190.163 16.875 190.141 17.1599 190.141 17.4533V23.3503H186.509V15.54H186.505Z" fill="white"/>
<path d="M56.9197 31.8622L57.7801 34.7619C57.9546 35.3614 58.1037 35.8716 58.2145 36.3605H58.24C58.3635 35.8885 58.5424 35.3528 58.7511 34.7661L59.7732 31.8579H60.2544L61.2297 34.7364C61.4383 35.3571 61.6003 35.8801 61.728 36.3605H61.7536C61.86 35.8801 62.0176 35.3698 62.2135 34.7576L63.1291 31.8622H63.6445L61.9366 36.9642H61.498L60.5355 34.1241C60.3183 33.5076 60.1437 32.9634 60.0074 32.3852H59.9861C59.8328 32.9846 59.6411 33.5502 59.4282 34.1411L58.4103 36.9642H57.9631L56.3916 31.8622H56.9197Z" fill="#80C1DA"/>
<path d="M65.5059 29.4176H66.0127V32.7722H66.034C66.1788 32.4873 66.4258 32.2152 66.7324 32.0366C67.0263 31.858 67.3755 31.7432 67.7631 31.7432C68.2486 31.7432 69.539 31.9856 69.539 33.8861V36.9643H69.0322V33.9457C69.0322 33.0273 68.6703 32.1896 67.6226 32.1896C66.8985 32.1896 66.298 32.7084 66.0808 33.3462C66.0255 33.4992 66.0127 33.6395 66.0127 33.8478V36.9686H65.5059V29.4176Z" fill="#80C1DA"/>
<path d="M72.0901 34.3665C72.0901 35.9949 72.9802 36.6411 74.0321 36.6411C74.7774 36.6411 75.1649 36.4923 75.4545 36.352L75.5866 36.7517C75.3906 36.8579 74.8668 37.0791 73.9724 37.0791C72.5031 37.0791 71.5918 36.0119 71.5918 34.5196C71.5918 32.8146 72.567 31.7517 73.8873 31.7517C75.561 31.7517 75.8761 33.3206 75.8761 34.0561C75.8761 34.2007 75.8761 34.2814 75.8592 34.3707H72.0901V34.3665ZM75.3438 33.9625C75.3566 33.2525 75.0584 32.1683 73.8149 32.1683C72.6906 32.1683 72.2051 33.1803 72.1113 33.9625H75.3438Z" fill="#80C1DA"/>
<path d="M77.9713 33.0824C77.9713 32.6148 77.9543 32.2661 77.9287 31.8622H78.4014L78.4398 32.7849H78.461C78.7421 32.2109 79.3809 31.7474 80.2199 31.7474C80.7054 31.7474 82.0044 31.9983 82.0044 33.9073V36.9643H81.4976V33.9498C81.4976 33.0187 81.1398 32.1768 80.0837 32.1768C79.3639 32.1768 78.7549 32.6913 78.5505 33.3503C78.5121 33.4737 78.4823 33.6437 78.4823 33.8053V36.96H77.9755V33.0824H77.9713Z" fill="#80C1DA"/>
<path d="M87.3961 36.2967C87.6686 36.4711 88.0817 36.6497 88.546 36.6497C89.3509 36.6497 89.7342 36.2074 89.7342 35.676C89.7342 35.1148 89.3977 34.8171 88.6609 34.5238C87.8262 34.2007 87.3662 33.7457 87.3662 33.125C87.3662 32.3895 87.9455 31.7432 88.9377 31.7432C89.4105 31.7432 89.8066 31.8835 90.0706 32.0663L89.8661 32.4788C89.6916 32.3554 89.3594 32.1727 88.8568 32.1727C88.2095 32.1727 87.8602 32.5893 87.8602 33.0528C87.8602 33.5885 88.2222 33.8138 88.9207 34.0987C89.747 34.426 90.2367 34.8342 90.2367 35.608C90.2367 36.4839 89.5595 37.0706 88.5118 37.0706C88.0178 37.0706 87.5536 36.9303 87.2129 36.7177L87.3961 36.2967Z" fill="#80C1DA"/>
<path d="M92.4558 34.3665C92.4558 35.9949 93.3459 36.6411 94.3979 36.6411C95.1431 36.6411 95.5307 36.4923 95.8204 36.352L95.9523 36.7517C95.7565 36.8579 95.2325 37.0791 94.3382 37.0791C92.8689 37.0791 91.9575 36.0119 91.9575 34.5196C91.9575 32.8146 92.9327 31.7517 94.253 31.7517C95.9268 31.7517 96.2419 33.3206 96.2419 34.0561C96.2419 34.2007 96.242 34.2814 96.2249 34.3707H92.4558V34.3665ZM95.7138 33.9625C95.7266 33.2525 95.4285 32.1683 94.1848 32.1683C93.0605 32.1683 92.575 33.1803 92.4814 33.9625H95.7138Z" fill="#80C1DA"/>
<path d="M101.864 36.7431C101.646 36.8538 101.11 37.0748 100.373 37.0748C98.8994 37.0748 97.9199 36.0034 97.9199 34.4727C97.9199 32.8487 99.0272 31.7474 100.556 31.7474C101.182 31.7474 101.697 31.926 101.898 32.062L101.719 32.4829C101.468 32.3385 101.076 32.1854 100.509 32.1854C99.138 32.1854 98.4353 33.2313 98.4353 34.4345C98.4353 35.7696 99.2785 36.6411 100.454 36.6411C101.063 36.6411 101.459 36.4668 101.732 36.3477L101.864 36.7431Z" fill="#80C1DA"/>
<path d="M107.822 35.7186C107.822 36.1735 107.839 36.5732 107.864 36.9643H107.392L107.357 36.0587H107.337C107.076 36.5307 106.498 37.0834 105.582 37.0834C104.93 37.0834 103.844 36.7603 103.844 34.8342V31.8623H104.351V34.7279C104.351 35.8419 104.696 36.637 105.71 36.637C106.451 36.637 107 36.1182 107.217 35.5996C107.272 35.438 107.319 35.2424 107.319 35.0383V31.8623H107.826V35.7186H107.822Z" fill="#80C1DA"/>
<path d="M110.339 33.3928C110.339 32.8826 110.321 32.3554 110.296 31.8622H110.765L110.787 32.8997H110.816C111.037 32.2534 111.565 31.7474 112.269 31.7474C112.34 31.7474 112.413 31.7559 112.477 31.7729V32.2576C112.4 32.2406 112.328 32.2406 112.23 32.2406C111.532 32.2406 111.029 32.8487 110.889 33.6692C110.863 33.818 110.846 33.988 110.846 34.1539V36.9686H110.339V33.3928Z" fill="#80C1DA"/>
<path d="M114.942 30.4038C114.942 30.642 114.785 30.8461 114.517 30.8461C114.287 30.8461 114.125 30.642 114.125 30.4038C114.125 30.17 114.303 29.9617 114.537 29.9617C114.777 29.966 114.942 30.1615 114.942 30.4038ZM114.278 36.9642V31.8622H114.785V36.9642H114.278Z" fill="#80C1DA"/>
<path d="M118.005 30.387V31.8623H119.461V32.2704H118.005V35.5868C118.005 36.233 118.205 36.6411 118.754 36.6411C119.018 36.6411 119.206 36.6072 119.333 36.5604L119.393 36.9516C119.227 37.0196 118.997 37.0748 118.686 37.0748C118.311 37.0748 118.005 36.9558 117.804 36.7135C117.574 36.4456 117.493 36.0161 117.493 35.4975V32.2704H116.633V31.8623H117.493V30.5485L118.005 30.387Z" fill="#80C1DA"/>
<path d="M121.191 31.8622L122.528 35.1956C122.669 35.5569 122.809 35.9693 122.903 36.2967H122.924C123.026 35.9821 123.162 35.5824 123.312 35.1658L124.564 31.8622H125.104L123.571 35.6675C122.954 37.2491 122.519 38.1972 121.851 38.7755C121.446 39.1198 121.075 39.2686 120.957 39.3069L120.794 38.886C121.045 38.7925 121.386 38.6139 121.684 38.3163C121.94 38.0655 122.28 37.6403 122.541 37.0323C122.583 36.9217 122.6 36.8622 122.6 36.8112C122.6 36.7644 122.583 36.6921 122.541 36.5859L120.65 31.8579H121.191V31.8622Z" fill="#80C1DA"/>
<path d="M130.667 30.4038C130.667 30.642 130.508 30.8461 130.241 30.8461C130.011 30.8461 129.849 30.642 129.849 30.4038C129.849 30.17 130.028 29.9617 130.262 29.9617C130.504 29.966 130.667 30.1615 130.667 30.4038ZM130.007 36.9642V31.8622H130.513V36.9642H130.007Z" fill="#80C1DA"/>
<path d="M132.818 36.2967C133.089 36.4711 133.503 36.6497 133.967 36.6497C134.772 36.6497 135.155 36.2074 135.155 35.676C135.155 35.1148 134.819 34.8171 134.082 34.5238C133.248 34.2007 132.788 33.7457 132.788 33.125C132.788 32.3895 133.366 31.7432 134.359 31.7432C134.832 31.7432 135.228 31.8835 135.491 32.0663L135.292 32.4788C135.117 32.3554 134.785 32.1727 134.282 32.1727C133.631 32.1727 133.286 32.5893 133.286 33.0528C133.286 33.5885 133.648 33.8138 134.347 34.0987C135.173 34.426 135.662 34.8342 135.662 35.608C135.662 36.4839 134.985 37.0706 133.938 37.0706C133.443 37.0706 132.979 36.9303 132.639 36.7177L132.818 36.2967Z" fill="#80C1DA"/>
<path d="M141.59 30.4038C141.59 30.642 141.433 30.8461 141.164 30.8461C140.934 30.8461 140.772 30.642 140.772 30.4038C140.772 30.17 140.951 29.9617 141.185 29.9617C141.425 29.966 141.59 30.1615 141.59 30.4038ZM140.93 36.9642V31.8622H141.437V36.9642H140.93Z" fill="#80C1DA"/>
<path d="M143.955 33.0824C143.955 32.6148 143.937 32.2661 143.912 31.8622H144.384L144.423 32.7636H144.444C144.772 32.1768 145.262 31.7432 146.101 31.7432C146.811 31.7432 147.348 32.2151 147.566 32.8614H147.587C147.731 32.5595 147.919 32.3299 148.106 32.1684C148.435 31.8962 148.784 31.7432 149.329 31.7432C149.827 31.7432 150.994 32.0238 150.994 33.9584V36.9643H150.487V34.0094C150.487 32.8656 150.044 32.1811 149.154 32.1811C148.519 32.1811 148.012 32.6531 147.813 33.1931C147.766 33.3375 147.723 33.5077 147.723 33.699V36.9686H147.216V33.7798C147.216 32.8614 146.774 32.1811 145.952 32.1811C145.266 32.1811 144.725 32.7381 144.533 33.3334C144.486 33.4779 144.456 33.648 144.456 33.8265V36.9686H143.949V33.0824H143.955Z" fill="#80C1DA"/>
<path d="M153.469 33.4906C153.469 32.8529 153.451 32.3469 153.426 31.8622H153.911L153.95 32.8273H153.972C154.338 32.1513 154.968 31.7432 155.853 31.7432C157.166 31.7432 158.051 32.8273 158.051 34.324C158.051 36.148 156.961 37.0748 155.73 37.0748C155.002 37.0748 154.35 36.7432 153.997 36.1309H153.976V39.0604H153.469V33.4906ZM153.976 34.9575C153.976 35.0978 153.992 35.2339 154.023 35.3656C154.231 36.1564 154.917 36.6666 155.7 36.6666C156.875 36.6666 157.54 35.7143 157.54 34.3538C157.54 33.2058 156.897 32.1684 155.743 32.1684C154.994 32.1684 154.278 32.6829 154.052 33.5289C154.018 33.6692 153.98 33.8265 153.98 33.9668V34.9575H153.976Z" fill="#80C1DA"/>
<path d="M164.512 34.3665C164.512 36.2712 163.204 37.0834 162.067 37.0834C160.743 37.0834 159.725 36.0587 159.725 34.4558C159.725 32.7125 160.871 31.7474 162.139 31.7474C163.549 31.7474 164.512 32.8061 164.512 34.3665ZM160.236 34.4303C160.236 35.7058 161.05 36.6624 162.102 36.6624C163.162 36.6624 164.001 35.6972 164.001 34.392C164.001 33.4609 163.472 32.1684 162.127 32.1684C160.824 32.1684 160.236 33.3291 160.236 34.4303Z" fill="#80C1DA"/>
<path d="M166.607 33.3928C166.607 32.8826 166.59 32.3554 166.564 31.8622H167.033L167.055 32.8997H167.084C167.305 32.2534 167.833 31.7474 168.537 31.7474C168.608 31.7474 168.681 31.7559 168.745 31.7729V32.2576C168.669 32.2406 168.596 32.2406 168.498 32.2406C167.8 32.2406 167.297 32.8487 167.157 33.6692C167.131 33.818 167.114 33.988 167.114 34.1539V36.9686H166.607V33.3928Z" fill="#80C1DA"/>
<path d="M171.25 30.387V31.8623H172.706V32.2704H171.25V35.5868C171.25 36.233 171.45 36.6411 171.999 36.6411C172.263 36.6411 172.451 36.6072 172.578 36.5604L172.638 36.9516C172.472 37.0196 172.242 37.0748 171.93 37.0748C171.556 37.0748 171.25 36.9558 171.049 36.7135C170.819 36.4456 170.739 36.0161 170.739 35.4975V32.2704H169.878V31.8623H170.739V30.5485L171.25 30.387Z" fill="#80C1DA"/>
<path d="M177.424 36.9643L177.353 36.233H177.327C177.08 36.6242 176.508 37.0791 175.7 37.0791C174.674 37.0791 174.196 36.3564 174.196 35.6761C174.196 34.4983 175.236 33.7883 177.314 33.8095V33.6735C177.314 33.1676 177.216 32.1599 176.006 32.1684C175.559 32.1684 175.095 32.2875 174.725 32.5468L174.562 32.1812C175.027 31.8666 175.598 31.739 176.062 31.739C177.536 31.739 177.817 32.8444 177.817 33.7543V35.7441C177.817 36.148 177.833 36.5646 177.893 36.9559H177.424V36.9643ZM177.31 34.239C176.198 34.2049 174.729 34.375 174.729 35.5995C174.729 36.3309 175.214 36.6625 175.747 36.6625C176.598 36.6625 177.084 36.1352 177.259 35.6378C177.296 35.5273 177.314 35.421 177.314 35.3317V34.239H177.31Z" fill="#80C1DA"/>
<path d="M180.27 33.0824C180.27 32.6148 180.253 32.2661 180.227 31.8622H180.7L180.738 32.7849H180.76C181.041 32.2109 181.679 31.7474 182.519 31.7474C183.004 31.7474 184.303 31.9983 184.303 33.9073V36.9643H183.796V33.9498C183.796 33.0187 183.439 32.1768 182.382 32.1768C181.662 32.1768 181.053 32.6913 180.849 33.3503C180.811 33.4737 180.781 33.6437 180.781 33.8053V36.96H180.274V33.0824H180.27Z" fill="#80C1DA"/>
<path d="M187.476 30.387V31.8623H188.932V32.2704H187.476V35.5868C187.476 36.233 187.676 36.6411 188.225 36.6411C188.489 36.6411 188.677 36.6072 188.804 36.5604L188.864 36.9516C188.698 37.0196 188.468 37.0748 188.156 37.0748C187.782 37.0748 187.476 36.9558 187.275 36.7135C187.045 36.4456 186.965 36.0161 186.965 35.4975V32.2704H186.104V31.8623H186.965V30.5485L187.476 30.387Z" fill="#80C1DA"/>
</svg>
