<svg width="10" height="10" viewBox="0 0 10 10" fill="none" xmlns="http://www.w3.org/2000/svg">
<path d="M4.99948 4.72443C5.47386 4.72443 5.86859 4.33974 5.86859 3.86536V0.858845C5.86859 0.384684 5.47386 0 4.99948 0C4.5251 0 4.13037 0.384684 4.13037 0.858845V3.86558C4.13059 4.33974 4.5251 4.72443 4.99948 4.72443Z" fill="#34383C"/>
<path d="M6.8562 0.743035C6.80329 0.720947 6.74574 0.712269 6.68868 0.717773C6.63161 0.723278 6.57678 0.742793 6.52907 0.774586C6.48136 0.806379 6.44224 0.849465 6.41519 0.900015C6.38814 0.950565 6.37399 1.00702 6.374 1.06435V2.20524C6.374 2.33019 6.44117 2.44533 6.54894 2.50736C7.48432 3.04445 8.09259 4.04342 8.09259 5.18475C8.09259 6.89263 6.70536 8.28231 4.99771 8.28231C3.28984 8.28231 1.90506 6.89263 1.90506 5.18475C1.90506 4.04387 2.53274 3.04512 3.45161 2.50781C3.55827 2.44555 3.62409 2.33064 3.62409 2.20702V1.06413C3.62411 1.00679 3.60996 0.950342 3.58291 0.899792C3.55586 0.849241 3.51674 0.806156 3.46903 0.774363C3.42132 0.74257 3.36649 0.723055 3.30942 0.71755C3.25235 0.712046 3.19481 0.720724 3.1419 0.742812C2.26548 1.10809 1.51709 1.72509 0.991376 2.51577C0.465664 3.30644 0.186255 4.23526 0.18849 5.18475C0.18849 7.84452 2.34241 10 5.00195 10C7.66104 10 9.81162 7.84452 9.81162 5.18475C9.81358 4.23509 9.53383 3.30617 9.00776 2.51553C8.48168 1.72489 7.73292 1.10804 6.8562 0.743035Z" fill="#34383C"/>
</svg>
