<svg width="156" height="36" viewBox="0 0 156 36" fill="none" xmlns="http://www.w3.org/2000/svg">
<path d="M30.1232 12.7755L30.1643 12.7347L30.1232 12.7755ZM30.1643 12.7347L30.1232 12.6939L25.3561 7.95917L15.7397 17.5102L15.6986 17.551L15.7397 17.5918L25.3561 27.1428L30.1643 22.3673L30.1232 22.3265L25.3561 17.5918L25.315 17.551L30.1643 12.7347ZM1.15063 17.551L18.0821 0.73468L22.8904 5.51019L10.8082 17.5102L10.7671 17.551L10.8082 17.5918L22.8904 29.5918L18.1232 34.3265L18.0821 34.3673L18.041 34.3265L1.15063 17.551ZM28.8904 15.6326L30.863 17.5918L28.8082 19.6326L30.6986 21.5918L34.726 17.5918L34.7671 17.551L34.726 17.5102L30.863 13.6735L30.8219 13.6326L30.7808 13.6735L28.8904 15.551L28.8493 15.5918L28.8904 15.6326Z" fill="#31B7E9"/>
<path d="M43.6199 18.6803L39.4727 5.84357H42.6747L44.2398 11.279C44.6918 12.8061 45.0857 14.2586 45.4075 15.8606H45.4486C45.774 14.3198 46.1918 12.7925 46.6336 11.3266L48.274 5.84697H51.3836L47.0377 18.6837H43.6199V18.6803Z" fill="#34383C"/>
<path d="M52.7705 6.01358C53.6712 5.86392 54.9349 5.74487 56.7157 5.74487C58.5102 5.74487 59.8048 6.09181 60.6712 6.78229C61.5 7.41834 62.041 8.49319 62.041 9.75164C62.041 11.0102 61.6302 12.0816 60.8596 12.7925C59.8596 13.7245 58.3732 14.153 56.6609 14.153C56.274 14.153 55.928 14.1258 55.6643 14.0884V18.6836H52.7671V6.01358H52.7705ZM55.6643 11.8333C55.9075 11.8877 56.2089 11.9116 56.6336 11.9116C58.1849 11.9116 59.1438 11.1326 59.1438 9.82993C59.1438 8.6496 58.3288 7.94555 56.8561 7.94555C56.2773 7.94555 55.8766 7.99317 55.6643 8.04079V11.8333Z" fill="#34383C"/>
<path d="M63.9109 18.6803V5.84357H67.315L70 10.551C70.7739 11.898 71.5308 13.5035 72.113 14.9558L72.1643 14.949C71.9862 13.2517 71.928 11.5272 71.928 9.58509V5.84357H74.6095V18.6803H71.5479L68.7774 13.7347C68.0068 12.3504 67.1575 10.7041 66.5308 9.20068L66.4657 9.20754C66.5548 10.9082 66.5924 12.7245 66.5924 14.8231V18.6837H63.9109V18.6803Z" fill="#34383C"/>
<path d="M91.9422 13.7687C91.8806 12.2143 91.8222 10.3606 91.8288 8.47958H91.7779C91.3669 10.1224 90.822 11.949 90.3354 13.4626L88.7532 18.4694H86.4831L85.0891 13.5068C84.6716 11.9966 84.2433 10.17 83.9211 8.47958H83.8801C83.8151 10.2245 83.7436 12.2075 83.668 13.8061L83.428 18.6769H80.7227L81.5515 5.84014H85.4491L86.7091 10.1292C87.1168 11.602 87.517 13.2143 87.8047 14.7177H87.8664C88.219 13.2313 88.6579 11.5374 89.0959 10.1088L90.4694 5.83673H94.2913L94.9866 18.6735H92.1436L91.9422 13.7687Z" fill="#34383C"/>
<path d="M102.479 18.6803L102.308 17.7551H102.247C101.633 18.4966 100.678 18.8912 99.5655 18.8912C97.6546 18.8912 96.531 17.5272 96.531 16.0374C96.531 13.6088 98.719 12.4558 102.038 12.4626V12.3435C102.038 11.847 101.771 11.1395 100.318 11.1429C99.3633 11.1429 98.3565 11.466 97.7326 11.8402L97.1951 9.98639C97.8494 9.6157 99.1266 9.14966 100.843 9.14966C103.969 9.14966 104.956 10.983 104.956 13.1735V16.4252C104.956 17.3129 105.003 18.1599 105.106 18.6837H102.479V18.6803ZM102.123 14.2721C100.589 14.2653 99.4011 14.6327 99.4011 15.7415C99.4011 16.4932 99.8943 16.8572 100.558 16.8572C101.271 16.8572 101.877 16.3844 102.068 15.7857C102.113 15.6361 102.123 15.4558 102.123 15.2892V14.2721Z" fill="#34383C"/>
<path d="M107.263 12.3368C107.263 11.1769 107.226 10.1939 107.188 9.35717H109.719L109.852 10.6497H109.914C110.295 10.0476 111.246 9.14966 112.815 9.14966C114.733 9.14966 116.175 10.4184 116.175 13.1633V18.6803H113.254V13.5137C113.254 12.3129 112.822 11.4898 111.771 11.4898C110.969 11.4898 110.493 12.0476 110.29 12.5851C110.216 12.7653 110.189 13.0408 110.189 13.3027V18.6803H107.267V12.3368H107.263Z" fill="#34383C"/>
<path d="M123.843 18.6803L123.672 17.7551H123.61C122.997 18.4966 122.041 18.8912 120.928 18.8912C119.017 18.8912 117.894 17.5272 117.894 16.0374C117.894 13.6088 120.082 12.4558 123.4 12.4626V12.3435C123.4 11.847 123.133 11.1395 121.682 11.1429C120.726 11.1429 119.719 11.466 119.096 11.8402L118.558 9.98639C119.213 9.6157 120.49 9.14966 122.205 9.14966C125.332 9.14966 126.319 10.983 126.319 13.1735V16.4252C126.319 17.3129 126.367 18.1599 126.469 18.6837H123.843V18.6803ZM123.49 14.2721C121.955 14.2653 120.767 14.6327 120.767 15.7415C120.767 16.4932 121.26 16.8572 121.925 16.8572C122.637 16.8572 123.243 16.3844 123.435 15.7857C123.479 15.6361 123.49 15.4558 123.49 15.2892V14.2721Z" fill="#34383C"/>
<path d="M137.589 9.35716C137.545 9.9592 137.51 10.7483 137.51 12.1361V17.3231C137.51 19.1123 137.147 20.5817 136.083 21.5137C135.055 22.398 133.658 22.6599 132.278 22.6599C131.038 22.6599 129.743 22.4082 128.904 21.9456L129.483 19.7483C130.072 20.0851 131.103 20.4456 132.202 20.4456C133.582 20.4456 134.637 19.7143 134.637 17.9898V17.3912H134.6C134.048 18.1565 133.147 18.5953 132.065 18.5953C129.75 18.5953 128.096 16.7245 128.096 14.0578C128.096 11.051 130.045 9.1463 132.349 9.1463C133.641 9.1463 134.445 9.7041 134.921 10.4694H134.959L135.058 9.35373H137.589V9.35716ZM134.592 13.1565C134.592 12.9694 134.575 12.779 134.534 12.6225C134.333 11.8572 133.778 11.3402 132.966 11.3402C131.904 11.3402 131.058 12.3027 131.058 13.9932C131.058 15.381 131.75 16.4694 132.963 16.4694C133.716 16.4694 134.319 15.9762 134.51 15.2994C134.575 15.0782 134.592 14.7721 134.592 14.5306V13.1565Z" fill="#34383C"/>
<path d="M142.096 14.9524C142.182 16.1565 143.38 16.7279 144.74 16.7279C145.726 16.7279 146.534 16.5953 147.322 16.3333L147.716 18.2925C146.744 18.6871 145.572 18.881 144.315 18.881C141.134 18.881 139.309 17.0408 139.309 14.1361C139.309 11.7688 140.795 9.1463 144.038 9.1463C147.079 9.1463 148.23 11.4932 148.23 13.8027C148.23 14.3061 148.175 14.7347 148.127 14.949H142.096V14.9524ZM145.521 12.966C145.524 12.2688 145.212 11.0749 143.883 11.0749C142.651 11.0749 142.151 12.1939 142.072 12.966H145.521Z" fill="#34383C"/>
<path d="M149.973 12.432C149.973 11.0647 149.949 10.1633 149.897 9.35716H152.404L152.51 11.0816H152.582C153.065 9.71773 154.206 9.1463 155.116 9.1463C155.387 9.1463 155.524 9.15308 155.739 9.20067V11.9252C155.513 11.8776 155.277 11.8435 154.952 11.8435C153.88 11.8435 153.147 12.4082 152.952 13.3163C152.914 13.5 152.897 13.7279 152.897 13.9626V18.6803H149.976V12.432H149.973Z" fill="#34383C"/>
<path d="M49.2449 27.5201C49.2449 28.1924 49.0952 28.7265 48.7955 29.1224C48.4958 29.5157 48.0932 29.7124 47.5874 29.7124C46.9828 29.7124 46.5253 29.4891 46.2149 29.0427L46.1949 29.6326H45.7454V23.5102H46.223V25.9456C46.528 25.4753 46.9801 25.2401 47.5795 25.2401C48.0932 25.2401 48.4985 25.4354 48.7955 25.826C49.0952 26.214 49.2449 26.7548 49.2449 27.4483V27.5201ZM48.7634 27.4364C48.7634 26.8677 48.6523 26.4292 48.4302 26.121C48.2082 25.8101 47.8952 25.6547 47.4912 25.6547C47.1835 25.6547 46.9226 25.7304 46.7086 25.8819C46.4945 26.0307 46.3327 26.2499 46.223 26.5395V28.4847C46.4638 29.0268 46.8891 29.2978 47.4992 29.2978C47.8952 29.2978 48.2042 29.1424 48.4263 28.8315C48.651 28.5206 48.7634 28.0555 48.7634 27.4364ZM52.8905 25.7264C52.7888 25.7078 52.6805 25.6985 52.5654 25.6985C52.2657 25.6985 52.0116 25.7822 51.8029 25.9496C51.5968 26.1144 51.4497 26.3548 51.3614 26.6711V29.6326H50.8838V25.3198H51.3534L51.3614 26.0054C51.6156 25.4952 52.0236 25.2401 52.5854 25.2401C52.7193 25.2401 52.8249 25.2574 52.9025 25.2919L52.8905 25.7264ZM53.8832 27.4125C53.8832 26.9979 53.9635 26.6246 54.124 26.2924C54.2871 25.9602 54.516 25.7024 54.8102 25.5191C55.1073 25.3331 55.443 25.2401 55.8176 25.2401C56.3955 25.2401 56.8637 25.442 57.2222 25.8459C57.5807 26.2473 57.76 26.78 57.76 27.4443V27.544C57.76 27.9612 57.6784 28.3372 57.5152 28.672C57.3546 29.0042 57.1273 29.2606 56.833 29.4413C56.5386 29.622 56.2029 29.7124 55.8256 29.7124C55.2503 29.7124 54.7822 29.5117 54.4209 29.1105C54.0624 28.7066 53.8832 28.1725 53.8832 27.5082V27.4125ZM54.3648 27.544C54.3648 28.0595 54.4985 28.4833 54.7661 28.8155C55.0363 29.145 55.3895 29.3098 55.8256 29.3098C56.259 29.3098 56.6096 29.145 56.8771 28.8155C57.1473 28.4833 57.2825 28.0462 57.2825 27.5042V27.4125C57.2825 27.0829 57.2209 26.7814 57.0978 26.5077C56.9747 26.2339 56.8021 26.0227 56.5801 25.8739C56.358 25.7224 56.1038 25.6467 55.8176 25.6467C55.3895 25.6467 55.0404 25.8141 54.7701 26.1489C54.4999 26.4811 54.3648 26.9169 54.3648 27.4563V27.544ZM60.3701 28.6402L60.4423 29.0108L60.5386 28.6202L61.5821 25.3198H61.9915L63.0228 28.5923L63.1353 29.0467L63.2276 28.6282L64.1184 25.3198H64.6161L63.3519 29.6326H62.9426L61.8269 26.2126L61.7747 25.9775L61.7225 26.2166L60.6269 29.6326H60.2175L58.9574 25.3198H59.451L60.3701 28.6402ZM68.7031 28.5365C68.7031 28.3 68.6068 28.11 68.4141 27.9665C68.2242 27.823 67.9366 27.7114 67.5513 27.6317C67.166 27.5493 66.8663 27.4563 66.6523 27.3526C66.4409 27.2464 66.283 27.1175 66.1787 26.966C66.0771 26.8146 66.0262 26.6312 66.0262 26.416C66.0262 26.0758 66.1694 25.7955 66.4556 25.5749C66.7419 25.3517 67.1085 25.2401 67.5553 25.2401C68.0396 25.2401 68.4275 25.3597 68.7191 25.5988C69.0134 25.8353 69.1606 26.1449 69.1606 26.5276H68.679C68.679 26.2751 68.572 26.0652 68.358 25.8978C68.1466 25.7304 67.879 25.6467 67.5553 25.6467C67.2396 25.6467 66.9854 25.7171 66.7928 25.8579C66.6028 25.9961 66.5078 26.1768 66.5078 26.4C66.5078 26.6153 66.5867 26.7827 66.7446 26.9023C66.9051 27.0192 67.1954 27.1268 67.6154 27.2251C68.0382 27.3234 68.3539 27.4284 68.5626 27.54C68.7739 27.6516 68.9305 27.7858 69.0322 27.9426C69.1339 28.0993 69.1846 28.2894 69.1846 28.5126C69.1846 28.8766 69.0361 29.1676 68.7392 29.3855C68.4448 29.6034 68.0596 29.7124 67.5834 29.7124C67.0777 29.7124 66.667 29.5914 66.3513 29.3496C66.0383 29.1051 65.8818 28.7969 65.8818 28.4249H66.3633C66.3821 28.7039 66.4998 28.9218 66.7165 29.0786C66.9359 29.2327 67.2249 29.3098 67.5834 29.3098C67.9178 29.3098 68.188 29.2367 68.394 29.0905C68.6 28.9444 68.7031 28.7597 68.7031 28.5365ZM72.5252 29.7124C72.1559 29.7124 71.8214 29.622 71.5219 29.4413C71.2248 29.2606 70.9934 29.0095 70.8275 28.688C70.6616 28.3637 70.5787 28.001 70.5787 27.5998V27.4284C70.5787 27.0139 70.659 26.6405 70.8195 26.3083C70.9827 25.9762 71.2088 25.7157 71.4978 25.5271C71.7867 25.3357 72.0997 25.2401 72.4368 25.2401C72.9639 25.2401 73.3813 25.4195 73.689 25.7782C73.9994 26.1343 74.1545 26.6219 74.1545 27.2411V27.5082H71.0563V27.5998C71.0563 28.0887 71.1968 28.4966 71.4777 28.8235C71.7613 29.1477 72.1171 29.3098 72.5452 29.3098C72.8021 29.3098 73.0281 29.2633 73.2235 29.1703C73.4215 29.0773 73.6007 28.9285 73.7613 28.7238L74.0622 28.951C73.7091 29.4586 73.1967 29.7124 72.5252 29.7124ZM72.4368 25.6467C72.0757 25.6467 71.7707 25.7782 71.5219 26.0413C71.2757 26.3044 71.1259 26.6578 71.0724 27.1015H73.6769V27.0497C73.6636 26.6352 73.5445 26.2977 73.3198 26.0373C73.095 25.7769 72.8008 25.6467 72.4368 25.6467ZM78.9854 24.2157V25.3198H79.8844V25.7104H78.9854V28.5843C78.9854 28.8235 79.0282 29.0015 79.1138 29.1184C79.2021 29.2353 79.3479 29.2939 79.5513 29.2939C79.6316 29.2939 79.7613 29.2806 79.9405 29.2539L79.9607 29.6446C79.8349 29.6898 79.6636 29.7124 79.447 29.7124C79.1179 29.7124 78.8783 29.618 78.7285 29.4294C78.5787 29.238 78.5038 28.9577 78.5038 28.5883V25.7104H77.7051V25.3198H78.5038V24.2157H78.9854ZM81.9326 26.0493C82.0904 25.7915 82.2921 25.5922 82.5387 25.4513C82.7844 25.3105 83.054 25.2401 83.345 25.2401C83.811 25.2401 84.157 25.3703 84.3847 25.6308C84.6124 25.8912 84.7274 26.2818 84.7299 26.8026V29.6326H84.2524V26.7986C84.2499 26.4133 84.1669 26.1264 84.0033 25.9376C83.8431 25.749 83.585 25.6547 83.2291 25.6547C82.9316 25.6547 82.6685 25.7477 82.4384 25.9337C82.2107 26.117 82.0422 26.3655 81.9326 26.679V29.6326H81.455V23.5102H81.9326V26.0493ZM88.2231 29.7124C87.8532 29.7124 87.5195 29.622 87.2195 29.4413C86.9228 29.2606 86.691 29.0095 86.525 28.688C86.359 28.3637 86.2768 28.001 86.2768 27.5998V27.4284C86.2768 27.0139 86.3565 26.6405 86.5168 26.3083C86.6803 25.9762 86.9064 25.7157 87.1957 25.5271C87.4842 25.3357 87.7973 25.2401 88.1343 25.2401C88.662 25.2401 89.0787 25.4195 89.3869 25.7782C89.6968 26.1343 89.8521 26.6219 89.8521 27.2411V27.5082H86.7543V27.5998C86.7543 28.0887 86.894 28.4966 87.1751 28.8235C87.4587 29.1477 87.8146 29.3098 88.2428 29.3098C88.5 29.3098 88.7261 29.2633 88.9209 29.1703C89.119 29.0773 89.2981 28.9285 89.4592 28.7238L89.76 28.951C89.4066 29.4586 88.8946 29.7124 88.2231 29.7124ZM88.1343 25.6467C87.7735 25.6467 87.4685 25.7782 87.2195 26.0413C86.9738 26.3044 86.8233 26.6578 86.7699 27.1015H89.3746V27.0497C89.3614 26.6352 89.2422 26.2977 89.017 26.0373C88.7927 25.7769 88.4984 25.6467 88.1343 25.6467ZM94.9759 28.6402L95.0483 29.0108L95.1444 28.6202L96.1883 25.3198H96.5976L97.6291 28.5923L97.7409 29.0467L97.8338 28.6282L98.7247 25.3198H99.222L97.9579 29.6326H97.5485L96.4332 26.2126L96.3806 25.9775L96.3288 26.2166L95.2332 29.6326H94.8239L93.5631 25.3198H94.057L94.9759 28.6402ZM100.443 27.4125C100.443 26.9979 100.524 26.6246 100.684 26.2924C100.848 25.9602 101.076 25.7024 101.37 25.5191C101.668 25.3331 102.003 25.2401 102.378 25.2401C102.956 25.2401 103.424 25.442 103.783 25.8459C104.141 26.2473 104.32 26.78 104.32 27.4443V27.544C104.32 27.9612 104.239 28.3372 104.075 28.672C103.915 29.0042 103.687 29.2606 103.393 29.4413C103.099 29.622 102.764 29.7124 102.386 29.7124C101.811 29.7124 101.343 29.5117 100.982 29.1105C100.623 28.7066 100.443 28.1725 100.443 27.5082V27.4125ZM100.925 27.544C100.925 28.0595 101.059 28.4833 101.326 28.8155C101.596 29.145 101.95 29.3098 102.386 29.3098C102.819 29.3098 103.17 29.145 103.438 28.8155C103.708 28.4833 103.843 28.0462 103.843 27.5042V27.4125C103.843 27.0829 103.781 26.7814 103.658 26.5077C103.535 26.2339 103.363 26.0227 103.141 25.8739C102.918 25.7224 102.664 25.6467 102.378 25.6467C101.95 25.6467 101.601 25.8141 101.33 26.1489C101.061 26.4811 100.925 26.9169 100.925 27.4563V27.544ZM107.897 25.7264C107.796 25.7078 107.688 25.6985 107.573 25.6985C107.273 25.6985 107.019 25.7822 106.81 25.9496C106.604 26.1144 106.456 26.3548 106.369 26.6711V29.6326H105.891V25.3198H106.36L106.369 26.0054C106.623 25.4952 107.031 25.2401 107.592 25.2401C107.726 25.2401 107.832 25.2574 107.91 25.2919L107.897 25.7264ZM109.773 29.6326H109.291V23.5102H109.773V29.6326ZM111.464 27.4364C111.464 26.7668 111.614 26.2339 111.914 25.838C112.216 25.4394 112.626 25.2401 113.142 25.2401C113.728 25.2401 114.174 25.4699 114.483 25.9297V23.5102H114.96V29.6326H114.51L114.49 29.0587C114.183 29.4944 113.73 29.7124 113.134 29.7124C112.633 29.7124 112.23 29.5131 111.921 29.1144C111.616 28.7132 111.464 28.1725 111.464 27.4922V27.4364ZM111.95 27.5201C111.95 28.0701 112.061 28.5046 112.283 28.8235C112.505 29.1397 112.818 29.2978 113.223 29.2978C113.813 29.2978 114.233 29.0388 114.483 28.5206V26.4957C114.233 25.935 113.816 25.6547 113.23 25.6547C112.826 25.6547 112.512 25.8127 112.287 26.129C112.062 26.4425 111.95 26.9063 111.95 27.5201ZM121.974 28.5365C121.974 28.3 121.877 28.11 121.685 27.9665C121.495 27.823 121.207 27.7114 120.822 27.6317C120.436 27.5493 120.137 27.4563 119.923 27.3526C119.712 27.2464 119.554 27.1175 119.449 26.966C119.348 26.8146 119.297 26.6312 119.297 26.416C119.297 26.0758 119.44 25.7955 119.726 25.5749C120.012 25.3517 120.379 25.2401 120.826 25.2401C121.31 25.2401 121.698 25.3597 121.99 25.5988C122.284 25.8353 122.431 26.1449 122.431 26.5276H121.95C121.95 26.2751 121.843 26.0652 121.629 25.8978C121.417 25.7304 121.15 25.6467 120.826 25.6467C120.51 25.6467 120.256 25.7171 120.063 25.8579C119.873 25.9961 119.779 26.1768 119.779 26.4C119.779 26.6153 119.858 26.7827 120.016 26.9023C120.176 27.0192 120.466 27.1268 120.886 27.2251C121.309 27.3234 121.625 27.4284 121.834 27.54C122.045 27.6516 122.201 27.7858 122.303 27.9426C122.405 28.0993 122.456 28.2894 122.456 28.5126C122.456 28.8766 122.307 29.1676 122.01 29.3855C121.715 29.6034 121.331 29.7124 120.854 29.7124C120.349 29.7124 119.938 29.5914 119.622 29.3496C119.309 29.1051 119.153 28.7969 119.153 28.4249H119.634C119.653 28.7039 119.771 28.9218 119.988 29.0786C120.206 29.2327 120.496 29.3098 120.854 29.3098C121.189 29.3098 121.459 29.2367 121.665 29.0905C121.871 28.9444 121.974 28.7597 121.974 28.5365ZM125.796 29.7124C125.427 29.7124 125.093 29.622 124.793 29.4413C124.496 29.2606 124.264 29.0095 124.098 28.688C123.933 28.3637 123.85 28.001 123.85 27.5998V27.4284C123.85 27.0139 123.93 26.6405 124.091 26.3083C124.253 25.9762 124.48 25.7157 124.769 25.5271C125.057 25.3357 125.37 25.2401 125.707 25.2401C126.235 25.2401 126.652 25.4195 126.96 25.7782C127.27 26.1343 127.425 26.6219 127.425 27.2411V27.5082H124.327V27.5998C124.327 28.0887 124.468 28.4966 124.748 28.8235C125.032 29.1477 125.388 29.3098 125.816 29.3098C126.073 29.3098 126.299 29.2633 126.494 29.1703C126.692 29.0773 126.871 28.9285 127.032 28.7238L127.333 28.951C126.98 29.4586 126.468 29.7124 125.796 29.7124ZM125.707 25.6467C125.347 25.6467 125.042 25.7782 124.793 26.0413C124.547 26.3044 124.396 26.6578 124.343 27.1015H126.948V27.0497C126.935 26.6352 126.815 26.2977 126.591 26.0373C126.366 25.7769 126.072 25.6467 125.707 25.6467ZM130.541 29.3098C130.876 29.3098 131.155 29.2168 131.38 29.0308C131.607 28.8421 131.73 28.5989 131.749 28.3013H132.21C132.197 28.5644 132.114 28.8049 131.962 29.0228C131.809 29.238 131.606 29.4068 131.352 29.529C131.1 29.6513 130.83 29.7124 130.541 29.7124C129.972 29.7124 129.52 29.5157 129.185 29.1224C128.853 28.7291 128.687 28.2003 128.687 27.536V27.3926C128.687 26.9673 128.762 26.5913 128.912 26.2645C129.062 25.9376 129.275 25.6852 129.554 25.5072C129.835 25.3291 130.162 25.2401 130.537 25.2401C131.014 25.2401 131.405 25.381 131.713 25.6626C132.023 25.9443 132.189 26.315 132.21 26.7747H131.749C131.728 26.4372 131.605 26.1649 131.38 25.9575C131.158 25.7503 130.877 25.6467 130.537 25.6467C130.104 25.6467 129.767 25.8021 129.526 26.1131C129.288 26.4239 129.169 26.8597 129.169 27.4204V27.5599C129.169 28.11 129.288 28.5392 129.526 28.8474C129.767 29.1557 130.105 29.3098 130.541 29.3098ZM136.543 29.0866C136.253 29.5037 135.792 29.7124 135.158 29.7124C134.695 29.7124 134.343 29.5795 134.103 29.3138C133.862 29.0454 133.738 28.6495 133.733 28.1259V25.3198H134.211V28.0662C134.211 28.8873 134.546 29.2978 135.214 29.2978C135.91 29.2978 136.35 29.0122 136.535 28.4408V25.3198H137.016V29.6326H136.55L136.543 29.0866ZM140.85 25.7264C140.749 25.7078 140.64 25.6985 140.525 25.6985C140.225 25.6985 139.971 25.7822 139.762 25.9496C139.557 26.1144 139.41 26.3548 139.321 26.6711V29.6326H138.843V25.3198H139.313L139.321 26.0054C139.575 25.4952 139.983 25.2401 140.545 25.2401C140.679 25.2401 140.785 25.2574 140.862 25.2919L140.85 25.7264ZM143.79 29.7124C143.42 29.7124 143.085 29.622 142.786 29.4413C142.489 29.2606 142.258 29.0095 142.092 28.688C141.926 28.3637 141.843 28.001 141.843 27.5998V27.4284C141.843 27.0139 141.923 26.6405 142.083 26.3083C142.247 25.9762 142.473 25.7157 142.762 25.5271C143.051 25.3357 143.364 25.2401 143.701 25.2401C144.228 25.2401 144.645 25.4195 144.953 25.7782C145.263 26.1343 145.419 26.6219 145.419 27.2411V27.5082H142.32V27.5998C142.32 28.0887 142.461 28.4966 142.742 28.8235C143.025 29.1477 143.381 29.3098 143.809 29.3098C144.066 29.3098 144.293 29.2633 144.487 29.1703C144.686 29.0773 144.865 28.9285 145.025 28.7238L145.327 28.951C144.973 29.4586 144.461 29.7124 143.79 29.7124ZM143.701 25.6467C143.34 25.6467 143.035 25.7782 142.786 26.0413C142.54 26.3044 142.39 26.6578 142.336 27.1015H144.941V27.0497C144.928 26.6352 144.809 26.2977 144.584 26.0373C144.359 25.7769 144.065 25.6467 143.701 25.6467ZM147.467 29.6326H146.985V23.5102H147.467V29.6326ZM150.727 28.9471L151.996 25.3198H152.513L150.659 30.366L150.562 30.5893C150.325 31.1128 149.956 31.3745 149.459 31.3745C149.344 31.3745 149.221 31.3559 149.089 31.3187L149.086 30.9241L149.334 30.948C149.57 30.948 149.76 30.8895 149.905 30.7726C150.052 30.6584 150.176 30.4604 150.278 30.1787L150.49 29.5968L148.853 25.3198H149.379L150.727 28.9471Z" fill="#8C8C8C"/>
</svg>
