<svg width="21" height="21" viewBox="0 0 21 21" fill="none" xmlns="http://www.w3.org/2000/svg">
<path d="M20.995 1.37777C20.9963 1.36997 20.9987 1.36217 20.9993 1.35437C21.0009 1.33005 20.9998 1.30564 20.996 1.28155C20.9953 1.27537 20.9963 1.26952 20.9953 1.26334C20.9892 1.23055 20.978 1.19887 20.962 1.1694C20.9594 1.16419 20.9557 1.15932 20.9527 1.15412C20.952 1.15347 20.952 1.15249 20.9517 1.15152C20.9514 1.15087 20.9504 1.15054 20.95 1.14957L20.9434 1.13884C20.9232 1.11019 20.8983 1.08493 20.8698 1.06407C20.8635 1.05952 20.8561 1.05692 20.8495 1.05269C20.8252 1.03666 20.7987 1.02397 20.7709 1.01498C20.7586 1.01108 20.7463 1.00913 20.7336 1.00686C20.6964 0.999135 20.658 0.997924 20.6204 1.00328C20.6117 1.00458 20.6034 1.00328 20.5947 1.00523L1.26589 4.9049C1.19868 4.9184 1.13738 4.95183 1.09038 5.00064C1.04338 5.04944 1.01297 5.11123 1.00332 5.17755C0.993657 5.24387 1.00522 5.31149 1.03643 5.37115C1.06763 5.4308 1.11695 5.4796 1.17765 5.51085L6.71597 8.36278L7.68731 13.6249C7.68664 13.6288 7.68764 13.633 7.68731 13.6369C7.68192 13.6753 7.68407 13.7143 7.69363 13.752C7.70129 13.7828 7.71361 13.8118 7.73026 13.8391C7.73359 13.8443 7.73359 13.8505 7.73726 13.8557C7.73826 13.8573 7.73992 13.8586 7.74125 13.8599C7.74558 13.8661 7.75157 13.8709 7.75657 13.8771C7.77222 13.896 7.78854 13.9132 7.80718 13.9278C7.81018 13.9301 7.81218 13.9337 7.81551 13.936C7.8205 13.9395 7.82616 13.9405 7.83116 13.9438C7.85147 13.9568 7.87245 13.9675 7.89476 13.9759C7.90375 13.9792 7.91208 13.9831 7.9214 13.9857C7.95137 13.9941 7.98234 14 8.01364 14H8.01464L8.01863 13.9994C8.06598 14.0012 8.11317 13.993 8.157 13.9754C8.20084 13.9579 8.2403 13.9313 8.27271 13.8976L11.9619 11.4966L15.8246 13.9477C15.8666 13.9741 15.9141 13.9911 15.9637 13.9972C16.0132 14.0034 16.0636 13.9987 16.111 13.9834C16.1585 13.968 16.2018 13.9424 16.2377 13.9084C16.2736 13.8744 16.3012 13.8329 16.3185 13.7871L20.979 1.43759C20.9834 1.42644 20.987 1.41504 20.99 1.40345C20.9913 1.39858 20.9917 1.3937 20.9927 1.38915L20.995 1.37777ZM17.1383 3.45276L9.14881 9.18751C9.13582 9.19694 9.1255 9.20864 9.11418 9.21969C9.10985 9.22359 9.10552 9.22684 9.10186 9.23107C9.09495 9.23847 9.0884 9.24617 9.08221 9.25415C9.07622 9.26195 9.07155 9.27008 9.06623 9.2782C9.05391 9.29771 9.04358 9.31787 9.03559 9.33932C9.03393 9.34355 9.03126 9.3468 9.02993 9.35102C9.0296 9.35232 9.02827 9.35297 9.02793 9.35427L8.1122 12.2595L7.38662 8.32897L17.1383 3.45276ZM8.62834 12.885L9.53608 9.95795L10.9493 10.8548L11.3535 11.1113L9.98029 12.005L8.62834 12.885ZM18.3304 2.12611L7.01766 7.78283L2.30915 5.35838L18.3304 2.12611ZM15.838 13.1808L10.7082 9.92609L9.93134 9.43294L19.9724 2.22526L15.838 13.1808Z" fill="white"/>
</svg>
