<svg width="10" height="10" viewBox="0 0 10 10" fill="none" xmlns="http://www.w3.org/2000/svg">
<g clip-path="url(#clip0)">
<path d="M0.511861 3.95123L1.21376 3.83216C1.28687 3.59611 1.38088 3.36841 1.49577 3.15116L1.08215 2.57251C0.906678 2.32601 0.933834 1.98968 1.149 1.77661L1.77151 1.15409C1.8885 1.03711 2.04308 0.972352 2.20811 0.972352C2.33763 0.972352 2.46088 1.01204 2.56533 1.08725L3.14606 1.50086C3.37167 1.38179 3.60773 1.28361 3.85214 1.2105L3.96912 0.516955C3.9931 0.372587 4.0676 0.24144 4.17934 0.146926C4.29107 0.0524121 4.43276 0.000684546 4.5791 0.000977803H5.45856C5.76146 0.000977803 6.01841 0.218231 6.06854 0.516955L6.1897 1.22721C6.42367 1.30032 6.65137 1.39641 6.86862 1.5134L7.44309 1.09978C7.54754 1.02458 7.67288 0.984886 7.80239 0.984886C7.96742 0.984886 8.1241 1.04964 8.23899 1.16663L8.86359 1.78914C9.07667 2.00222 9.10592 2.33854 8.93044 2.58504L8.51265 3.17205C8.62754 3.39139 8.71946 3.61909 8.79048 3.85514L9.48402 3.97212C9.62839 3.9961 9.75954 4.07061 9.85405 4.18234C9.94856 4.29407 10.0003 4.43576 10 4.58211V5.46157C10 5.76447 9.78275 6.02141 9.48402 6.07155L8.77377 6.19271C8.70065 6.42667 8.60456 6.65437 8.48758 6.87163L8.89911 7.44401C9.07458 7.6905 9.04742 8.02683 8.83226 8.23991L8.20974 8.86242C8.09276 8.9794 7.93818 9.04416 7.77315 9.04416C7.64363 9.04416 7.52038 9.00447 7.41593 8.92927L6.82893 8.51147C6.61794 8.62219 6.39651 8.71202 6.16881 8.78304L6.05183 9.48494C6.02785 9.6293 5.95335 9.76045 5.84161 9.85497C5.72988 9.94948 5.58819 10.0012 5.44185 10.0009H4.5603C4.2574 10.0009 4.00045 9.78366 3.95032 9.48494L3.83125 8.78304C3.59519 8.70993 3.36749 8.61592 3.15024 8.50103L2.57159 8.91465C2.46714 8.98985 2.34181 9.02954 2.21229 9.02954C2.04726 9.02954 1.89268 8.96478 1.77569 8.8478L1.15318 8.22528C0.940102 8.01221 0.910855 7.67588 1.08633 7.42938L1.49995 6.84865C1.38505 6.6293 1.28896 6.40161 1.21794 6.16764L0.516039 6.05066C0.371671 6.02668 0.240523 5.95217 0.146009 5.84044C0.0514956 5.72871 -0.000232697 5.58702 6.10352e-05 5.44068V4.56122C-0.00411701 4.25831 0.213137 4.00137 0.511861 3.95123ZM0.559908 5.44068C0.559908 5.46783 0.578708 5.49081 0.605865 5.49499L1.48324 5.64122C1.59395 5.66002 1.68169 5.74149 1.70885 5.84803C1.78823 6.15511 1.90939 6.44965 2.07233 6.72331C2.12873 6.8194 2.12455 6.93847 2.05979 7.03039L1.54382 7.75735C1.52919 7.77824 1.53128 7.80958 1.55008 7.82838L2.1726 8.45089C2.18722 8.46552 2.20184 8.4676 2.21229 8.4676C2.22482 8.4676 2.23527 8.46343 2.24362 8.45716L2.9685 7.94118C3.05832 7.87642 3.17949 7.87225 3.27558 7.92865C3.54923 8.09159 3.84378 8.21275 4.15086 8.29213C4.25949 8.31929 4.34096 8.40911 4.35767 8.51774L4.50599 9.39511C4.51016 9.42227 4.53314 9.44107 4.5603 9.44107H5.43976C5.46692 9.44107 5.4899 9.42227 5.49407 9.39511L5.6403 8.51774C5.6591 8.40702 5.74057 8.31929 5.84711 8.29213C6.14583 8.21484 6.43411 8.09577 6.70359 7.94118C6.74746 7.91611 6.7976 7.90358 6.84564 7.90358C6.90204 7.90358 6.96054 7.92029 7.00858 7.9558L7.73972 8.47596C7.75017 8.48223 7.76061 8.48641 7.77106 8.48641C7.77942 8.48641 7.79613 8.48432 7.81075 8.46969L8.43327 7.84718C8.45207 7.82838 8.45416 7.79913 8.43953 7.77615L7.92564 7.05546C7.86089 6.96354 7.85671 6.84238 7.91311 6.74629C8.07605 6.47472 8.20139 6.18017 8.28077 5.87309C8.31002 5.76656 8.39775 5.68509 8.50638 5.66629L9.39002 5.51588C9.41717 5.5117 9.43597 5.48872 9.43597 5.46157V4.58211C9.43597 4.55495 9.41717 4.53197 9.39002 4.52779L8.51891 4.38156C8.4082 4.36276 8.31837 4.28129 8.29121 4.17267C8.21392 3.86559 8.09485 3.56895 7.934 3.2953C7.8776 3.1992 7.88386 3.08013 7.94862 2.9903L8.46878 2.25916C8.4834 2.23827 8.48131 2.20694 8.46251 2.18814L7.84 1.56562C7.82537 1.551 7.81075 1.54891 7.8003 1.54891C7.78777 1.54891 7.77733 1.55309 7.76897 1.55936L7.04827 2.07324C6.95636 2.138 6.8352 2.14218 6.7391 2.08578C6.46754 1.92284 6.17299 1.7975 5.86591 1.71812C5.75937 1.68887 5.6779 1.60113 5.6591 1.49251L5.5087 0.60887C5.50452 0.581714 5.48154 0.562913 5.45438 0.562913H4.57492C4.54777 0.562913 4.52479 0.581714 4.52061 0.60887L4.37438 1.47997C4.35558 1.59069 4.27411 1.68052 4.16548 1.70767C3.85005 1.78705 3.54923 1.9103 3.26931 2.07533C3.17322 2.13174 3.05415 2.12756 2.96223 2.0628L2.24153 1.54473C2.23109 1.53847 2.22064 1.53429 2.2102 1.53429C2.20184 1.53429 2.18513 1.53638 2.17051 1.551L1.54799 2.17351C1.52919 2.19232 1.5271 2.22156 1.54173 2.24454L2.0577 2.96941C2.12246 3.05924 2.12664 3.1804 2.07024 3.27649C1.9073 3.55015 1.78614 3.8447 1.70676 4.15178C1.6796 4.2604 1.58977 4.34187 1.48115 4.35859L0.603776 4.5069C0.576619 4.51108 0.557818 4.53406 0.557818 4.56122V5.44068H0.559908Z" fill="black"/>
<path d="M4.99882 2.84106C6.18954 2.84106 7.15674 3.80826 7.15674 4.99898C7.15674 6.1897 6.18954 7.15689 4.99882 7.15689C3.80811 7.15689 2.84091 6.1897 2.84091 4.99898C2.84091 3.80826 3.80811 2.84106 4.99882 2.84106ZM4.99882 6.59287C5.87828 6.59287 6.59271 5.87844 6.59271 4.99898C6.59271 4.11952 5.87828 3.40509 4.99882 3.40509C4.11936 3.40509 3.40493 4.11952 3.40493 4.99898C3.40493 5.87844 4.11936 6.59287 4.99882 6.59287Z" fill="black"/>
</g>
<defs>
<clipPath id="clip0">
<rect width="10" height="10" fill="white" transform="matrix(-1 0 0 1 10 0)"/>
</clipPath>
</defs>
</svg>
