<svg width="10" height="10" viewBox="0 0 10 10" fill="none" xmlns="http://www.w3.org/2000/svg">
<g clip-path="url(#clip0)">
<path d="M8.12502 6.87612H7.49999C6.80968 6.87612 6.24996 6.3164 6.24996 5.62606V5.2245C6.5265 4.89582 6.72485 4.50704 6.84813 4.09623C6.86093 4.02698 6.92758 3.99277 6.97204 3.94516C7.21134 3.7059 7.25839 3.30214 7.0789 3.01466C7.05446 2.97103 7.01043 2.93319 7.01293 2.87913C7.01293 2.51261 7.01476 2.14551 7.01245 1.77928C7.00264 1.3371 6.87627 0.87713 6.56626 0.549705C6.31597 0.285159 5.97231 0.12764 5.61776 0.060226C5.16973 -0.0252421 4.70101 -0.0209141 4.25726 0.0919648C3.87271 0.189016 3.51142 0.414238 3.28803 0.748093C3.09022 1.03834 3.00356 1.39076 2.98893 1.7381C2.98344 2.11101 2.98767 2.48485 2.98654 2.85866C2.99505 2.9335 2.93157 2.98413 2.9029 3.04609C2.73384 3.35278 2.80826 3.77062 3.07992 3.99368C3.14884 4.04124 3.16174 4.12795 3.1867 4.2027C3.30516 4.57196 3.50165 4.91346 3.75006 5.21103V5.62606C3.75006 6.3164 3.19036 6.87612 2.50007 6.87612H1.87502C1.87502 6.87612 0.742234 7.18852 0 8.75108V9.37611C0 9.72151 0.279548 10.001 0.625027 10.001H9.37508C9.72047 10.001 10 9.72151 10 9.37611V8.75108C9.25781 7.18864 8.12502 6.87612 8.12502 6.87612Z" fill="#34383C"/>
</g>
<defs>
<clipPath id="clip0">
<rect width="10" height="10" fill="white"/>
</clipPath>
</defs>
</svg>
