<svg width="15" height="15" viewBox="0 0 15 15" fill="none" xmlns="http://www.w3.org/2000/svg">
<path d="M14.2854 0.714299C13.3325 -0.2381 11.7825 -0.2381 10.8296 0.714299L1.039 10.5049C1.03439 10.5095 1.03167 10.5152 1.0276 10.5201C1.0219 10.5266 1.01701 10.5337 1.01186 10.5407C0.997582 10.5607 0.98616 10.5825 0.977919 10.6056C0.975475 10.6127 0.971946 10.6189 0.970045 10.626L0.966787 10.6341L0.00705882 14.6658C0.00319406 14.6838 0.00119259 14.7022 0.00108597 14.7206C0.00108597 14.7242 0 14.7274 0 14.731C0.00083003 14.7688 0.00961754 14.8061 0.0257919 14.8404C0.039095 14.8694 0.0556561 14.8974 0.0790045 14.9207C0.11185 14.9534 0.152454 14.9771 0.197001 14.9897C0.241549 15.0024 0.288576 15.0035 0.333665 14.9929L4.36534 14.0332C4.37267 14.0316 4.37919 14.0275 4.38624 14.0251C4.41574 14.0153 4.44331 14.0004 4.46769 13.9811C4.47421 13.9759 4.481 13.9721 4.48724 13.9664C4.48941 13.9643 4.49213 13.9632 4.4943 13.961L14.2852 4.17014C15.2381 3.21719 15.2381 1.66697 14.2854 0.714299ZM13.9015 1.09819C14.577 1.77394 14.6346 2.83493 14.078 3.57882L11.4209 0.921719C12.1651 0.365158 13.2261 0.422715 13.9015 1.09819ZM12.5576 5.12986L9.86986 2.44208L10.2538 2.05819L12.9415 4.74597L12.5576 5.12986ZM1.34688 13.6529C1.32169 13.6276 1.29177 13.6076 1.25883 13.5939C1.22589 13.5803 1.19059 13.5732 1.15493 13.5732C1.11928 13.5732 1.08397 13.5803 1.05103 13.5939C1.0181 13.6076 0.988178 13.6276 0.962986 13.6529L0.757466 13.8584L1.45086 10.9458L2.6514 10.8125L2.49692 12.2031C2.49584 12.2134 2.49964 12.2229 2.49964 12.2329C2.49964 12.2433 2.49584 12.2525 2.49692 12.2628C2.49801 12.2718 2.50262 12.2791 2.50452 12.2878C2.51488 12.3357 2.53784 12.3801 2.57104 12.4162C2.58407 12.43 2.59819 12.4417 2.61366 12.4526C2.62588 12.461 2.63756 12.4689 2.65113 12.4754C2.66905 12.4838 2.68778 12.4887 2.70733 12.4933C2.71765 12.4957 2.72606 12.5014 2.73665 12.5028C2.74648 12.5039 2.75636 12.5044 2.76624 12.5044H2.76733C2.77722 12.5044 2.7871 12.5039 2.79692 12.5028L4.18751 12.3483L4.05421 13.5489L1.14136 14.2423L1.34688 14.0367C1.39777 13.9858 1.42637 13.9168 1.42637 13.8448C1.42637 13.7728 1.39777 13.7038 1.34688 13.6529ZM4.75412 12.1653L10.8296 6.08959C10.8548 6.06439 10.8748 6.03446 10.8884 6.00153C10.9021 5.96859 10.9091 5.93329 10.9091 5.89765C10.9091 5.862 10.9021 5.8267 10.8884 5.79377C10.8748 5.76083 10.8548 5.73091 10.8296 5.7057C10.8044 5.6805 10.7745 5.6605 10.7415 5.64686C10.7086 5.63322 10.6733 5.62619 10.6376 5.62619C10.602 5.62619 10.5667 5.63322 10.5338 5.64686C10.5008 5.6605 10.4709 5.6805 10.4457 5.7057L4.37023 11.7814L3.07439 11.9253L3.21828 10.6295L9.2943 4.55403C9.3195 4.52882 9.3395 4.4989 9.35314 4.46596C9.36678 4.43303 9.3738 4.39773 9.3738 4.36208C9.3738 4.32643 9.36678 4.29114 9.35314 4.2582C9.3395 4.22527 9.3195 4.19534 9.2943 4.17014C9.26909 4.14493 9.23917 4.12493 9.20623 4.11129C9.1733 4.09765 9.138 4.09063 9.10235 4.09063C9.0667 4.09063 9.03141 4.09765 8.99847 4.11129C8.96554 4.12493 8.93561 4.14493 8.91041 4.17014L2.83439 10.2456L1.97023 10.3417L9.48597 2.82597L12.1738 5.51376L4.65801 13.0295L4.75412 12.1653ZM13.3254 4.36208L10.6376 1.6743L11.0218 1.29014L13.7096 3.97792L13.3254 4.36208Z" fill="#34383C"/>
</svg>
