<svg width="20" height="20" viewBox="0 0 20 20" fill="none" xmlns="http://www.w3.org/2000/svg">
<path d="M3.5 2.16669C2.673 2.16669 2 2.83969 2 3.66669C2 4.49369 2.673 5.16669 3.5 5.16669C4.327 5.16669 5 4.49369 5 3.66669C5 2.83969 4.327 2.16669 3.5 2.16669ZM3.5 4.50002C3.04067 4.50002 2.66667 4.12635 2.66667 3.66669C2.66667 3.20702 3.04067 2.83335 3.5 2.83335C3.95933 2.83335 4.33333 3.20702 4.33333 3.66669C4.33333 4.12635 3.95933 4.50002 3.5 4.50002Z" fill="white"/>
<path d="M16.6668 3.49998C16.8509 3.49998 17.0002 3.35074 17.0002 3.16665C17.0002 2.98255 16.8509 2.83331 16.6668 2.83331C16.4827 2.83331 16.3335 2.98255 16.3335 3.16665C16.3335 3.35074 16.4827 3.49998 16.6668 3.49998Z" fill="white"/>
<path d="M15.3333 3.49998C15.5174 3.49998 15.6667 3.35074 15.6667 3.16665C15.6667 2.98255 15.5174 2.83331 15.3333 2.83331C15.1492 2.83331 15 2.98255 15 3.16665C15 3.35074 15.1492 3.49998 15.3333 3.49998Z" fill="white"/>
<path d="M17.3333 4.49998C17.5174 4.49998 17.6667 4.35074 17.6667 4.16665C17.6667 3.98255 17.5174 3.83331 17.3333 3.83331C17.1492 3.83331 17 3.98255 17 4.16665C17 4.35074 17.1492 4.49998 17.3333 4.49998Z" fill="white"/>
<path d="M15.9998 4.49998C16.1839 4.49998 16.3332 4.35074 16.3332 4.16665C16.3332 3.98255 16.1839 3.83331 15.9998 3.83331C15.8157 3.83331 15.6665 3.98255 15.6665 4.16665C15.6665 4.35074 15.8157 4.49998 15.9998 4.49998Z" fill="white"/>
<path d="M13.9998 3.49998C14.1839 3.49998 14.3332 3.35074 14.3332 3.16665C14.3332 2.98255 14.1839 2.83331 13.9998 2.83331C13.8157 2.83331 13.6665 2.98255 13.6665 3.16665C13.6665 3.35074 13.8157 3.49998 13.9998 3.49998Z" fill="white"/>
<path d="M14.6668 4.49998C14.8509 4.49998 15.0002 4.35074 15.0002 4.16665C15.0002 3.98255 14.8509 3.83331 14.6668 3.83331C14.4827 3.83331 14.3335 3.98255 14.3335 4.16665C14.3335 4.35074 14.4827 4.49998 14.6668 4.49998Z" fill="white"/>
<path d="M12.6668 3.49998C12.8509 3.49998 13.0002 3.35074 13.0002 3.16665C13.0002 2.98255 12.8509 2.83331 12.6668 2.83331C12.4827 2.83331 12.3335 2.98255 12.3335 3.16665C12.3335 3.35074 12.4827 3.49998 12.6668 3.49998Z" fill="white"/>
<path d="M13.3333 4.49998C13.5174 4.49998 13.6667 4.35074 13.6667 4.16665C13.6667 3.98255 13.5174 3.83331 13.3333 3.83331C13.1492 3.83331 13 3.98255 13 4.16665C13 4.35074 13.1492 4.49998 13.3333 4.49998Z" fill="white"/>
<path d="M11.3333 3.49998C11.5174 3.49998 11.6667 3.35074 11.6667 3.16665C11.6667 2.98255 11.5174 2.83331 11.3333 2.83331C11.1492 2.83331 11 2.98255 11 3.16665C11 3.35074 11.1492 3.49998 11.3333 3.49998Z" fill="white"/>
<path d="M11.9998 4.49998C12.1839 4.49998 12.3332 4.35074 12.3332 4.16665C12.3332 3.98255 12.1839 3.83331 11.9998 3.83331C11.8157 3.83331 11.6665 3.98255 11.6665 4.16665C11.6665 4.35074 11.8157 4.49998 11.9998 4.49998Z" fill="white"/>
<path d="M20 5.464V1.536C19.9996 1.12876 19.8376 0.738331 19.5496 0.450371C19.2617 0.162411 18.8712 0.000441163 18.464 0H1.536C1.12876 0.000441163 0.738332 0.162411 0.450371 0.450371C0.162411 0.738331 0.000441163 1.12876 0 1.536L0 5.46367C0 5.95333 0.234333 6.385 0.592333 6.66633C0.234333 6.948 0 7.38 0 7.86933V11.797C0 12.2867 0.234333 12.7183 0.592333 12.9997C0.234333 13.2813 0 13.7133 0 14.2027V18.1303C0.000352932 18.5376 0.162284 18.9281 0.450254 19.2162C0.738223 19.5042 1.12871 19.6662 1.536 19.6667H18.4637C18.8709 19.6662 19.2613 19.5043 19.5493 19.2163C19.8373 18.9283 19.9992 18.5379 19.9997 18.1307V14.2027C19.9997 13.713 19.7653 13.2813 19.4073 13C19.7657 12.7187 20 12.2867 20 11.7973V7.86933C20 7.37967 19.7657 6.948 19.4077 6.66667C19.7657 6.38533 20 5.95333 20 5.464ZM19.3333 14.2027V18.1303C19.3331 18.3608 19.2414 18.5818 19.0784 18.7447C18.9154 18.9077 18.6945 18.9994 18.464 18.9997H1.536C1.30555 18.9995 1.08458 18.9079 0.921601 18.745C0.758617 18.582 0.666932 18.3611 0.666667 18.1307V14.2027C0.666931 13.9722 0.758607 13.7512 0.921581 13.5882C1.08456 13.4253 1.30552 13.3336 1.536 13.3333H18.4637C18.6942 13.3335 18.9153 13.4251 19.0783 13.5881C19.2413 13.7511 19.3331 13.9721 19.3333 14.2027ZM19.3333 7.86933V11.797C19.3331 12.0275 19.2414 12.2484 19.0784 12.4114C18.9154 12.5744 18.6945 12.6661 18.464 12.6663H1.536C1.30555 12.6662 1.08458 12.5746 0.921601 12.4116C0.758617 12.2487 0.666932 12.0278 0.666667 11.7973V7.86933C0.666931 7.63885 0.758607 7.41789 0.921581 7.25491C1.08456 7.09194 1.30552 7.00026 1.536 7H18.4637C18.6942 7.00018 18.9153 7.09181 19.0783 7.2548C19.2413 7.41778 19.3331 7.63879 19.3333 7.86933ZM1.536 6.33333C1.30552 6.33307 1.08456 6.24139 0.921581 6.07842C0.758607 5.91544 0.666931 5.69448 0.666667 5.464V1.536C0.666931 1.30552 0.758607 1.08455 0.921581 0.921581C1.08456 0.758606 1.30552 0.666931 1.536 0.666667H18.4637C18.6942 0.666843 18.9153 0.758479 19.0783 0.921463C19.2413 1.08445 19.3331 1.30546 19.3333 1.536V5.46367C19.3331 5.69415 19.2414 5.91511 19.0784 6.07808C18.9154 6.24106 18.6945 6.33273 18.464 6.333H1.536V6.33333Z" fill="white"/>
<path d="M3.5 11.5C4.327 11.5 5 10.827 5 10C5 9.173 4.327 8.5 3.5 8.5C2.673 8.5 2 9.173 2 10C2 10.827 2.673 11.5 3.5 11.5ZM3.5 9.16667C3.95933 9.16667 4.33333 9.54033 4.33333 10C4.33333 10.4597 3.95933 10.8333 3.5 10.8333C3.04067 10.8333 2.66667 10.4597 2.66667 10C2.66667 9.54033 3.04067 9.16667 3.5 9.16667Z" fill="white"/>
<path d="M16.6668 9.83335C16.8509 9.83335 17.0002 9.68411 17.0002 9.50002C17.0002 9.31593 16.8509 9.16669 16.6668 9.16669C16.4827 9.16669 16.3335 9.31593 16.3335 9.50002C16.3335 9.68411 16.4827 9.83335 16.6668 9.83335Z" fill="white"/>
<path d="M15.3333 9.83335C15.5174 9.83335 15.6667 9.68411 15.6667 9.50002C15.6667 9.31593 15.5174 9.16669 15.3333 9.16669C15.1492 9.16669 15 9.31593 15 9.50002C15 9.68411 15.1492 9.83335 15.3333 9.83335Z" fill="white"/>
<path d="M17.3333 10.8334C17.5174 10.8334 17.6667 10.6841 17.6667 10.5C17.6667 10.3159 17.5174 10.1667 17.3333 10.1667C17.1492 10.1667 17 10.3159 17 10.5C17 10.6841 17.1492 10.8334 17.3333 10.8334Z" fill="white"/>
<path d="M15.9998 10.8334C16.1839 10.8334 16.3332 10.6841 16.3332 10.5C16.3332 10.3159 16.1839 10.1667 15.9998 10.1667C15.8157 10.1667 15.6665 10.3159 15.6665 10.5C15.6665 10.6841 15.8157 10.8334 15.9998 10.8334Z" fill="white"/>
<path d="M13.9998 9.83335C14.1839 9.83335 14.3332 9.68411 14.3332 9.50002C14.3332 9.31593 14.1839 9.16669 13.9998 9.16669C13.8157 9.16669 13.6665 9.31593 13.6665 9.50002C13.6665 9.68411 13.8157 9.83335 13.9998 9.83335Z" fill="white"/>
<path d="M14.6668 10.8334C14.8509 10.8334 15.0002 10.6841 15.0002 10.5C15.0002 10.3159 14.8509 10.1667 14.6668 10.1667C14.4827 10.1667 14.3335 10.3159 14.3335 10.5C14.3335 10.6841 14.4827 10.8334 14.6668 10.8334Z" fill="white"/>
<path d="M12.6668 9.83335C12.8509 9.83335 13.0002 9.68411 13.0002 9.50002C13.0002 9.31593 12.8509 9.16669 12.6668 9.16669C12.4827 9.16669 12.3335 9.31593 12.3335 9.50002C12.3335 9.68411 12.4827 9.83335 12.6668 9.83335Z" fill="white"/>
<path d="M13.3333 10.8334C13.5174 10.8334 13.6667 10.6841 13.6667 10.5C13.6667 10.3159 13.5174 10.1667 13.3333 10.1667C13.1492 10.1667 13 10.3159 13 10.5C13 10.6841 13.1492 10.8334 13.3333 10.8334Z" fill="white"/>
<path d="M11.3333 9.83335C11.5174 9.83335 11.6667 9.68411 11.6667 9.50002C11.6667 9.31593 11.5174 9.16669 11.3333 9.16669C11.1492 9.16669 11 9.31593 11 9.50002C11 9.68411 11.1492 9.83335 11.3333 9.83335Z" fill="white"/>
<path d="M11.9998 10.8334C12.1839 10.8334 12.3332 10.6841 12.3332 10.5C12.3332 10.3159 12.1839 10.1667 11.9998 10.1667C11.8157 10.1667 11.6665 10.3159 11.6665 10.5C11.6665 10.6841 11.8157 10.8334 11.9998 10.8334Z" fill="white"/>
<path d="M3.5 17.8333C4.327 17.8333 5 17.1603 5 16.3333C5 15.5063 4.327 14.8333 3.5 14.8333C2.673 14.8333 2 15.5063 2 16.3333C2 17.1603 2.673 17.8333 3.5 17.8333ZM3.5 15.5C3.95933 15.5 4.33333 15.8736 4.33333 16.3333C4.33333 16.793 3.95933 17.1666 3.5 17.1666C3.04067 17.1666 2.66667 16.793 2.66667 16.3333C2.66667 15.8736 3.04067 15.5 3.5 15.5Z" fill="white"/>
<path d="M16.6668 16.1667C16.8509 16.1667 17.0002 16.0174 17.0002 15.8333C17.0002 15.6492 16.8509 15.5 16.6668 15.5C16.4827 15.5 16.3335 15.6492 16.3335 15.8333C16.3335 16.0174 16.4827 16.1667 16.6668 16.1667Z" fill="white"/>
<path d="M15.3333 16.1667C15.5174 16.1667 15.6667 16.0174 15.6667 15.8333C15.6667 15.6492 15.5174 15.5 15.3333 15.5C15.1492 15.5 15 15.6492 15 15.8333C15 16.0174 15.1492 16.1667 15.3333 16.1667Z" fill="white"/>
<path d="M17.3333 17.1667C17.5174 17.1667 17.6667 17.0174 17.6667 16.8333C17.6667 16.6492 17.5174 16.5 17.3333 16.5C17.1492 16.5 17 16.6492 17 16.8333C17 17.0174 17.1492 17.1667 17.3333 17.1667Z" fill="white"/>
<path d="M15.9998 17.1667C16.1839 17.1667 16.3332 17.0174 16.3332 16.8333C16.3332 16.6492 16.1839 16.5 15.9998 16.5C15.8157 16.5 15.6665 16.6492 15.6665 16.8333C15.6665 17.0174 15.8157 17.1667 15.9998 17.1667Z" fill="white"/>
<path d="M13.9998 16.1667C14.1839 16.1667 14.3332 16.0174 14.3332 15.8333C14.3332 15.6492 14.1839 15.5 13.9998 15.5C13.8157 15.5 13.6665 15.6492 13.6665 15.8333C13.6665 16.0174 13.8157 16.1667 13.9998 16.1667Z" fill="white"/>
<path d="M14.6668 17.1667C14.8509 17.1667 15.0002 17.0174 15.0002 16.8333C15.0002 16.6492 14.8509 16.5 14.6668 16.5C14.4827 16.5 14.3335 16.6492 14.3335 16.8333C14.3335 17.0174 14.4827 17.1667 14.6668 17.1667Z" fill="white"/>
<path d="M12.6668 16.1667C12.8509 16.1667 13.0002 16.0174 13.0002 15.8333C13.0002 15.6492 12.8509 15.5 12.6668 15.5C12.4827 15.5 12.3335 15.6492 12.3335 15.8333C12.3335 16.0174 12.4827 16.1667 12.6668 16.1667Z" fill="white"/>
<path d="M13.3333 17.1667C13.5174 17.1667 13.6667 17.0174 13.6667 16.8333C13.6667 16.6492 13.5174 16.5 13.3333 16.5C13.1492 16.5 13 16.6492 13 16.8333C13 17.0174 13.1492 17.1667 13.3333 17.1667Z" fill="white"/>
<path d="M11.3333 16.1667C11.5174 16.1667 11.6667 16.0174 11.6667 15.8333C11.6667 15.6492 11.5174 15.5 11.3333 15.5C11.1492 15.5 11 15.6492 11 15.8333C11 16.0174 11.1492 16.1667 11.3333 16.1667Z" fill="white"/>
<path d="M11.9998 17.1667C12.1839 17.1667 12.3332 17.0174 12.3332 16.8333C12.3332 16.6492 12.1839 16.5 11.9998 16.5C11.8157 16.5 11.6665 16.6492 11.6665 16.8333C11.6665 17.0174 11.8157 17.1667 11.9998 17.1667Z" fill="white"/>
</svg>
