<svg width="21" height="21" viewBox="0 0 21 21" fill="none" xmlns="http://www.w3.org/2000/svg">
<path d="M19.9967 5H19.3333V4H16V5H14.6667V3.06867C14.6663 2.78535 14.5536 2.51373 14.3533 2.31339C14.1529 2.11306 13.8813 2.00035 13.598 2H8.402C8.11868 2.00035 7.84707 2.11306 7.64673 2.31339C7.44639 2.51373 7.33369 2.78535 7.33333 3.06867V5H6V4H2.66667V5H2.00333C1.73734 5.00035 1.48234 5.10617 1.29426 5.29426C1.10617 5.48234 1.00035 5.73734 1 6.00333L1 17.9967C1.00035 18.2627 1.10617 18.5177 1.29426 18.7057C1.48234 18.8938 1.73734 18.9996 2.00333 19H19.9967C20.2627 18.9996 20.5177 18.8938 20.7057 18.7057C20.8938 18.5177 20.9996 18.2627 21 17.9967V6.00333C20.9996 5.73734 20.8938 5.48234 20.7057 5.29426C20.5177 5.10617 20.2627 5.00035 19.9967 5ZM16.6667 4.66667H18.6667V5H16.6667V4.66667ZM8 3.06867C8 2.847 8.18033 2.66667 8.402 2.66667H13.598C13.8197 2.66667 14 2.847 14 3.06867V5H8V3.06867ZM7.33333 5.66667H17.6667V18.3333H4.33333V5.66667H7.33333ZM3.33333 4.66667H5.33333V5H3.33333V4.66667ZM1.66667 17.9967V6.00333C1.66667 5.81767 1.81767 5.66667 2.00333 5.66667H3.66667V18.3333H2.00333C1.81767 18.3333 1.66667 18.1823 1.66667 17.9967ZM20.3333 17.9967C20.3333 18.1823 20.1823 18.3333 19.9967 18.3333H18.3333V5.66667H19.9967C20.1823 5.66667 20.3333 5.81767 20.3333 6.00333V17.9967Z" fill="white"/>
</svg>
