<svg width="20" height="20" viewBox="0 0 20 20" fill="none" xmlns="http://www.w3.org/2000/svg">
<path d="M19.629 12.6966C19.6293 12.6948 19.6286 12.6928 19.6293 12.691C19.869 11.8341 20 10.9324 20 10C20 9.06759 19.869 8.16586 19.6293 7.30897C19.629 7.30724 19.6297 7.30517 19.629 7.30345C19.6283 7.30069 19.6262 7.29897 19.6255 7.29655C19.5361 6.97876 19.4309 6.66561 19.3103 6.35828V6.24483C19.3097 6.18626 19.2939 6.12887 19.2644 6.07823C19.235 6.0276 19.193 5.98544 19.1424 5.95586C19.0218 5.68361 18.889 5.41691 18.7445 5.15655C18.8055 5.21073 18.8839 5.24109 18.9655 5.24207C19.057 5.24207 19.1447 5.20574 19.2093 5.14107C19.274 5.0764 19.3103 4.9887 19.3103 4.89724V4.56035C19.3103 4.46889 19.274 4.38118 19.2093 4.31651C19.1447 4.25185 19.057 4.21552 18.9655 4.21552C18.8741 4.21552 18.7864 4.25185 18.7217 4.31651C18.657 4.38118 18.6207 4.46889 18.6207 4.56035V4.89724C18.6207 4.91793 18.629 4.93552 18.6324 4.95517C18.6079 4.91345 18.5824 4.87276 18.5572 4.83138L18.5434 4.80897C18.5197 4.77 18.4969 4.73034 18.4724 4.69172C18.469 4.68621 18.4631 4.68345 18.4597 4.67828C18.2361 4.32278 17.9904 3.98165 17.7241 3.6569C17.7217 3.65345 17.721 3.64966 17.7186 3.64621C17.6502 3.56316 17.5804 3.48119 17.5093 3.40034C17.5041 3.39448 17.4969 3.39207 17.4914 3.38655C17.2162 3.07519 16.9219 2.78118 16.6103 2.50621C16.6052 2.50103 16.6031 2.49414 16.5972 2.48931C16.5166 2.41858 16.4349 2.34914 16.3521 2.28103C16.3497 2.27897 16.3466 2.27862 16.3438 2.27655C16.0184 2.00971 15.6766 1.76359 15.3203 1.53966C15.3152 1.53586 15.3124 1.53034 15.3066 1.52655C15.2686 1.50276 15.2297 1.48 15.1914 1.4569L15.1693 1.44345C15.1272 1.41793 15.0852 1.39172 15.0428 1.3669C15.0645 1.37069 15.0845 1.37931 15.1076 1.37931H15.4445C15.5359 1.37931 15.6236 1.34298 15.6883 1.27831C15.753 1.21364 15.7893 1.12594 15.7893 1.03448C15.7893 0.943029 15.753 0.855321 15.6883 0.790653C15.6236 0.725985 15.5359 0.689655 15.4445 0.689655H15.1076C15.0161 0.689655 14.9284 0.725985 14.8638 0.790653C14.7991 0.855321 14.7628 0.943029 14.7628 1.03448C14.7628 1.12172 14.7979 1.19897 14.851 1.25966C14.5884 1.11356 14.3193 0.979397 14.0445 0.857586C14.0149 0.807059 13.9727 0.765044 13.9221 0.735619C13.8715 0.706195 13.8141 0.690361 13.7555 0.689655H13.6421C13.3344 0.568833 13.0209 0.463528 12.7028 0.374138C12.7007 0.373793 12.6993 0.372069 12.6969 0.371379H12.6924C11.8352 0.131034 10.9328 0 10 0C9.06724 0 8.16483 0.131034 7.30759 0.371379H7.3031C7.30103 0.371724 7.29966 0.373448 7.29724 0.374138C6.97724 0.464138 6.66414 0.56931 6.35793 0.689655H6.24448C6.18592 0.690328 6.12853 0.706147 6.07789 0.735575C6.02725 0.765003 5.98509 0.807036 5.95552 0.857586C5.68241 0.978966 5.41586 1.11103 5.15621 1.25552C5.21038 1.19453 5.24074 1.11605 5.24172 1.03448C5.24172 0.943029 5.20539 0.855321 5.14073 0.790653C5.07606 0.725985 4.98835 0.689655 4.8969 0.689655H4.56C4.46855 0.689655 4.38084 0.725985 4.31617 0.790653C4.2515 0.855321 4.21517 0.943029 4.21517 1.03448C4.21517 1.12594 4.2515 1.21364 4.31617 1.27831C4.38084 1.34298 4.46855 1.37931 4.56 1.37931H4.8969C4.91759 1.37931 4.93552 1.37103 4.95517 1.36759C4.91448 1.39138 4.87448 1.41655 4.83414 1.44069L4.80552 1.45793C4.76724 1.48138 4.72862 1.50379 4.69069 1.52724C4.68517 1.53069 4.68241 1.53621 4.67724 1.54C4.32164 1.76414 3.9803 2.01013 3.65517 2.27655C3.65241 2.27862 3.64897 2.27931 3.64621 2.28138C3.5631 2.34966 3.48103 2.41931 3.40034 2.49069C3.39448 2.49586 3.39241 2.50241 3.38759 2.50759C3.07589 2.78291 2.78153 3.07726 2.50621 3.38897C2.50103 3.39448 2.49414 3.39655 2.48897 3.40207C2.4179 3.48292 2.34813 3.56488 2.27966 3.64793C2.27724 3.65103 2.2769 3.65483 2.27448 3.65793C2.00832 3.98257 1.76278 4.32359 1.53931 4.67897C1.53552 4.68448 1.52931 4.68759 1.52586 4.69345C1.50103 4.7331 1.47759 4.77345 1.45345 4.81345C1.45072 4.81734 1.44819 4.82137 1.44586 4.82552C1.41931 4.86931 1.39241 4.91276 1.36655 4.9569C1.37069 4.93552 1.37931 4.91552 1.37931 4.89241V4.55552C1.37931 4.46406 1.34298 4.37636 1.27831 4.31169C1.21364 4.24702 1.12594 4.21069 1.03448 4.21069C0.943029 4.21069 0.855321 4.24702 0.790653 4.31169C0.725985 4.37636 0.689655 4.46406 0.689655 4.55552V4.89241C0.689655 4.98387 0.725985 5.07158 0.790653 5.13624C0.855321 5.20091 0.943029 5.23724 1.03448 5.23724C1.11781 5.23634 1.19792 5.20494 1.25966 5.14897C1.11379 5.41069 0.98 5.68 0.857586 5.95552C0.807059 5.98512 0.765044 6.02728 0.735619 6.07792C0.706195 6.12855 0.690361 6.18593 0.689655 6.24448V6.35793C0.569 6.66523 0.463811 6.97838 0.374483 7.29621C0.373793 7.29897 0.371724 7.30069 0.371034 7.3031C0.37069 7.30483 0.371379 7.3069 0.37069 7.30862C0.131035 8.16586 0 9.06759 0 10C0 10.9324 0.131035 11.8341 0.37069 12.691C0.371035 12.6928 0.370345 12.6948 0.371034 12.6966C0.371724 12.6997 0.373793 12.7021 0.374828 12.7052C0.464483 13.0241 0.569655 13.3366 0.689655 13.6421V13.7555C0.689655 13.88 0.758966 13.9838 0.857586 14.0445C0.978966 14.3176 1.11103 14.5841 1.25552 14.8438C1.1945 14.7897 1.11604 14.7593 1.03448 14.7583C0.943029 14.7583 0.855321 14.7946 0.790653 14.8593C0.725985 14.9239 0.689655 15.0117 0.689655 15.1031V15.44C0.689655 15.5315 0.725985 15.6192 0.790653 15.6838C0.855321 15.7485 0.943029 15.7848 1.03448 15.7848C1.12594 15.7848 1.21364 15.7485 1.27831 15.6838C1.34298 15.6192 1.37931 15.5315 1.37931 15.44V15.1031C1.37931 15.0828 1.37103 15.0652 1.36759 15.0455C1.3931 15.089 1.41966 15.1317 1.44586 15.1745L1.45345 15.1869C1.47828 15.2276 1.50207 15.2686 1.52724 15.3086C1.53276 15.3176 1.54069 15.3241 1.5469 15.3324C1.76871 15.6843 2.01216 16.0221 2.27586 16.3438C2.27828 16.3472 2.27897 16.351 2.28138 16.3545C2.35 16.4376 2.41966 16.5197 2.49069 16.6003C2.49552 16.6059 2.50241 16.6076 2.50759 16.6128C2.78305 16.9247 3.07764 17.2191 3.38966 17.4945C3.39483 17.4997 3.3969 17.5066 3.40276 17.5114C3.48345 17.5821 3.56517 17.6517 3.64793 17.7197C3.65069 17.7221 3.65448 17.7228 3.65724 17.7248C3.98234 17.9913 4.32382 18.2372 4.67966 18.461C4.68483 18.4648 4.68759 18.4703 4.69345 18.4741C4.73138 18.4979 4.77034 18.5207 4.80862 18.5438L4.83069 18.5572C4.87276 18.5828 4.91448 18.609 4.95724 18.6338C4.93552 18.6293 4.91552 18.6207 4.89241 18.6207H4.55552C4.46406 18.6207 4.37636 18.657 4.31169 18.7217C4.24702 18.7864 4.21069 18.8741 4.21069 18.9655C4.21069 19.057 4.24702 19.1447 4.31169 19.2093C4.37636 19.274 4.46406 19.3103 4.55552 19.3103H4.89241C4.98387 19.3103 5.07158 19.274 5.13624 19.2093C5.20091 19.1447 5.23724 19.057 5.23724 18.9655C5.23628 18.8822 5.20488 18.8021 5.14897 18.7403C5.41069 18.8862 5.68 19.02 5.95552 19.1424C5.98512 19.1929 6.02728 19.235 6.07792 19.2644C6.12855 19.2938 6.18593 19.3096 6.24448 19.3103H6.35793C6.66414 19.4307 6.97724 19.5359 7.29724 19.6259C7.29931 19.6262 7.30069 19.6279 7.3031 19.6286C7.30552 19.6293 7.30759 19.629 7.31 19.6293C8.16655 19.869 9.06793 20 10 20C10.9321 20 11.8334 19.869 12.69 19.6293L12.6969 19.6286C12.699 19.6283 12.7003 19.6266 12.7028 19.6259C13.0209 19.5365 13.3344 19.4312 13.6421 19.3103H13.7555C13.8141 19.3097 13.8715 19.2939 13.9221 19.2644C13.9727 19.235 14.0149 19.193 14.0445 19.1424C14.3168 19.0218 14.5835 18.8891 14.8438 18.7445C14.7896 18.8055 14.7593 18.8839 14.7583 18.9655C14.7583 19.057 14.7946 19.1447 14.8593 19.2093C14.9239 19.274 15.0117 19.3103 15.1031 19.3103H15.44C15.5315 19.3103 15.6192 19.274 15.6838 19.2093C15.7485 19.1447 15.7848 19.057 15.7848 18.9655C15.7848 18.8741 15.7485 18.7864 15.6838 18.7217C15.6192 18.657 15.5315 18.6207 15.44 18.6207H15.1031C15.0824 18.6207 15.0645 18.629 15.0448 18.6324C15.0855 18.6086 15.1255 18.5834 15.1659 18.5593L15.1945 18.5421C15.2328 18.5186 15.2714 18.4962 15.3093 18.4728C15.3148 18.4693 15.3176 18.4638 15.3228 18.46C15.6781 18.2365 16.0191 17.991 16.3438 17.7248C16.3469 17.7224 16.351 17.7214 16.3541 17.719C16.4372 17.6507 16.5193 17.581 16.6 17.5097C16.6055 17.5048 16.6076 17.4979 16.6128 17.4928C16.9247 17.2169 17.2194 16.9221 17.4952 16.61C17.5 16.6052 17.5066 16.6034 17.511 16.5983C17.5821 16.5176 17.6517 16.4355 17.7203 16.3524C17.7228 16.3493 17.7231 16.3455 17.7255 16.3424C17.9892 16.0207 18.2327 15.6829 18.4545 15.331C18.4607 15.3228 18.4686 15.3162 18.4741 15.3072C18.499 15.2676 18.5224 15.2272 18.5466 15.1872L18.5541 15.1748C18.5807 15.131 18.6076 15.0876 18.6334 15.0434C18.6293 15.0648 18.6207 15.0845 18.6207 15.1076V15.4445C18.6207 15.5359 18.657 15.6236 18.7217 15.6883C18.7864 15.753 18.8741 15.7893 18.9655 15.7893C19.057 15.7893 19.1447 15.753 19.2093 15.6883C19.274 15.6236 19.3103 15.5359 19.3103 15.4445V15.1076C19.3103 15.0161 19.274 14.9284 19.2093 14.8638C19.1447 14.7991 19.057 14.7628 18.9655 14.7628C18.8822 14.7637 18.8021 14.7951 18.7403 14.851C18.8862 14.5893 19.02 14.32 19.1424 14.0445C19.1929 14.0149 19.235 13.9727 19.2644 13.9221C19.2938 13.8715 19.3096 13.8141 19.3103 13.7555V13.6421C19.4303 13.3369 19.5352 13.0245 19.6252 12.7052C19.6259 12.7021 19.6283 12.7 19.629 12.6966ZM17.9559 14.8314C17.1795 16.1041 16.111 17.1736 14.839 17.951L14.8066 17.9707C14.1942 18.341 13.541 18.6391 12.86 18.859L11.8983 15.0121C12.6075 14.7417 13.2515 14.3245 13.7882 13.7878C14.3248 13.2512 14.742 12.6071 15.0124 11.8979L18.8593 12.8597C18.6383 13.5439 18.3385 14.2002 17.9659 14.8152L17.9559 14.8314ZM5.19034 17.9686L5.16448 17.9531C3.88492 17.1716 2.81126 16.0949 2.03345 14.8131C1.66132 14.1987 1.36184 13.5432 1.14103 12.8597L4.98793 11.8979C5.25824 12.6071 5.67542 13.2512 6.2121 13.7879C6.74878 14.3246 7.39285 14.7418 8.10207 15.0121L7.14035 18.859C6.45811 18.6386 5.80374 18.3398 5.19034 17.9686ZM2.04414 5.16862C2.82047 3.89585 3.88895 2.82643 5.16103 2.04897L5.19345 2.02931C5.80581 1.65903 6.45902 1.36095 7.14 1.14103L8.10172 4.98793C7.39254 5.2583 6.7485 5.6755 6.21183 6.21217C5.67515 6.74885 5.25796 7.39289 4.98759 8.10207L1.14069 7.14035C1.36169 6.45607 1.66152 5.79983 2.03414 5.18483L2.04414 5.16862ZM4.78448 8.76172C4.69 9.16 4.63448 9.5731 4.63448 10C4.63448 10.4269 4.69 10.84 4.78448 11.2383L0.953793 12.1959C0.782414 11.4914 0.689655 10.7566 0.689655 10C0.689655 9.24345 0.782414 8.50862 0.953793 7.80414L4.78448 8.76172ZM5.32414 10C5.32414 7.42172 7.42172 5.32414 10 5.32414C12.5783 5.32414 14.6759 7.42172 14.6759 10C14.6759 12.5783 12.5783 14.6759 10 14.6759C7.42172 14.6759 5.32414 12.5783 5.32414 10ZM14.8097 2.03138L14.8355 2.0469C16.1067 2.82321 17.1748 3.89105 17.9514 5.16207L17.9697 5.19241C18.3402 5.80512 18.6385 6.45866 18.8586 7.14L15.0117 8.10172C14.7414 7.39251 14.3242 6.74844 13.7876 6.21176C13.2509 5.67507 12.6068 5.2579 11.8976 4.98759L12.8593 1.14069C13.5416 1.36129 14.1961 1.66017 14.8097 2.03138ZM19.3103 10C19.3103 10.7566 19.2176 11.4914 19.0462 12.1959L15.2155 11.2383C15.31 10.84 15.3655 10.4269 15.3655 10C15.3655 9.5731 15.31 9.16 15.2155 8.76172L19.0462 7.80414C19.2176 8.50862 19.3103 9.24345 19.3103 10ZM12.1959 0.953793L11.2383 4.78483C10.84 4.69 10.4269 4.63448 10 4.63448C9.5731 4.63448 9.16 4.69 8.76172 4.78448L7.80414 0.953448C8.50862 0.782759 9.24345 0.689655 10 0.689655C10.7566 0.689655 11.4914 0.782759 12.1959 0.953793ZM7.80414 19.0462L8.76172 15.2152C9.16 15.3097 9.5731 15.3652 10 15.3652C10.4269 15.3652 10.84 15.3097 11.2383 15.2152L12.1959 19.0462C11.4914 19.2172 10.7566 19.3103 10 19.3103C9.24345 19.3103 8.50862 19.2172 7.80414 19.0462ZM1.36483 1.94448C1.41643 1.94453 1.46738 1.933 1.51393 1.91074C1.56048 1.88848 1.60144 1.85606 1.63379 1.81586C1.68862 1.74759 1.75069 1.68552 1.81793 1.63207C1.88949 1.57505 1.93547 1.49193 1.94576 1.40101C1.95604 1.31009 1.92978 1.2188 1.87276 1.14724C1.84452 1.11181 1.80959 1.08228 1.76994 1.06035C1.7303 1.03842 1.68672 1.02451 1.6417 1.01942C1.55078 1.00913 1.45949 1.03539 1.38793 1.09241C1.28103 1.17793 1.18276 1.27552 1.09621 1.38345C1.05543 1.43412 1.02981 1.49528 1.02231 1.55989C1.01481 1.6245 1.02573 1.68991 1.05382 1.74857C1.08191 1.80723 1.12601 1.85675 1.18104 1.89142C1.23607 1.92609 1.29979 1.94448 1.36483 1.94448ZM1.03448 3.5531C1.12594 3.5531 1.21364 3.51677 1.27831 3.45211C1.34298 3.38744 1.37931 3.29973 1.37931 3.20828V2.87103C1.37931 2.77958 1.34298 2.69187 1.27831 2.6272C1.21364 2.56254 1.12594 2.52621 1.03448 2.52621C0.943029 2.52621 0.855321 2.56254 0.790653 2.6272C0.725985 2.69187 0.689655 2.77958 0.689655 2.87103V3.20828C0.689655 3.29973 0.725985 3.38744 0.790653 3.45211C0.855321 3.51677 0.943029 3.5531 1.03448 3.5531ZM2.87552 1.37931H3.21241C3.30387 1.37931 3.39158 1.34298 3.45624 1.27831C3.52091 1.21364 3.55724 1.12594 3.55724 1.03448C3.55724 0.943029 3.52091 0.855321 3.45624 0.790653C3.39158 0.725985 3.30387 0.689655 3.21241 0.689655H2.87552C2.78406 0.689655 2.69636 0.725985 2.63169 0.790653C2.56702 0.855321 2.53069 0.943029 2.53069 1.03448C2.53069 1.12594 2.56702 1.21364 2.63169 1.27831C2.69636 1.34298 2.78406 1.37931 2.87552 1.37931ZM18.6207 2.87552V3.21276C18.6207 3.30421 18.657 3.39192 18.7217 3.45659C18.7864 3.52126 18.8741 3.55759 18.9655 3.55759C19.057 3.55759 19.1447 3.52126 19.2093 3.45659C19.274 3.39192 19.3103 3.30421 19.3103 3.21276V2.87552C19.3103 2.78406 19.274 2.69636 19.2093 2.63169C19.1447 2.56702 19.057 2.53069 18.9655 2.53069C18.8741 2.53069 18.7864 2.56702 18.7217 2.63169C18.657 2.69636 18.6207 2.78406 18.6207 2.87552ZM18.3683 1.81759C18.3965 1.85308 18.4314 1.88266 18.471 1.90463C18.5107 1.9266 18.5543 1.94054 18.5993 1.94563C18.6444 1.95072 18.69 1.94688 18.7335 1.93431C18.7771 1.92175 18.8177 1.90071 18.8531 1.87241C18.9246 1.81543 18.9706 1.73238 18.9808 1.64152C18.9911 1.55067 18.9649 1.45945 18.9079 1.38793C18.8218 1.28008 18.7241 1.18202 18.6166 1.09552C18.5452 1.03827 18.4541 1.0117 18.3631 1.02166C18.2722 1.03162 18.189 1.07729 18.1317 1.14862C18.0745 1.21995 18.0479 1.31111 18.0579 1.40203C18.0678 1.49296 18.1135 1.5762 18.1848 1.63345C18.2524 1.68828 18.3141 1.75 18.3683 1.81759ZM16.7917 1.37931H17.1286C17.2201 1.37931 17.3078 1.34298 17.3725 1.27831C17.4371 1.21364 17.4734 1.12594 17.4734 1.03448C17.4734 0.943029 17.4371 0.855321 17.3725 0.790653C17.3078 0.725985 17.2201 0.689655 17.1286 0.689655H16.7917C16.7003 0.689655 16.6126 0.725985 16.5479 0.790653C16.4832 0.855321 16.4469 0.943029 16.4469 1.03448C16.4469 1.12594 16.4832 1.21364 16.5479 1.27831C16.6126 1.34298 16.7003 1.37931 16.7917 1.37931ZM18.3666 18.1841C18.3122 18.252 18.2504 18.3137 18.1824 18.3679C18.147 18.3962 18.1175 18.4311 18.0956 18.4707C18.0737 18.5104 18.0598 18.5539 18.0547 18.5989C18.0445 18.6898 18.0707 18.7811 18.1278 18.8526C18.1848 18.9241 18.2679 18.97 18.3588 18.9803C18.4497 18.9905 18.5409 18.9643 18.6124 18.9072C18.7197 18.8217 18.8179 18.7241 18.9045 18.6162C18.9329 18.5809 18.954 18.5403 18.9667 18.4968C18.9794 18.4533 18.9834 18.4078 18.9785 18.3627C18.9735 18.3177 18.9598 18.2741 18.938 18.2344C18.9163 18.1946 18.8869 18.1596 18.8516 18.1312C18.8162 18.1028 18.7757 18.0817 18.7322 18.069C18.6887 18.0563 18.6431 18.0523 18.5981 18.0572C18.5531 18.0621 18.5094 18.0759 18.4697 18.0977C18.43 18.1194 18.3949 18.1488 18.3666 18.1841ZM17.1245 18.6207H16.7876C16.6961 18.6207 16.6084 18.657 16.5438 18.7217C16.4791 18.7864 16.4428 18.8741 16.4428 18.9655C16.4428 19.057 16.4791 19.1447 16.5438 19.2093C16.6084 19.274 16.6961 19.3103 16.7876 19.3103H17.1245C17.2159 19.3103 17.3036 19.274 17.3683 19.2093C17.433 19.1447 17.4693 19.057 17.4693 18.9655C17.4693 18.8741 17.433 18.7864 17.3683 18.7217C17.3036 18.657 17.2159 18.6207 17.1245 18.6207ZM18.9655 16.4469C18.8741 16.4469 18.7864 16.4832 18.7217 16.5479C18.657 16.6126 18.6207 16.7003 18.6207 16.7917V17.129C18.6207 17.2204 18.657 17.3081 18.7217 17.3728C18.7864 17.4375 18.8741 17.4738 18.9655 17.4738C19.057 17.4738 19.1447 17.4375 19.2093 17.3728C19.274 17.3081 19.3103 17.2204 19.3103 17.129V16.7917C19.3103 16.7003 19.274 16.6126 19.2093 16.5479C19.1447 16.4832 19.057 16.4469 18.9655 16.4469ZM3.20828 18.6207H2.87138C2.77993 18.6207 2.69222 18.657 2.62755 18.7217C2.56288 18.7864 2.52655 18.8741 2.52655 18.9655C2.52655 19.057 2.56288 19.1447 2.62755 19.2093C2.69222 19.274 2.77993 19.3103 2.87138 19.3103H3.20828C3.29973 19.3103 3.38744 19.274 3.45211 19.2093C3.51677 19.1447 3.5531 19.057 3.5531 18.9655C3.5531 18.8741 3.51677 18.7864 3.45211 18.7217C3.38744 18.657 3.29973 18.6207 3.20828 18.6207ZM1.37931 17.1245V16.7872C1.37931 16.6958 1.34298 16.6081 1.27831 16.5434C1.21364 16.4787 1.12594 16.4424 1.03448 16.4424C0.943029 16.4424 0.855321 16.4787 0.790653 16.5434C0.725985 16.6081 0.689655 16.6958 0.689655 16.7872V17.1245C0.689655 17.2159 0.725985 17.3036 0.790653 17.3683C0.855321 17.433 0.943029 17.4693 1.03448 17.4693C1.12594 17.4693 1.21364 17.433 1.27831 17.3683C1.34298 17.3036 1.37931 17.2159 1.37931 17.1245ZM1.63172 18.1824C1.57413 18.1128 1.49151 18.0686 1.40165 18.0593C1.31179 18.05 1.22187 18.0763 1.15121 18.1326C1.08055 18.1889 1.0348 18.2706 1.02381 18.3603C1.01281 18.45 1.03745 18.5404 1.09241 18.6121C1.17828 18.7197 1.27621 18.8179 1.38379 18.9045C1.41906 18.9329 1.45959 18.954 1.50305 18.9667C1.54651 18.9794 1.59205 18.9834 1.63706 18.9785C1.68206 18.9735 1.72565 18.9598 1.76533 18.938C1.80501 18.9162 1.83999 18.8867 1.86828 18.8514C1.89663 18.8161 1.91775 18.7755 1.93042 18.732C1.9431 18.6885 1.94709 18.643 1.94215 18.598C1.93722 18.5529 1.92347 18.5093 1.90168 18.4696C1.8799 18.4299 1.8505 18.3949 1.81517 18.3666C1.74763 18.3119 1.68613 18.2502 1.63172 18.1824Z" fill="white"/>
</svg>
